<?xml version="1.0"?>
<svg xmlns="http://www.w3.org/2000/svg" xmlns:xlink="http://www.w3.org/1999/xlink" width="1920" height="516" viewBox="0 0 1920 516">
  <defs>
    <style>.a{fill:url(#a);}.b{clip-path:url(#c);}.c{opacity:0.15;}.d{opacity:0.2;}.e{fill:#fff;}.f{opacity:0.3;}.g{fill:url(#h);}.h{opacity:0.25;}.i{filter:url(#p);}.j{filter:url(#m);}.k{filter:url(#k);}.l{filter:url(#i);}.m{filter:url(#f);}.n{filter:url(#d);}</style>
    <linearGradient id="a" y1="1" x2="1" gradientUnits="objectBoundingBox">
      <stop offset="0" stop-color="#4786ff"/>
      <stop offset="0.479" stop-color="#5a66f5"/>
      <stop offset="1" stop-color="#6454f0"/>
    </linearGradient>
    <clipPath id="c">
      <path class="a" d="M0,0H1920V516H0Z" transform="translate(1920 516) rotate(180)"/>
    </clipPath>
    <filter id="d" x="-616.202" y="-621.486" width="1041.096" height="1041.096" filterUnits="userSpaceOnUse">
      <feOffset dy="5"/>
      <feGaussianBlur stdDeviation="10" result="e"/>
      <feFlood flood-color="#e4e4e4" flood-opacity="0.502"/>
      <feComposite operator="in" in2="e"/>
      <feComposite in="SourceGraphic"/>
    </filter>
    <filter id="f" x="-549.232" y="-688.004" width="1041.096" height="1041.096" filterUnits="userSpaceOnUse">
      <feOffset dy="5"/>
      <feGaussianBlur stdDeviation="10" result="g"/>
      <feFlood flood-color="#e4e4e4" flood-opacity="0.502"/>
      <feComposite operator="in" in2="g"/>
      <feComposite in="SourceGraphic"/>
    </filter>
    <linearGradient id="h" x1="0.752" y1="0.036" x2="0.457" y2="1" gradientUnits="objectBoundingBox">
      <stop offset="0" stop-color="#fff" stop-opacity="0.588"/>
      <stop offset="1" stop-color="#fff"/>
    </linearGradient>
    <filter id="i" x="-482.256" y="-754.529" width="1041.096" height="1041.096" filterUnits="userSpaceOnUse">
      <feOffset dy="5"/>
      <feGaussianBlur stdDeviation="10" result="j"/>
      <feFlood flood-color="#e4e4e4" flood-opacity="0.502"/>
      <feComposite operator="in" in2="j"/>
      <feComposite in="SourceGraphic"/>
    </filter>
    <filter id="k" x="1078.798" y="-216.166" width="1041.096" height="1041.096" filterUnits="userSpaceOnUse">
      <feOffset dy="5"/>
      <feGaussianBlur stdDeviation="10" result="l"/>
      <feFlood flood-color="#e4e4e4" flood-opacity="0.502"/>
      <feComposite operator="in" in2="l"/>
      <feComposite in="SourceGraphic"/>
    </filter>
    <filter id="m" x="1145.768" y="-282.684" width="1041.096" height="1041.096" filterUnits="userSpaceOnUse">
      <feOffset dy="5"/>
      <feGaussianBlur stdDeviation="10" result="n"/>
      <feFlood flood-color="#e4e4e4" flood-opacity="0.502"/>
      <feComposite operator="in" in2="n"/>
      <feComposite in="SourceGraphic"/>
    </filter>
    <filter id="p" x="1212.744" y="-349.209" width="1041.096" height="1041.096" filterUnits="userSpaceOnUse">
      <feOffset dy="5"/>
      <feGaussianBlur stdDeviation="10" result="q"/>
      <feFlood flood-color="#e4e4e4" flood-opacity="0.502"/>
      <feComposite operator="in" in2="q"/>
      <feComposite in="SourceGraphic"/>
    </filter>
  </defs>
  <path class="a" d="M0,0H1920V516H0Z"/>
  <g class="b">
    <g transform="translate(-526.4 -729.653)">
      <g class="c" transform="translate(480.837 0) rotate(45)">
        <g class="d" transform="translate(-0.082 188.79)">
          <g class="n" transform="matrix(0.71, -0.71, 0.71, 0.71, 548.24, 294.93)">
            <path class="e" d="M462.51,4.389C355.9,24.776,279.584,85.827,263.3,163.84c-5.69,24.337-6.5,25.77-48.166,29.487C92.525,205.186.141,281.311-.159,370c-.3,87.972,77.189,152.795,223.676,186.629,128.073,30.32,405.277,22.945,505.536-13.154,28.876-10.826,35.307-17.285,49.843-51.664,25.846-62.311,31.56-93.8,32.65-178.914.4-119.441-32.969-200.147-104.882-254.975C647.534,13.061,541.069-10.9,462.51,4.389Z" transform="translate(-179.12 -596.22) rotate(45)"/>
          </g>
        </g>
        <g class="f" transform="translate(0.238 94.399)">
          <g class="m" transform="matrix(0.71, -0.71, 0.71, 0.71, 547.92, 389.33)">
            <path class="e" d="M462.51,4.389C355.9,24.776,279.584,85.827,263.3,163.84c-5.69,24.337-6.5,25.77-48.166,29.487C92.525,205.186.141,281.311-.159,370c-.3,87.972,77.189,152.795,223.676,186.629,128.073,30.32,405.277,22.945,505.536-13.154,28.876-10.826,35.307-17.285,49.843-51.664,25.846-62.311,31.56-93.8,32.65-178.914.4-119.441-32.969-200.147-104.882-254.975C647.534,13.061,541.069-10.9,462.51,4.389Z" transform="translate(-112.15 -662.73) rotate(45)"/>
          </g>
        </g>
        <g transform="translate(0.557 0)">
          <g class="l" transform="matrix(0.71, -0.71, 0.71, 0.71, 547.6, 483.72)">
            <path class="g" d="M462.51,4.389C355.9,24.776,279.584,85.827,263.3,163.84c-5.69,24.337-6.5,25.77-48.166,29.487C92.525,205.186.141,281.311-.159,370c-.3,87.972,77.189,152.795,223.676,186.629,128.073,30.32,405.277,22.945,505.536-13.154,28.876-10.826,35.307-17.285,49.843-51.664,25.846-62.311,31.56-93.8,32.65-178.914.4-119.441-32.969-200.147-104.882-254.975C647.534,13.061,541.069-10.9,462.51,4.389Z" transform="translate(-45.17 -729.26) rotate(45)"/>
          </g>
        </g>
      </g>
      <g class="h" transform="translate(2175.837 405.321) rotate(45)">
        <g class="d" transform="translate(-0.082 188.79)">
          <g class="k" transform="matrix(0.71, -0.71, 0.71, 0.71, -936.91, 1206.88)">
            <path class="e" d="M462.51,4.389C355.9,24.776,279.584,85.827,263.3,163.84c-5.69,24.337-6.5,25.77-48.166,29.487C92.525,205.186.141,281.311-.159,370c-.3,87.972,77.189,152.795,223.676,186.629,128.073,30.32,405.277,22.945,505.536-13.154,28.876-10.826,35.307-17.285,49.843-51.664,25.846-62.311,31.56-93.8,32.65-178.914.4-119.441-32.969-200.147-104.882-254.975C647.534,13.061,541.069-10.9,462.51,4.389Z" transform="translate(1515.88 -190.9) rotate(45)"/>
          </g>
        </g>
        <g class="f" transform="translate(0.238 94.399)">
          <g class="j" transform="matrix(0.71, -0.71, 0.71, 0.71, -937.23, 1301.27)">
            <path class="e" d="M462.51,4.389C355.9,24.776,279.584,85.827,263.3,163.84c-5.69,24.337-6.5,25.77-48.166,29.487C92.525,205.186.141,281.311-.159,370c-.3,87.972,77.189,152.795,223.676,186.629,128.073,30.32,405.277,22.945,505.536-13.154,28.876-10.826,35.307-17.285,49.843-51.664,25.846-62.311,31.56-93.8,32.65-178.914.4-119.441-32.969-200.147-104.882-254.975C647.534,13.061,541.069-10.9,462.51,4.389Z" transform="translate(1582.85 -257.41) rotate(45)"/>
          </g>
        </g>
        <g transform="translate(0.557 0)">
          <g class="i" transform="matrix(0.71, -0.71, 0.71, 0.71, -937.55, 1395.67)">
            <path class="g" d="M462.51,4.389C355.9,24.776,279.584,85.827,263.3,163.84c-5.69,24.337-6.5,25.77-48.166,29.487C92.525,205.186.141,281.311-.159,370c-.3,87.972,77.189,152.795,223.676,186.629,128.073,30.32,405.277,22.945,505.536-13.154,28.876-10.826,35.307-17.285,49.843-51.664,25.846-62.311,31.56-93.8,32.65-178.914.4-119.441-32.969-200.147-104.882-254.975C647.534,13.061,541.069-10.9,462.51,4.389Z" transform="translate(1649.83 -323.94) rotate(45)"/>
          </g>
        </g>
      </g>
    </g>
  </g>
</svg>
