<svg xmlns="http://www.w3.org/2000/svg" xmlns:xlink="http://www.w3.org/1999/xlink" width="70" height="70" viewBox="0 0 70 70"><defs><style>.a,.i{fill:#fff;}.a{stroke:#707070;}.b{clip-path:url(#a);}.c{fill:url(#b);}.d{fill:#e4e4e4;}.e{fill:#e3e3e3;}.f{fill:#f7f7f7;}.g{fill:url(#e);}.h{fill:rgba(255,255,255,0.64);}.j{fill:url(#f);}.k{filter:url(#l);}.l{filter:url(#c);}</style><clipPath id="a"><rect class="a" width="70" height="70" transform="translate(-2130.199 -887.478)"/></clipPath><linearGradient id="b" x1="0.5" x2="0.5" y2="1" gradientUnits="objectBoundingBox"><stop offset="0" stop-color="#f8f8f8"/><stop offset="1" stop-color="#f0f0f0"/></linearGradient><filter id="c" x="16.212" y="10.162" width="42.854" height="30.114" filterUnits="userSpaceOnUse"><feOffset dy="1" input="SourceAlpha"/><feGaussianBlur stdDeviation="0.5" result="d"/><feFlood flood-color="#323a45" flood-opacity="0.149"/><feComposite operator="in" in2="d"/><feComposite in="SourceGraphic"/></filter><linearGradient id="e" x1="0.5" x2="0.5" y2="1" gradientUnits="objectBoundingBox"><stop offset="0" stop-color="#4086e5"/><stop offset="1" stop-color="#2160b5"/></linearGradient><linearGradient id="f" x1="-0.18" y1="-0.445" x2="1.205" y2="1.195" gradientUnits="objectBoundingBox"><stop offset="0" stop-color="#fff" stop-opacity="0.478"/><stop offset="0.587" stop-color="#fff" stop-opacity="0.259"/><stop offset="1" stop-color="#fff" stop-opacity="0.478"/></linearGradient><filter id="l" x="39.585" y="33.165" width="30.925" height="30.925" filterUnits="userSpaceOnUse"><feOffset dy="1" input="SourceAlpha"/><feGaussianBlur stdDeviation="1.5" result="m"/><feFlood flood-opacity="0.051"/><feComposite operator="in" in2="m"/><feComposite in="SourceGraphic"/></filter></defs><g class="b" transform="translate(2130.199 887.478)"><g transform="translate(-2126.952 -876.816)"><g transform="translate(0 0)"><g transform="translate(14.457)"><g class="l" transform="matrix(1, 0, 0, 1, -17.7, -10.66)"><path class="c" d="M99.31,42.154V63.631a2.809,2.809,0,0,1-2.818,2.818H62.274a2.809,2.809,0,0,1-2.818-2.818V42.154a2.818,2.818,0,0,1,2.818-2.818H96.491A2.818,2.818,0,0,1,99.31,42.154Z" transform="translate(-41.74 -28.67)"/></g><rect class="d" width="39.868" height="4.577" transform="translate(0 5.127)"/><path class="e" d="M285.209,52.44h-9.1a1.409,1.409,0,0,0,0,2.818h9.1a1.409,1.409,0,1,0,0-2.818Z" transform="translate(-255.738 -51.286)"/><path class="e" d="M428.466,52.44H426a1.409,1.409,0,1,0,0,2.818h2.465a1.409,1.409,0,1,0,0-2.818Z" transform="translate(-392.424 -51.286)"/><path class="f" d="M94.057,107.528H87.185a1.409,1.409,0,1,0,0,2.818h6.871a1.409,1.409,0,1,0,0-2.818Z" transform="translate(-83.451 -101.522)"/><path class="f" d="M214.321,107.528h-2.463a1.409,1.409,0,0,0,0,2.818h2.463a1.409,1.409,0,1,0,0-2.818Z" transform="translate(-197.142 -101.522)"/></g><g transform="translate(0 12.172)"><path class="g" d="M43.747,196.815H3.328A3.327,3.327,0,0,1,0,193.487V168.12a3.328,3.328,0,0,1,3.328-3.328H43.747a3.328,3.328,0,0,1,3.328,3.328v25.365A3.329,3.329,0,0,1,43.747,196.815Z" transform="translate(0 -164.792)"/><g transform="translate(28.156 4.993)"><circle class="h" cx="4.054" cy="4.054" r="4.054"/><circle class="i" cx="4.054" cy="4.054" r="4.054" transform="translate(5.821)"/></g><g transform="translate(4.39 7.382)"><path class="j" d="M51.761,321.208H43.888a1.664,1.664,0,0,1,0-3.328h7.873a1.664,1.664,0,0,1,0,3.328Z" transform="translate(-42.222 -309.339)"/><path class="j" d="M58.794,239.1H43.888a1.664,1.664,0,1,1,0-3.328H58.794a1.664,1.664,0,1,1,0,3.328Z" transform="translate(-42.222 -235.768)"/><path class="j" d="M48.748,403.32H43.872a1.664,1.664,0,1,1,0-3.328h4.876a1.664,1.664,0,1,1,0,3.328Z" transform="translate(-42.208 -382.911)"/><path class="j" d="M145.2,403.32H140.32a1.664,1.664,0,1,1,0-3.328H145.2a1.664,1.664,0,1,1,0,3.328Z" transform="translate(-128.624 -382.911)"/><path class="j" d="M241.628,403.32h-4.876a1.664,1.664,0,1,1,0-3.328h4.876a1.664,1.664,0,0,1,0,3.328Z" transform="translate(-215.027 -382.911)"/><path class="j" d="M338.06,403.32h-4.876a1.664,1.664,0,1,1,0-3.328h4.876a1.664,1.664,0,0,1,0,3.328Z" transform="translate(-301.428 -382.911)"/></g></g></g><g transform="translate(40.838 26.004)"><g class="k" transform="matrix(1, 0, 0, 1, -44.08, -36.67)"><circle class="i" cx="10.962" cy="10.962" r="10.962" transform="translate(44.08 36.67)"/></g><g transform="translate(4.87 4.057)"><path class="g" d="M0,4.47c.017-.047.036-.113.059-.2a6.044,6.044,0,0,1,1.609-2.74A5.878,5.878,0,0,1,3.774.137L4.133,0l.243.122A4.069,4.069,0,0,0,7.859.107L8.065,0l.262.1a6.389,6.389,0,0,1,2.955,2.318,6.273,6.273,0,0,1,.9,2.025v.008a7.844,7.844,0,0,1-6.1,2.882A7.845,7.845,0,0,1,0,4.47Z" transform="translate(0 6.48)"/><ellipse class="g" cx="3.105" cy="3.073" rx="3.105" ry="3.073" transform="translate(2.997)"/></g></g></g></g></svg>