<svg xmlns="http://www.w3.org/2000/svg" xmlns:xlink="http://www.w3.org/1999/xlink" width="12" height="12" viewBox="0 0 12 12"><defs><style>.a{fill:none;}.b{clip-path:url(#a);}.c{fill:#323a45;}</style><clipPath id="a"><rect class="a" width="12" height="12"/></clipPath></defs><g class="b"><g transform="translate(2 8) rotate(-90)"><g transform="translate(0 0)"><path class="c" d="M1.022,8a1.023,1.023,0,0,1-.939-.6.969.969,0,0,1,.2-1.074L2.568,3.993.284,1.677A.971.971,0,0,1,.316.275,1.045,1.045,0,0,1,1.761.306l2.957,3a.971.971,0,0,1,0,1.368L1.763,7.692A1.037,1.037,0,0,1,1.022,8Z" transform="translate(0)"/></g></g></g></svg>