<svg id="Backup" xmlns="http://www.w3.org/2000/svg" width="30" height="30" viewBox="0 0 30 30">
  <path id="Path_107055" data-name="Path 107055" d="M120.857,258.922a.688.688,0,0,0-.7-.68h-2.43a.688.688,0,0,0-.7.68V261.3a.689.689,0,0,0,.7.681h2.43a.689.689,0,0,0,.7-.681v-2.376Z" transform="translate(-110.02 -242.372)" fill="#4b7efc"/>
  <path id="Path_107056" data-name="Path 107056" d="M217.492,258.922a.688.688,0,0,0-.7-.68h-2.43a.688.688,0,0,0-.7.68V261.3a.689.689,0,0,0,.7.681h2.43a.688.688,0,0,0,.7-.681Z" transform="translate(-200.581 -242.372)" fill="#4b7efc" opacity="0.7"/>
  <path id="Path_107057" data-name="Path 107057" d="M314.12,258.922a.688.688,0,0,0-.7-.68h-2.43a.688.688,0,0,0-.7.68V261.3a.689.689,0,0,0,.7.681h2.43a.688.688,0,0,0,.7-.681Z" transform="translate(-291.136 -242.372)" fill="#4b7efc"/>
  <path id="Path_107058" data-name="Path 107058" d="M120.857,355.556a.688.688,0,0,0-.7-.681h-2.43a.688.688,0,0,0-.7.681v2.375a.688.688,0,0,0,.7.681h2.43a.688.688,0,0,0,.7-.681v-2.375Z" transform="translate(-110.02 -333.066)" fill="#4b7efc" opacity="0.7"/>
  <path id="Path_107059" data-name="Path 107059" d="M217.492,355.556a.688.688,0,0,0-.7-.681h-2.43a.688.688,0,0,0-.7.681v2.375a.688.688,0,0,0,.7.681h2.43a.688.688,0,0,0,.7-.681Z" transform="translate(-200.581 -333.066)" fill="#4b7efc"/>
  <path id="Path_107060" data-name="Path 107060" d="M314.12,355.556a.688.688,0,0,0-.7-.681h-2.43a.688.688,0,0,0-.7.681v2.375a.688.688,0,0,0,.7.681h2.43a.688.688,0,0,0,.7-.681v-2.375Z" transform="translate(-291.136 -333.066)" fill="#4b7efc" opacity="0.7"/>
  <path id="Path_107061" data-name="Path 107061" d="M32.741,54.155v3.629A3,3,0,0,1,29.7,60.746H27.786a3.014,3.014,0,0,1-3.056-2.962V54.142H16.092v3.642a3.014,3.014,0,0,1-3.056,2.962H11.119a3,3,0,0,1-3.038-2.962V54.155a2.73,2.73,0,0,0-2.67,2.687V78.11a2.733,2.733,0,0,0,2.75,2.7h24.5a2.736,2.736,0,0,0,2.75-2.7V56.842A2.73,2.73,0,0,0,32.741,54.155Zm-.89,22.63a1.176,1.176,0,0,1-1.189,1.163H10.108a1.176,1.176,0,0,1-1.189-1.163V65.8a1.176,1.176,0,0,1,1.189-1.163H30.662A1.176,1.176,0,0,1,31.85,65.8V76.785Z" transform="translate(-5.411 -50.815)" fill="#4b7efc"/>
  <path id="Path_107062" data-name="Path 107062" d="M80.592,7.986h1.9A1.03,1.03,0,0,0,83.53,6.968V1.019A1.03,1.03,0,0,0,82.488,0h-1.9A1.03,1.03,0,0,0,79.55,1.019V6.968A1.03,1.03,0,0,0,80.592,7.986Z" transform="translate(-74.89)" fill="#4b7efc"/>
  <path id="Path_107063" data-name="Path 107063" d="M345.5,7.986h1.9a1.03,1.03,0,0,0,1.042-1.018V1.019A1.03,1.03,0,0,0,347.4,0h-1.9a1.03,1.03,0,0,0-1.042,1.019V6.968A1.03,1.03,0,0,0,345.5,7.986Z" transform="translate(-323.149)" fill="#4b7efc"/>
</svg>
