<svg xmlns="http://www.w3.org/2000/svg" xmlns:xlink="http://www.w3.org/1999/xlink" width="70" height="70" viewBox="0 0 70 70"><defs><style>.a{fill:red;}.b{clip-path:url(#a);}.c,.h,.l{fill:none;}.c{stroke:#e4e4e4;stroke-dasharray:4;}.c,.h{stroke-linecap:round;}.d{fill:#fff;}.e{fill:#e4e4e4;}.e,.h,.i{stroke:#fff;}.f{fill:url(#d);}.g{fill:url(#e);}.h{stroke-dasharray:4.08;}.i{stroke-width:0.5px;fill:url(#i);}.j{fill:#b6cef0;}.k,.m{stroke:none;}.m{fill:#fff;}.n{filter:url(#q);}.o{filter:url(#o);}.p{filter:url(#m);}.q{filter:url(#j);}.r{filter:url(#g);}.s{filter:url(#b);}</style><clipPath id="a"><rect class="a" width="70" height="70" transform="translate(1309 476)"/></clipPath><filter id="b" x="30.613" y="0.5" width="9" height="9" filterUnits="userSpaceOnUse"><feOffset dy="1" input="SourceAlpha"/><feGaussianBlur stdDeviation="0.5" result="c"/><feFlood flood-opacity="0"/><feComposite operator="in" in2="c"/><feComposite in="SourceGraphic"/></filter><linearGradient id="d" x1="0.5" x2="0.5" y2="1" gradientUnits="objectBoundingBox"><stop offset="0" stop-color="#4086e5"/><stop offset="1" stop-color="#2160b5"/></linearGradient><linearGradient id="e" x1="0.5" y1="-0.575" x2="0.5" y2="1" gradientUnits="objectBoundingBox"><stop offset="0" stop-color="#f8f8f8"/><stop offset="1" stop-color="#dcdcdc"/></linearGradient><filter id="g" x="-0.5" y="21.928" width="71" height="10" filterUnits="userSpaceOnUse"><feOffset dy="1" input="SourceAlpha"/><feGaussianBlur stdDeviation="1.5" result="h"/><feFlood flood-opacity="0.6"/><feComposite operator="in" in2="h"/><feComposite in="SourceGraphic"/></filter><linearGradient id="i" x1="0.831" x2="0.772" xlink:href="#d"/><filter id="j" x="61.5" y="22.954" width="8" height="8" filterUnits="userSpaceOnUse"><feOffset dy="1" input="SourceAlpha"/><feGaussianBlur stdDeviation="0.5" result="k"/><feFlood flood-opacity="0.2"/><feComposite operator="in" in2="k"/><feComposite in="SourceGraphic"/></filter><filter id="m" x="0.5" y="22.954" width="8" height="8" filterUnits="userSpaceOnUse"><feOffset dy="1" input="SourceAlpha"/><feGaussianBlur stdDeviation="0.5" result="n"/><feFlood flood-opacity="0.2"/><feComposite operator="in" in2="n"/><feComposite in="SourceGraphic"/></filter><filter id="o" x="29.689" y="21.5" width="10.85" height="10.85" filterUnits="userSpaceOnUse"><feOffset dy="1" input="SourceAlpha"/><feGaussianBlur stdDeviation="0.5" result="p"/><feFlood flood-opacity="0.2"/><feComposite operator="in" in2="p"/><feComposite in="SourceGraphic"/></filter><filter id="q" x="30.6" y="63.456" width="9" height="9" filterUnits="userSpaceOnUse"><feOffset dy="1" input="SourceAlpha"/><feGaussianBlur stdDeviation="0.5" result="r"/><feFlood flood-opacity="0"/><feComposite operator="in" in2="r"/><feComposite in="SourceGraphic"/></filter></defs><g class="b" transform="translate(-1309 -476)"><g transform="translate(22009.26 -581)"><g transform="translate(-20665.164 1063.058)"><line class="c" y2="6.199"/></g><circle class="d" cx="2" cy="2" r="2" transform="translate(-20667.146 1080.954)"/><g class="s" transform="matrix(1, 0, 0, 1, -20700.26, 1057)"><g class="e" transform="translate(33.11 2)"><circle class="k" cx="2" cy="2" r="2"/><circle class="l" cx="2" cy="2" r="2.5"/></g></g><g transform="translate(-20688.881 1069.715)"><path class="f" d="M50.156,18.67,28.6,29.579a2.025,2.025,0,0,1-1.832,0L5.21,18.67a2.127,2.127,0,0,1,0-3.776L26.768,3.983a2.024,2.024,0,0,1,1.832,0L50.157,14.894a2.127,2.127,0,0,1,0,3.776Z" transform="translate(-4.062 -3.764)"/><path class="g" d="M50.156,15.77l-5.218,2.641-1.229.622L28.6,26.68a2.022,2.022,0,0,1-1.832,0L5.21,15.77a2.127,2.127,0,0,1-.933-2.823,2.044,2.044,0,0,1,2.765-.952L27.684,22.441,48.325,11.994a2.044,2.044,0,0,1,2.765.952A2.128,2.128,0,0,1,50.156,15.77Z" transform="translate(-4.062 8.799)"/><path class="f" d="M50.156,19.094,28.6,30a2.022,2.022,0,0,1-1.832,0L5.21,19.095a2.128,2.128,0,0,1-.933-2.824,2.045,2.045,0,0,1,2.765-.952L27.684,25.765,48.325,15.319a2.042,2.042,0,0,1,2.765.952A2.128,2.128,0,0,1,50.156,19.094Z" transform="translate(-4.062 15.265)"/></g><g class="r" transform="matrix(1, 0, 0, 1, -20700.26, 1057)"><path class="h" d="M0,0V61" transform="translate(65.5 25.93) rotate(90)"/></g><g class="q" transform="matrix(1, 0, 0, 1, -20700.26, 1057)"><g class="i" transform="translate(63.5 23.95)"><circle class="k" cx="2" cy="2" r="2"/><circle class="l" cx="2" cy="2" r="2.25"/></g></g><g class="p" transform="matrix(1, 0, 0, 1, -20700.26, 1057)"><g class="i" transform="translate(2.5 23.95)"><circle class="k" cx="2" cy="2" r="2"/><circle class="l" cx="2" cy="2" r="2.25"/></g></g><g class="o" transform="matrix(1, 0, 0, 1, -20700.26, 1057)"><g class="j" transform="translate(32.19 23)"><path class="k" d="M 2.925048828125 6.350098609924316 C 1.036468863487244 6.350098609924316 -0.5000011920928955 4.813628673553467 -0.5000011920928955 2.925048828125 C -0.5000011920928955 1.036468863487244 1.036468863487244 -0.5000011920928955 2.925048828125 -0.5000011920928955 C 4.813628673553467 -0.5000011920928955 6.350098609924316 1.036468863487244 6.350098609924316 2.925048828125 C 6.350098609924316 4.813628673553467 4.813628673553467 6.350098609924316 2.925048828125 6.350098609924316 Z"/><path class="m" d="M 2.925048828125 -9.5367431640625e-07 C 1.30958890914917 -9.5367431640625e-07 -9.5367431640625e-07 1.30958890914917 -9.5367431640625e-07 2.925048828125 C -9.5367431640625e-07 4.54050874710083 1.30958890914917 5.850098609924316 2.925048828125 5.850098609924316 C 4.54050874710083 5.850098609924316 5.850098609924316 4.54050874710083 5.850098609924316 2.925048828125 C 5.850098609924316 1.30958890914917 4.54050874710083 -9.5367431640625e-07 2.925048828125 -9.5367431640625e-07 M 2.925048828125 -1.000000953674316 C 5.089328765869141 -1.000000953674316 6.850098609924316 0.7607688903808594 6.850098609924316 2.925048828125 C 6.850098609924316 5.089328765869141 5.089328765869141 6.850098609924316 2.925048828125 6.850098609924316 C 0.7607688903808594 6.850098609924316 -1.000000953674316 5.089328765869141 -1.000000953674316 2.925048828125 C -1.000000953674316 0.7607688903808594 0.7607688903808594 -1.000000953674316 2.925048828125 -1.000000953674316 Z"/></g></g><g transform="translate(-20663.16 1125.956) rotate(180)"><g transform="translate(2.018 4.058)"><line class="c" y2="6.199" transform="translate(0)"/></g><g class="n" transform="matrix(-1, 0, 0, -1, 37.1, 68.96)"><g class="e" transform="translate(37.1 68.96) rotate(180)"><circle class="k" cx="2" cy="2" r="2"/><circle class="l" cx="2" cy="2" r="2.5"/></g></g></g></g></g></svg>