<svg xmlns="http://www.w3.org/2000/svg" width="12" height="12.013" viewBox="0 0 12 12.013"><defs><style>.a{fill:none;}.b{fill:#c0c2c6;}</style></defs><g transform="translate(-4557 -4742)"><rect class="a" width="12" height="12" transform="translate(4557 4742)"/><path class="b" d="M11.659,10.338,7.51,6.031l4.284-4.307a1.052,1.052,0,0,0-.23-1.346.991.991,0,0,0-1.376,0L6.037,4.55,1.754.378a1.17,1.17,0,0,0-1.542,0,1.163,1.163,0,0,0,0,1.411l4.22,4.242L.281,10.2a1.229,1.229,0,0,0-.134,1.481,1.212,1.212,0,0,0,.937.4,1.02,1.02,0,0,0,.669-.269L6.037,7.511l4.15,4.172a1.046,1.046,0,0,0,1.472,0A.9.9,0,0,0,11.659,10.338Z" transform="translate(4557.039 4741.926)"/></g></svg>