<svg xmlns="http://www.w3.org/2000/svg" width="200.001" height="200" viewBox="0 0 200.001 200"><defs><style>.a{fill:none;}.b{fill:#4b7efc;}</style></defs><g transform="translate(4783 -5937)"><rect class="a" width="200" height="200" transform="translate(-4783 5937)"/><path class="b" d="M213.189,165.988l-14.113-1.175a90.8,90.8,0,0,1-48.238-18.825,158.884,158.884,0,0,1-32.938,4.7c-55.3,0-100-34.113-100-75.3S62.589.1,117.889.1s100,34.112,100,75.3a65.425,65.425,0,0,1-24.7,49.412,46.425,46.425,0,0,0,11.763,29.413Zm-60-32.937,2.35,2.35A79.737,79.737,0,0,0,187.3,150.7a49.188,49.188,0,0,1-5.887-28.238V120.1l2.35-1.175a53.025,53.025,0,0,0,22.35-42.35c0-35.3-40-63.525-88.237-63.525S29.638,41.288,29.638,76.575,69.651,140.1,117.889,140.1a106.25,106.25,0,0,0,32.938-4.7Z" transform="translate(-4800.887 5953.775)"/></g></svg>