<svg xmlns="http://www.w3.org/2000/svg" width="12" height="13" viewBox="0 0 12 13">
  <path id="Path_160747" data-name="Path 160747" d="M-7476.286,21A1.725,1.725,0,0,1-7478,19.267V12.335a1.725,1.725,0,0,1,1.716-1.734h6a1.725,1.725,0,0,1,1.714,1.734v6.932A1.725,1.725,0,0,1-7470.288,21Zm8.955-2.633v0a1.732,1.732,0,0,0,.043-.389V11.034A1.726,1.726,0,0,0-7469,9.3h-6a1.7,1.7,0,0,0-.384.044A1.711,1.711,0,0,1-7473.715,8h6A1.727,1.727,0,0,1-7466,9.734v6.942a1.724,1.724,0,0,1-1.328,1.691Z" transform="translate(7478.002 -8.001)" fill="rgba(255,255,255,0.8)"/>
</svg>
