<svg xmlns="http://www.w3.org/2000/svg" xmlns:xlink="http://www.w3.org/1999/xlink" width="346" height="80" viewBox="0 0 346 80">
  <defs>
    <clipPath id="clip-path">
      <path id="Path_160746" data-name="Path 160746" d="M0,0H346V80H0Z" transform="translate(1553.258)" fill="#fff"/>
    </clipPath>
    <linearGradient id="linear-gradient" x1="1.26" y1="0.631" x2="-0.204" y2="0.24" gradientUnits="objectBoundingBox">
      <stop offset="0" stop-color="#fff" stop-opacity="0"/>
      <stop offset="0.613" stop-color="#fff" stop-opacity="0.271"/>
      <stop offset="1" stop-color="#fff"/>
    </linearGradient>
  </defs>
  <g id="Group_86580" data-name="Group 86580" transform="translate(-1553.258)">
    <g id="Mask_Group_1189" data-name="Mask Group 1189" clip-path="url(#clip-path)">
      <path id="Union_425" data-name="Union 425" d="M351.076,3.827a3.4,3.4,0,0,0,3.422,3.63,3.873,3.873,0,0,0,3.617-3.825A3.4,3.4,0,0,0,354.694,0,3.873,3.873,0,0,0,351.076,3.827Zm-24.637.68a3.4,3.4,0,0,0,3.421,3.63,3.873,3.873,0,0,0,3.618-3.825A3.4,3.4,0,0,0,330.056.681,3.873,3.873,0,0,0,326.439,4.507Zm-24.637.68a3.4,3.4,0,0,0,3.422,3.63,3.873,3.873,0,0,0,3.618-3.825,3.4,3.4,0,0,0-3.422-3.631A3.873,3.873,0,0,0,301.8,5.187Zm-24.637.68a3.4,3.4,0,0,0,3.422,3.63A3.873,3.873,0,0,0,284.2,5.673a3.4,3.4,0,0,0-3.422-3.631A3.873,3.873,0,0,0,277.165,5.867Zm-24.637.68a3.4,3.4,0,0,0,3.422,3.63,3.873,3.873,0,0,0,3.618-3.825,3.4,3.4,0,0,0-3.422-3.631A3.873,3.873,0,0,0,252.528,6.547Zm-24.637.68a3.4,3.4,0,0,0,3.422,3.63,3.873,3.873,0,0,0,3.618-3.825A3.4,3.4,0,0,0,231.508,3.4,3.873,3.873,0,0,0,227.891,7.227Zm-24.637.68a3.4,3.4,0,0,0,3.421,3.63,3.873,3.873,0,0,0,3.617-3.825,3.4,3.4,0,0,0-3.422-3.631A3.873,3.873,0,0,0,203.254,7.907Zm-24.638.68a3.4,3.4,0,0,0,3.422,3.63,3.872,3.872,0,0,0,3.617-3.825,3.4,3.4,0,0,0-3.421-3.631A3.873,3.873,0,0,0,178.616,8.588Zm-24.637.68A3.4,3.4,0,0,0,157.4,12.9a3.873,3.873,0,0,0,3.617-3.825A3.4,3.4,0,0,0,157.6,5.442,3.873,3.873,0,0,0,153.979,9.268Zm-24.637.68a3.4,3.4,0,0,0,3.422,3.63,3.873,3.873,0,0,0,3.617-3.825,3.4,3.4,0,0,0-3.422-3.631A3.873,3.873,0,0,0,129.342,9.948Zm-24.637.68a3.4,3.4,0,0,0,3.422,3.63,3.873,3.873,0,0,0,3.617-3.825A3.4,3.4,0,0,0,108.323,6.8,3.873,3.873,0,0,0,104.7,10.628Zm-24.637.68a3.4,3.4,0,0,0,3.422,3.63,3.873,3.873,0,0,0,3.618-3.825,3.4,3.4,0,0,0-3.422-3.631A3.873,3.873,0,0,0,80.068,11.308Zm-24.637.68a3.4,3.4,0,0,0,3.421,3.63,3.873,3.873,0,0,0,3.618-3.825,3.4,3.4,0,0,0-3.422-3.631A3.873,3.873,0,0,0,55.431,11.988Zm-24.637.68a3.4,3.4,0,0,0,3.421,3.63,3.873,3.873,0,0,0,3.618-3.825,3.4,3.4,0,0,0-3.422-3.631A3.873,3.873,0,0,0,30.794,12.668Zm-24.637.68a3.4,3.4,0,0,0,3.422,3.63A3.873,3.873,0,0,0,13.2,13.154,3.4,3.4,0,0,0,9.774,9.523,3.873,3.873,0,0,0,6.157,13.348Zm332.162,7.595a3.4,3.4,0,0,0,3.421,3.63,3.872,3.872,0,0,0,3.617-3.825,3.4,3.4,0,0,0-3.421-3.631A3.873,3.873,0,0,0,338.318,20.943Zm-24.638.68a3.4,3.4,0,0,0,3.422,3.63,3.872,3.872,0,0,0,3.617-3.825A3.4,3.4,0,0,0,317.3,17.8,3.873,3.873,0,0,0,313.68,21.623Zm-24.637.68a3.4,3.4,0,0,0,3.422,3.63,3.873,3.873,0,0,0,3.617-3.825,3.4,3.4,0,0,0-3.422-3.631A3.873,3.873,0,0,0,289.043,22.3Zm-24.637.68a3.4,3.4,0,0,0,3.422,3.63,3.873,3.873,0,0,0,3.617-3.825,3.4,3.4,0,0,0-3.422-3.631A3.873,3.873,0,0,0,264.406,22.983Zm-24.637.68a3.4,3.4,0,0,0,3.423,3.63,3.873,3.873,0,0,0,3.617-3.825,3.4,3.4,0,0,0-3.422-3.631A3.873,3.873,0,0,0,239.769,23.663Zm-24.637.68a3.4,3.4,0,0,0,3.422,3.63,3.873,3.873,0,0,0,3.617-3.825,3.4,3.4,0,0,0-3.421-3.631A3.873,3.873,0,0,0,215.132,24.343Zm-24.637.68a3.4,3.4,0,0,0,3.422,3.63,3.873,3.873,0,0,0,3.618-3.825,3.4,3.4,0,0,0-3.422-3.631A3.873,3.873,0,0,0,190.5,25.024Zm-24.637.68a3.4,3.4,0,0,0,3.421,3.63,3.873,3.873,0,0,0,3.618-3.825,3.4,3.4,0,0,0-3.422-3.631A3.873,3.873,0,0,0,165.858,25.7Zm-24.637.68a3.4,3.4,0,0,0,3.422,3.63,3.873,3.873,0,0,0,3.618-3.825,3.4,3.4,0,0,0-3.422-3.631A3.873,3.873,0,0,0,141.221,26.384Zm-24.637.68a3.4,3.4,0,0,0,3.422,3.63,3.873,3.873,0,0,0,3.618-3.825,3.4,3.4,0,0,0-3.422-3.631A3.873,3.873,0,0,0,116.584,27.064Zm-24.637.68a3.4,3.4,0,0,0,3.421,3.63,3.873,3.873,0,0,0,3.617-3.825,3.4,3.4,0,0,0-3.422-3.631A3.873,3.873,0,0,0,91.947,27.744Zm-24.638.68a3.4,3.4,0,0,0,3.422,3.63,3.872,3.872,0,0,0,3.617-3.825A3.4,3.4,0,0,0,70.927,24.6,3.873,3.873,0,0,0,67.309,28.424Zm-24.637.68a3.4,3.4,0,0,0,3.422,3.63,3.873,3.873,0,0,0,3.617-3.825,3.4,3.4,0,0,0-3.421-3.631A3.873,3.873,0,0,0,42.672,29.1Zm-24.637.68a3.4,3.4,0,0,0,3.422,3.63,3.873,3.873,0,0,0,3.617-3.825,3.4,3.4,0,0,0-3.422-3.631A3.873,3.873,0,0,0,18.035,29.784ZM350.2,37.379a3.4,3.4,0,0,0,3.422,3.63,3.873,3.873,0,0,0,3.617-3.825,3.4,3.4,0,0,0-3.422-3.631A3.873,3.873,0,0,0,350.2,37.379Zm-24.637.68a3.4,3.4,0,0,0,3.421,3.63,3.873,3.873,0,0,0,3.618-3.825,3.4,3.4,0,0,0-3.422-3.631A3.873,3.873,0,0,0,325.56,38.059Zm-24.637.68a3.4,3.4,0,0,0,3.422,3.63,3.873,3.873,0,0,0,3.618-3.825,3.4,3.4,0,0,0-3.422-3.631A3.873,3.873,0,0,0,300.923,38.739Zm-24.637.68a3.4,3.4,0,0,0,3.422,3.63,3.873,3.873,0,0,0,3.618-3.825,3.4,3.4,0,0,0-3.422-3.631A3.873,3.873,0,0,0,276.285,39.419Zm-24.637.68a3.4,3.4,0,0,0,3.422,3.63,3.873,3.873,0,0,0,3.618-3.825,3.4,3.4,0,0,0-3.422-3.631A3.873,3.873,0,0,0,251.648,40.1Zm-24.637.68a3.4,3.4,0,0,0,3.422,3.63,3.873,3.873,0,0,0,3.618-3.825,3.4,3.4,0,0,0-3.422-3.631A3.873,3.873,0,0,0,227.011,40.779Zm-24.637.68a3.4,3.4,0,0,0,3.421,3.63,3.873,3.873,0,0,0,3.617-3.825,3.4,3.4,0,0,0-3.422-3.631A3.873,3.873,0,0,0,202.374,41.46Zm-24.638.68a3.4,3.4,0,0,0,3.422,3.63,3.872,3.872,0,0,0,3.617-3.825,3.4,3.4,0,0,0-3.421-3.631A3.873,3.873,0,0,0,177.737,42.14Zm-24.637.68a3.4,3.4,0,0,0,3.422,3.63,3.873,3.873,0,0,0,3.617-3.825,3.4,3.4,0,0,0-3.421-3.631A3.873,3.873,0,0,0,153.1,42.82Zm-24.637.68a3.4,3.4,0,0,0,3.422,3.63,3.873,3.873,0,0,0,3.617-3.825,3.4,3.4,0,0,0-3.422-3.631A3.873,3.873,0,0,0,128.462,43.5Zm-24.637.68a3.4,3.4,0,0,0,3.422,3.63,3.873,3.873,0,0,0,3.617-3.825,3.4,3.4,0,0,0-3.421-3.631A3.873,3.873,0,0,0,103.826,44.18Zm-24.637.68a3.4,3.4,0,0,0,3.422,3.63,3.873,3.873,0,0,0,3.618-3.825,3.4,3.4,0,0,0-3.422-3.631A3.873,3.873,0,0,0,79.188,44.86Zm-24.637.68a3.4,3.4,0,0,0,3.421,3.63,3.873,3.873,0,0,0,3.618-3.825,3.4,3.4,0,0,0-3.422-3.631A3.873,3.873,0,0,0,54.552,45.54Zm-24.637.68a3.4,3.4,0,0,0,3.421,3.63,3.873,3.873,0,0,0,3.618-3.825,3.4,3.4,0,0,0-3.422-3.631A3.873,3.873,0,0,0,29.914,46.22ZM5.277,46.9A3.4,3.4,0,0,0,8.7,50.531a3.873,3.873,0,0,0,3.618-3.825,3.4,3.4,0,0,0-3.422-3.631A3.873,3.873,0,0,0,5.277,46.9ZM337.439,54.5a3.4,3.4,0,0,0,3.421,3.63,3.872,3.872,0,0,0,3.617-3.825,3.4,3.4,0,0,0-3.422-3.631A3.873,3.873,0,0,0,337.439,54.5Zm-24.638.68a3.4,3.4,0,0,0,3.422,3.63,3.872,3.872,0,0,0,3.617-3.825,3.4,3.4,0,0,0-3.422-3.631A3.873,3.873,0,0,0,312.8,55.175Zm-24.637.68a3.4,3.4,0,0,0,3.422,3.63,3.873,3.873,0,0,0,3.617-3.825,3.4,3.4,0,0,0-3.422-3.631A3.873,3.873,0,0,0,288.164,55.855Zm-24.637.68a3.4,3.4,0,0,0,3.422,3.63,3.873,3.873,0,0,0,3.617-3.825,3.4,3.4,0,0,0-3.422-3.631A3.873,3.873,0,0,0,263.527,56.535Zm-24.637.68a3.4,3.4,0,0,0,3.422,3.63,3.873,3.873,0,0,0,3.617-3.825,3.4,3.4,0,0,0-3.422-3.631A3.873,3.873,0,0,0,238.89,57.215Zm-24.637.68a3.4,3.4,0,0,0,3.422,3.63,3.873,3.873,0,0,0,3.617-3.825,3.4,3.4,0,0,0-3.421-3.631A3.873,3.873,0,0,0,214.253,57.9Zm-24.637.68a3.4,3.4,0,0,0,3.422,3.63,3.873,3.873,0,0,0,3.618-3.825,3.4,3.4,0,0,0-3.422-3.631A3.873,3.873,0,0,0,189.616,58.576Zm-24.637.68a3.4,3.4,0,0,0,3.421,3.63,3.873,3.873,0,0,0,3.618-3.825A3.4,3.4,0,0,0,168.6,55.43,3.873,3.873,0,0,0,164.979,59.256Zm-24.637.68a3.4,3.4,0,0,0,3.421,3.63,3.873,3.873,0,0,0,3.618-3.825,3.4,3.4,0,0,0-3.422-3.631A3.873,3.873,0,0,0,140.342,59.936Zm-24.637.68a3.4,3.4,0,0,0,3.422,3.63,3.873,3.873,0,0,0,3.618-3.825,3.4,3.4,0,0,0-3.422-3.631A3.873,3.873,0,0,0,115.7,60.616Zm-24.637.68a3.4,3.4,0,0,0,3.421,3.63A3.873,3.873,0,0,0,98.106,61.1a3.4,3.4,0,0,0-3.422-3.631A3.873,3.873,0,0,0,91.068,61.3Zm-24.638.68a3.4,3.4,0,0,0,3.422,3.63,3.872,3.872,0,0,0,3.617-3.825,3.4,3.4,0,0,0-3.421-3.631A3.873,3.873,0,0,0,66.43,61.976Zm-24.637.68a3.4,3.4,0,0,0,3.422,3.63,3.873,3.873,0,0,0,3.617-3.825,3.4,3.4,0,0,0-3.421-3.631A3.873,3.873,0,0,0,41.793,62.656Zm-24.637.68a3.4,3.4,0,0,0,3.422,3.63A3.873,3.873,0,0,0,24.2,63.142a3.4,3.4,0,0,0-3.422-3.631A3.873,3.873,0,0,0,17.156,63.336Zm332.162,7.595a3.4,3.4,0,0,0,3.422,3.63,3.873,3.873,0,0,0,3.617-3.825,3.4,3.4,0,0,0-3.422-3.631A3.873,3.873,0,0,0,349.317,70.931Zm-24.637.68a3.4,3.4,0,0,0,3.421,3.631,3.873,3.873,0,0,0,3.618-3.825,3.4,3.4,0,0,0-3.422-3.631A3.873,3.873,0,0,0,324.68,71.611Zm-24.637.68a3.4,3.4,0,0,0,3.422,3.631,3.873,3.873,0,0,0,3.618-3.825,3.4,3.4,0,0,0-3.422-3.631A3.873,3.873,0,0,0,300.043,72.291Zm-24.637.68a3.4,3.4,0,0,0,3.422,3.631,3.873,3.873,0,0,0,3.618-3.825,3.4,3.4,0,0,0-3.422-3.631A3.873,3.873,0,0,0,275.406,72.971Zm-24.637.68a3.4,3.4,0,0,0,3.422,3.631,3.873,3.873,0,0,0,3.618-3.825,3.4,3.4,0,0,0-3.422-3.631A3.873,3.873,0,0,0,250.769,73.651Zm-24.637.68a3.4,3.4,0,0,0,3.422,3.631,3.873,3.873,0,0,0,3.618-3.825,3.4,3.4,0,0,0-3.422-3.631A3.873,3.873,0,0,0,226.132,74.332Zm-24.637.68a3.4,3.4,0,0,0,3.421,3.631,3.873,3.873,0,0,0,3.617-3.825,3.4,3.4,0,0,0-3.422-3.631A3.873,3.873,0,0,0,201.5,75.012Zm-24.638.68a3.4,3.4,0,0,0,3.422,3.631A3.872,3.872,0,0,0,183.9,75.5a3.4,3.4,0,0,0-3.421-3.631A3.873,3.873,0,0,0,176.857,75.692Zm-24.637.68A3.4,3.4,0,0,0,155.643,80a3.873,3.873,0,0,0,3.617-3.825,3.4,3.4,0,0,0-3.421-3.631A3.873,3.873,0,0,0,152.22,76.372Zm-24.637.68a3.4,3.4,0,0,0,3.422,3.631,3.873,3.873,0,0,0,3.617-3.825,3.4,3.4,0,0,0-3.422-3.631A3.873,3.873,0,0,0,127.583,77.052Zm-24.637.68a3.4,3.4,0,0,0,3.422,3.63,3.873,3.873,0,0,0,3.617-3.825,3.4,3.4,0,0,0-3.421-3.631A3.873,3.873,0,0,0,102.946,77.732Zm-24.637.68a3.4,3.4,0,0,0,3.422,3.631,3.873,3.873,0,0,0,3.618-3.825,3.4,3.4,0,0,0-3.422-3.631A3.873,3.873,0,0,0,78.309,78.412Zm-24.637.68a3.4,3.4,0,0,0,3.421,3.631A3.873,3.873,0,0,0,60.711,78.9a3.4,3.4,0,0,0-3.422-3.631A3.873,3.873,0,0,0,53.672,79.092Zm-24.637.68A3.4,3.4,0,0,0,32.457,83.4a3.873,3.873,0,0,0,3.618-3.825,3.4,3.4,0,0,0-3.422-3.631A3.873,3.873,0,0,0,29.035,79.772ZM4.4,80.452A3.4,3.4,0,0,0,7.82,84.083a3.873,3.873,0,0,0,3.618-3.825,3.4,3.4,0,0,0-3.422-3.631A3.873,3.873,0,0,0,4.4,80.452ZM336.56,88.047a3.4,3.4,0,0,0,3.422,3.631,3.872,3.872,0,0,0,3.617-3.825,3.4,3.4,0,0,0-3.422-3.631A3.873,3.873,0,0,0,336.56,88.047Zm-24.638.68a3.4,3.4,0,0,0,3.422,3.631,3.873,3.873,0,0,0,3.617-3.825,3.4,3.4,0,0,0-3.422-3.631A3.873,3.873,0,0,0,311.922,88.727Zm-24.637.68a3.4,3.4,0,0,0,3.422,3.631,3.873,3.873,0,0,0,3.617-3.825,3.4,3.4,0,0,0-3.422-3.631A3.873,3.873,0,0,0,287.285,89.407Zm-24.637.68a3.4,3.4,0,0,0,3.422,3.631,3.873,3.873,0,0,0,3.617-3.825,3.4,3.4,0,0,0-3.422-3.631A3.873,3.873,0,0,0,262.648,90.087Zm-24.637.68a3.4,3.4,0,0,0,3.422,3.631,3.873,3.873,0,0,0,3.617-3.825,3.4,3.4,0,0,0-3.422-3.631A3.873,3.873,0,0,0,238.01,90.768Zm-24.637.68a3.4,3.4,0,0,0,3.422,3.631,3.873,3.873,0,0,0,3.617-3.825,3.4,3.4,0,0,0-3.421-3.631A3.873,3.873,0,0,0,213.374,91.448Zm-24.637.68a3.4,3.4,0,0,0,3.422,3.631,3.873,3.873,0,0,0,3.618-3.825,3.4,3.4,0,0,0-3.422-3.631A3.873,3.873,0,0,0,188.736,92.128Zm-24.637.68a3.4,3.4,0,0,0,3.421,3.631,3.873,3.873,0,0,0,3.618-3.825,3.4,3.4,0,0,0-3.422-3.631A3.873,3.873,0,0,0,164.1,92.808Zm-24.637.68a3.4,3.4,0,0,0,3.422,3.631,3.873,3.873,0,0,0,3.618-3.825,3.4,3.4,0,0,0-3.422-3.631A3.873,3.873,0,0,0,139.462,93.488Zm-24.637.68a3.4,3.4,0,0,0,3.422,3.631,3.873,3.873,0,0,0,3.618-3.825,3.4,3.4,0,0,0-3.422-3.631A3.873,3.873,0,0,0,114.825,94.168Zm-24.637.68a3.4,3.4,0,0,0,3.421,3.631,3.873,3.873,0,0,0,3.617-3.825,3.4,3.4,0,0,0-3.422-3.631A3.873,3.873,0,0,0,90.188,94.848Zm-24.638.68a3.4,3.4,0,0,0,3.422,3.631,3.872,3.872,0,0,0,3.617-3.825A3.4,3.4,0,0,0,69.168,91.7,3.873,3.873,0,0,0,65.551,95.528Zm-24.637.68a3.4,3.4,0,0,0,3.422,3.631,3.873,3.873,0,0,0,3.617-3.825,3.4,3.4,0,0,0-3.421-3.631A3.873,3.873,0,0,0,40.914,96.208Zm-24.637.68a3.4,3.4,0,0,0,3.422,3.631,3.873,3.873,0,0,0,3.617-3.825,3.4,3.4,0,0,0-3.422-3.631A3.873,3.873,0,0,0,16.276,96.888Zm332.162,7.595a3.4,3.4,0,0,0,3.422,3.631,3.873,3.873,0,0,0,3.617-3.825,3.4,3.4,0,0,0-3.422-3.631A3.873,3.873,0,0,0,348.438,104.483Zm-24.637.68a3.4,3.4,0,0,0,3.422,3.631,3.873,3.873,0,0,0,3.618-3.825,3.4,3.4,0,0,0-3.422-3.631A3.873,3.873,0,0,0,323.8,105.163Zm-24.637.68a3.4,3.4,0,0,0,3.422,3.631,3.873,3.873,0,0,0,3.618-3.825,3.4,3.4,0,0,0-3.422-3.631A3.873,3.873,0,0,0,299.164,105.843Zm-24.637.68a3.4,3.4,0,0,0,3.422,3.631,3.873,3.873,0,0,0,3.618-3.825,3.4,3.4,0,0,0-3.422-3.631A3.873,3.873,0,0,0,274.527,106.523Zm-24.637.68a3.4,3.4,0,0,0,3.422,3.631,3.873,3.873,0,0,0,3.618-3.825,3.4,3.4,0,0,0-3.422-3.631A3.873,3.873,0,0,0,249.89,107.2Zm-24.637.68a3.4,3.4,0,0,0,3.422,3.63,3.873,3.873,0,0,0,3.618-3.825,3.4,3.4,0,0,0-3.422-3.631A3.873,3.873,0,0,0,225.253,107.884Zm-24.637.68a3.4,3.4,0,0,0,3.422,3.631,3.873,3.873,0,0,0,3.617-3.825,3.4,3.4,0,0,0-3.422-3.631A3.873,3.873,0,0,0,200.616,108.564Zm-24.638.68a3.4,3.4,0,0,0,3.422,3.63,3.872,3.872,0,0,0,3.617-3.825,3.4,3.4,0,0,0-3.421-3.631A3.873,3.873,0,0,0,175.978,109.244Zm-24.637.68a3.4,3.4,0,0,0,3.422,3.63,3.873,3.873,0,0,0,3.617-3.825,3.4,3.4,0,0,0-3.421-3.631A3.873,3.873,0,0,0,151.341,109.924Zm-24.637.68a3.4,3.4,0,0,0,3.422,3.63,3.873,3.873,0,0,0,3.617-3.825,3.4,3.4,0,0,0-3.422-3.631A3.873,3.873,0,0,0,126.7,110.6Zm-24.637.68a3.4,3.4,0,0,0,3.422,3.63,3.873,3.873,0,0,0,3.617-3.825,3.4,3.4,0,0,0-3.421-3.631A3.873,3.873,0,0,0,102.067,111.284Zm-24.637.68a3.4,3.4,0,0,0,3.422,3.631,3.873,3.873,0,0,0,3.618-3.825,3.4,3.4,0,0,0-3.422-3.631A3.873,3.873,0,0,0,77.43,111.964Zm-24.637.68a3.4,3.4,0,0,0,3.421,3.631,3.873,3.873,0,0,0,3.618-3.825,3.4,3.4,0,0,0-3.422-3.631A3.873,3.873,0,0,0,52.793,112.644Zm-24.637.68a3.4,3.4,0,0,0,3.421,3.631,3.873,3.873,0,0,0,3.618-3.825,3.4,3.4,0,0,0-3.422-3.631A3.873,3.873,0,0,0,28.156,113.324ZM3.519,114a3.4,3.4,0,0,0,3.422,3.63,3.873,3.873,0,0,0,3.618-3.825,3.4,3.4,0,0,0-3.422-3.631A3.873,3.873,0,0,0,3.519,114ZM335.68,121.6a3.4,3.4,0,0,0,3.422,3.63,3.872,3.872,0,0,0,3.617-3.825,3.4,3.4,0,0,0-3.421-3.631A3.873,3.873,0,0,0,335.68,121.6Zm-24.638.68a3.4,3.4,0,0,0,3.422,3.63,3.872,3.872,0,0,0,3.617-3.825,3.4,3.4,0,0,0-3.421-3.631A3.874,3.874,0,0,0,311.042,122.279Zm-24.637.68a3.4,3.4,0,0,0,3.422,3.63,3.873,3.873,0,0,0,3.617-3.825,3.4,3.4,0,0,0-3.422-3.631A3.873,3.873,0,0,0,286.405,122.96Zm-24.637.68a3.4,3.4,0,0,0,3.422,3.63,3.873,3.873,0,0,0,3.617-3.825,3.4,3.4,0,0,0-3.422-3.631A3.873,3.873,0,0,0,261.768,123.64Zm-24.637.68a3.4,3.4,0,0,0,3.422,3.631,3.873,3.873,0,0,0,3.617-3.825,3.4,3.4,0,0,0-3.422-3.631A3.873,3.873,0,0,0,237.131,124.32Zm-24.637.68a3.4,3.4,0,0,0,3.422,3.63,3.873,3.873,0,0,0,3.617-3.825,3.4,3.4,0,0,0-3.421-3.631A3.873,3.873,0,0,0,212.494,125Zm-24.637.68a3.4,3.4,0,0,0,3.422,3.631,3.873,3.873,0,0,0,3.618-3.825,3.4,3.4,0,0,0-3.422-3.631A3.873,3.873,0,0,0,187.857,125.68Zm-24.637.68a3.4,3.4,0,0,0,3.421,3.631,3.873,3.873,0,0,0,3.618-3.825,3.4,3.4,0,0,0-3.422-3.631A3.873,3.873,0,0,0,163.22,126.36Zm-24.637.68A3.4,3.4,0,0,0,142,130.671a3.873,3.873,0,0,0,3.618-3.825,3.4,3.4,0,0,0-3.422-3.631A3.873,3.873,0,0,0,138.583,127.04Zm-24.637.68a3.4,3.4,0,0,0,3.422,3.631,3.873,3.873,0,0,0,3.618-3.825,3.4,3.4,0,0,0-3.422-3.631A3.873,3.873,0,0,0,113.946,127.72Zm-24.637.68a3.4,3.4,0,0,0,3.421,3.631,3.873,3.873,0,0,0,3.617-3.825,3.4,3.4,0,0,0-3.422-3.631A3.873,3.873,0,0,0,89.309,128.4Zm-24.638.68a3.4,3.4,0,0,0,3.422,3.63,3.872,3.872,0,0,0,3.617-3.825,3.4,3.4,0,0,0-3.421-3.631A3.873,3.873,0,0,0,64.671,129.08Zm-24.637.68a3.4,3.4,0,0,0,3.422,3.63,3.873,3.873,0,0,0,3.617-3.825,3.4,3.4,0,0,0-3.421-3.631A3.873,3.873,0,0,0,40.034,129.76Zm-24.637.68a3.4,3.4,0,0,0,3.422,3.63,3.873,3.873,0,0,0,3.617-3.825,3.4,3.4,0,0,0-3.422-3.631A3.873,3.873,0,0,0,15.4,130.441Zm332.162,7.595a3.4,3.4,0,0,0,3.422,3.63,3.873,3.873,0,0,0,3.617-3.825,3.4,3.4,0,0,0-3.421-3.631A3.873,3.873,0,0,0,347.559,138.035Zm-24.637.68a3.4,3.4,0,0,0,3.422,3.631,3.873,3.873,0,0,0,3.618-3.825,3.4,3.4,0,0,0-3.422-3.631A3.873,3.873,0,0,0,322.922,138.715Zm-24.637.68a3.4,3.4,0,0,0,3.422,3.631,3.873,3.873,0,0,0,3.618-3.825,3.4,3.4,0,0,0-3.422-3.631A3.873,3.873,0,0,0,298.285,139.4Zm-24.637.68a3.4,3.4,0,0,0,3.422,3.631,3.873,3.873,0,0,0,3.618-3.825,3.4,3.4,0,0,0-3.422-3.631A3.873,3.873,0,0,0,273.648,140.076Zm-24.637.68a3.4,3.4,0,0,0,3.422,3.631,3.873,3.873,0,0,0,3.618-3.825,3.4,3.4,0,0,0-3.422-3.631A3.873,3.873,0,0,0,249.011,140.756Zm-24.637.68a3.4,3.4,0,0,0,3.422,3.631,3.873,3.873,0,0,0,3.618-3.825,3.4,3.4,0,0,0-3.422-3.631A3.873,3.873,0,0,0,224.373,141.436Zm-24.637.68a3.4,3.4,0,0,0,3.421,3.631,3.873,3.873,0,0,0,3.617-3.825,3.4,3.4,0,0,0-3.422-3.631A3.873,3.873,0,0,0,199.737,142.116Zm-24.638.68a3.4,3.4,0,0,0,3.422,3.631,3.872,3.872,0,0,0,3.617-3.825,3.4,3.4,0,0,0-3.421-3.631A3.873,3.873,0,0,0,175.1,142.8Zm-24.637.68a3.4,3.4,0,0,0,3.422,3.631,3.873,3.873,0,0,0,3.617-3.825,3.4,3.4,0,0,0-3.421-3.631A3.873,3.873,0,0,0,150.462,143.476Zm-24.637.68a3.4,3.4,0,0,0,3.422,3.631,3.873,3.873,0,0,0,3.617-3.825,3.4,3.4,0,0,0-3.422-3.631A3.873,3.873,0,0,0,125.824,144.156Zm-24.637.68a3.4,3.4,0,0,0,3.422,3.631,3.873,3.873,0,0,0,3.617-3.825,3.4,3.4,0,0,0-3.421-3.631A3.873,3.873,0,0,0,101.188,144.836Zm-24.637.68a3.4,3.4,0,0,0,3.422,3.631,3.873,3.873,0,0,0,3.618-3.825,3.4,3.4,0,0,0-3.422-3.631A3.873,3.873,0,0,0,76.55,145.516Zm-24.637.68a3.4,3.4,0,0,0,3.421,3.631A3.873,3.873,0,0,0,58.953,146a3.4,3.4,0,0,0-3.422-3.631A3.873,3.873,0,0,0,51.914,146.2Zm-24.637.68a3.4,3.4,0,0,0,3.421,3.631,3.873,3.873,0,0,0,3.618-3.825,3.4,3.4,0,0,0-3.422-3.631A3.873,3.873,0,0,0,27.276,146.877Zm-24.637.68a3.4,3.4,0,0,0,3.422,3.631,3.873,3.873,0,0,0,3.618-3.825,3.4,3.4,0,0,0-3.422-3.631A3.873,3.873,0,0,0,2.639,147.557ZM334.8,155.151a3.4,3.4,0,0,0,3.422,3.631,3.873,3.873,0,0,0,3.617-3.825,3.4,3.4,0,0,0-3.421-3.631A3.873,3.873,0,0,0,334.8,155.151Zm-24.638.68a3.4,3.4,0,0,0,3.422,3.63,3.872,3.872,0,0,0,3.617-3.825,3.4,3.4,0,0,0-3.421-3.631A3.873,3.873,0,0,0,310.163,155.832Zm-24.637.68a3.4,3.4,0,0,0,3.422,3.631,3.873,3.873,0,0,0,3.617-3.825,3.4,3.4,0,0,0-3.422-3.631A3.874,3.874,0,0,0,285.526,156.512Zm-24.637.68a3.4,3.4,0,0,0,3.422,3.631A3.873,3.873,0,0,0,267.928,157a3.4,3.4,0,0,0-3.421-3.631A3.873,3.873,0,0,0,260.889,157.192Zm-24.637.68a3.4,3.4,0,0,0,3.422,3.631,3.873,3.873,0,0,0,3.617-3.825,3.4,3.4,0,0,0-3.422-3.631A3.874,3.874,0,0,0,236.252,157.872Zm-24.637.68a3.4,3.4,0,0,0,3.422,3.631,3.873,3.873,0,0,0,3.617-3.825,3.4,3.4,0,0,0-3.421-3.631A3.873,3.873,0,0,0,211.615,158.552Zm-24.637.68a3.4,3.4,0,0,0,3.422,3.631,3.873,3.873,0,0,0,3.618-3.825,3.4,3.4,0,0,0-3.422-3.631A3.873,3.873,0,0,0,186.978,159.232Zm-24.637.68a3.4,3.4,0,0,0,3.421,3.631,3.873,3.873,0,0,0,3.618-3.825,3.4,3.4,0,0,0-3.422-3.631A3.873,3.873,0,0,0,162.341,159.912Zm-24.637.68a3.4,3.4,0,0,0,3.421,3.631,3.873,3.873,0,0,0,3.618-3.825,3.4,3.4,0,0,0-3.422-3.631A3.873,3.873,0,0,0,137.7,160.592Zm-24.637.68a3.4,3.4,0,0,0,3.422,3.631,3.873,3.873,0,0,0,3.618-3.825,3.4,3.4,0,0,0-3.422-3.631A3.873,3.873,0,0,0,113.067,161.272Zm-24.637.68a3.4,3.4,0,0,0,3.421,3.631,3.873,3.873,0,0,0,3.617-3.825,3.4,3.4,0,0,0-3.422-3.631A3.873,3.873,0,0,0,88.43,161.952Zm-24.638.68a3.4,3.4,0,0,0,3.422,3.631,3.873,3.873,0,0,0,3.617-3.825,3.4,3.4,0,0,0-3.421-3.631A3.873,3.873,0,0,0,63.792,162.633Zm-24.637.68a3.4,3.4,0,0,0,3.422,3.631,3.873,3.873,0,0,0,3.617-3.825,3.4,3.4,0,0,0-3.421-3.631A3.873,3.873,0,0,0,39.155,163.313Zm-24.637.68a3.4,3.4,0,0,0,3.422,3.631,3.873,3.873,0,0,0,3.617-3.825,3.4,3.4,0,0,0-3.422-3.631A3.873,3.873,0,0,0,14.518,163.993Zm332.162,7.595a3.4,3.4,0,0,0,3.422,3.631,3.873,3.873,0,0,0,3.617-3.825,3.4,3.4,0,0,0-3.422-3.631A3.873,3.873,0,0,0,346.679,171.587Zm-24.637.68a3.4,3.4,0,0,0,3.421,3.631,3.873,3.873,0,0,0,3.618-3.825,3.4,3.4,0,0,0-3.422-3.631A3.873,3.873,0,0,0,322.042,172.268Zm-24.637.68a3.4,3.4,0,0,0,3.422,3.631,3.873,3.873,0,0,0,3.618-3.825,3.4,3.4,0,0,0-3.422-3.631A3.873,3.873,0,0,0,297.405,172.948Zm-24.637.68a3.4,3.4,0,0,0,3.422,3.631,3.873,3.873,0,0,0,3.618-3.825,3.4,3.4,0,0,0-3.422-3.631A3.873,3.873,0,0,0,272.768,173.628Zm-24.637.68a3.4,3.4,0,0,0,3.422,3.631,3.873,3.873,0,0,0,3.618-3.825,3.4,3.4,0,0,0-3.422-3.631A3.873,3.873,0,0,0,248.131,174.308Zm-24.637.68a3.4,3.4,0,0,0,3.422,3.631,3.873,3.873,0,0,0,3.618-3.825,3.4,3.4,0,0,0-3.422-3.631A3.873,3.873,0,0,0,223.494,174.988Zm-24.637.68a3.4,3.4,0,0,0,3.421,3.631,3.873,3.873,0,0,0,3.617-3.825,3.4,3.4,0,0,0-3.422-3.631A3.873,3.873,0,0,0,198.857,175.668Zm-24.638.68a3.4,3.4,0,0,0,3.422,3.631,3.872,3.872,0,0,0,3.617-3.825,3.4,3.4,0,0,0-3.421-3.631A3.873,3.873,0,0,0,174.219,176.348Zm-24.637.68A3.4,3.4,0,0,0,153,180.659a3.873,3.873,0,0,0,3.617-3.825A3.4,3.4,0,0,0,153.2,173.2,3.873,3.873,0,0,0,149.582,177.028Zm-24.637.68a3.4,3.4,0,0,0,3.422,3.63,3.873,3.873,0,0,0,3.617-3.825,3.4,3.4,0,0,0-3.422-3.631A3.873,3.873,0,0,0,124.945,177.708Zm-24.637.68a3.4,3.4,0,0,0,3.422,3.631,3.873,3.873,0,0,0,3.617-3.825,3.4,3.4,0,0,0-3.421-3.631A3.873,3.873,0,0,0,100.308,178.388Zm-24.637.68a3.4,3.4,0,0,0,3.422,3.631,3.873,3.873,0,0,0,3.618-3.825,3.4,3.4,0,0,0-3.422-3.631A3.873,3.873,0,0,0,75.671,179.069Zm-24.637.68a3.4,3.4,0,0,0,3.421,3.631,3.873,3.873,0,0,0,3.618-3.825,3.4,3.4,0,0,0-3.422-3.631A3.873,3.873,0,0,0,51.034,179.749Zm-24.637.68a3.4,3.4,0,0,0,3.421,3.631,3.873,3.873,0,0,0,3.618-3.825,3.4,3.4,0,0,0-3.422-3.631A3.873,3.873,0,0,0,26.4,180.429Zm-24.637.68a3.4,3.4,0,0,0,3.422,3.631A3.873,3.873,0,0,0,8.8,180.915a3.4,3.4,0,0,0-3.422-3.631A3.873,3.873,0,0,0,1.76,181.109ZM333.922,188.7a3.4,3.4,0,0,0,3.422,3.631,3.872,3.872,0,0,0,3.617-3.825,3.4,3.4,0,0,0-3.421-3.631A3.873,3.873,0,0,0,333.922,188.7Zm-24.638.68a3.4,3.4,0,0,0,3.422,3.63,3.872,3.872,0,0,0,3.617-3.825,3.4,3.4,0,0,0-3.421-3.631A3.873,3.873,0,0,0,309.284,189.384Zm-24.637.68a3.4,3.4,0,0,0,3.422,3.63,3.873,3.873,0,0,0,3.617-3.825,3.4,3.4,0,0,0-3.422-3.631A3.873,3.873,0,0,0,284.647,190.064Zm-24.637.68a3.4,3.4,0,0,0,3.422,3.631,3.873,3.873,0,0,0,3.617-3.825,3.4,3.4,0,0,0-3.422-3.631A3.873,3.873,0,0,0,260.01,190.744Zm-24.637.68a3.4,3.4,0,0,0,3.422,3.631,3.873,3.873,0,0,0,3.617-3.825,3.4,3.4,0,0,0-3.422-3.631A3.873,3.873,0,0,0,235.373,191.424Zm-24.637.68a3.4,3.4,0,0,0,3.422,3.63,3.873,3.873,0,0,0,3.617-3.825,3.4,3.4,0,0,0-3.421-3.631A3.873,3.873,0,0,0,210.736,192.1Zm-24.637.68a3.4,3.4,0,0,0,3.422,3.631,3.873,3.873,0,0,0,3.618-3.825,3.4,3.4,0,0,0-3.422-3.631A3.873,3.873,0,0,0,186.1,192.784Zm-24.637.68a3.4,3.4,0,0,0,3.421,3.631,3.873,3.873,0,0,0,3.618-3.825,3.4,3.4,0,0,0-3.422-3.631A3.873,3.873,0,0,0,161.462,193.464Zm-24.637.68a3.4,3.4,0,0,0,3.421,3.631,3.873,3.873,0,0,0,3.618-3.825,3.4,3.4,0,0,0-3.422-3.631A3.873,3.873,0,0,0,136.825,194.144Zm-24.637.68a3.4,3.4,0,0,0,3.422,3.631,3.873,3.873,0,0,0,3.618-3.825A3.4,3.4,0,0,0,115.8,191,3.873,3.873,0,0,0,112.187,194.824Zm-24.637.68a3.4,3.4,0,0,0,3.421,3.63,3.873,3.873,0,0,0,3.617-3.825,3.4,3.4,0,0,0-3.422-3.631A3.873,3.873,0,0,0,87.55,195.5Zm-24.638.68a3.4,3.4,0,0,0,3.422,3.63,3.872,3.872,0,0,0,3.617-3.825,3.4,3.4,0,0,0-3.421-3.631A3.873,3.873,0,0,0,62.913,196.185Zm-24.637.68A3.4,3.4,0,0,0,41.7,200.5a3.873,3.873,0,0,0,3.617-3.825,3.4,3.4,0,0,0-3.421-3.631A3.873,3.873,0,0,0,38.276,196.865Zm-24.637.68a3.4,3.4,0,0,0,3.422,3.63,3.873,3.873,0,0,0,3.617-3.825,3.4,3.4,0,0,0-3.422-3.631A3.873,3.873,0,0,0,13.638,197.545ZM345.8,205.14a3.4,3.4,0,0,0,3.422,3.63,3.873,3.873,0,0,0,3.617-3.825,3.4,3.4,0,0,0-3.422-3.631A3.873,3.873,0,0,0,345.8,205.14Zm-24.637.68a3.4,3.4,0,0,0,3.421,3.631,3.873,3.873,0,0,0,3.618-3.825,3.4,3.4,0,0,0-3.422-3.631A3.873,3.873,0,0,0,321.163,205.82Zm-24.637.68a3.4,3.4,0,0,0,3.422,3.631,3.873,3.873,0,0,0,3.618-3.825,3.4,3.4,0,0,0-3.422-3.631A3.873,3.873,0,0,0,296.526,206.5Zm-24.637.68a3.4,3.4,0,0,0,3.422,3.631,3.873,3.873,0,0,0,3.618-3.825,3.4,3.4,0,0,0-3.422-3.631A3.873,3.873,0,0,0,271.889,207.18Zm-24.637.68a3.4,3.4,0,0,0,3.422,3.631,3.873,3.873,0,0,0,3.618-3.825,3.4,3.4,0,0,0-3.422-3.631A3.873,3.873,0,0,0,247.252,207.86Zm-24.637.68a3.4,3.4,0,0,0,3.422,3.631,3.873,3.873,0,0,0,3.618-3.825,3.4,3.4,0,0,0-3.422-3.631A3.873,3.873,0,0,0,222.615,208.54Zm-24.637.68a3.4,3.4,0,0,0,3.421,3.631,3.873,3.873,0,0,0,3.617-3.825,3.4,3.4,0,0,0-3.422-3.631A3.873,3.873,0,0,0,197.978,209.22Zm-24.638.68a3.4,3.4,0,0,0,3.422,3.63,3.872,3.872,0,0,0,3.617-3.825,3.4,3.4,0,0,0-3.421-3.631A3.873,3.873,0,0,0,173.34,209.9Zm-24.637.68a3.4,3.4,0,0,0,3.422,3.631,3.873,3.873,0,0,0,3.617-3.825,3.4,3.4,0,0,0-3.421-3.631A3.873,3.873,0,0,0,148.7,210.58Zm-24.637.68a3.4,3.4,0,0,0,3.422,3.63,3.873,3.873,0,0,0,3.617-3.825,3.4,3.4,0,0,0-3.422-3.631A3.873,3.873,0,0,0,124.066,211.26Zm-24.637.68a3.4,3.4,0,0,0,3.422,3.631,3.873,3.873,0,0,0,3.617-3.825,3.4,3.4,0,0,0-3.421-3.631A3.873,3.873,0,0,0,99.429,211.941Zm-24.637.68a3.4,3.4,0,0,0,3.422,3.63,3.873,3.873,0,0,0,3.618-3.825,3.4,3.4,0,0,0-3.422-3.631A3.873,3.873,0,0,0,74.792,212.621Zm-24.637.68a3.4,3.4,0,0,0,3.421,3.631,3.873,3.873,0,0,0,3.618-3.825,3.4,3.4,0,0,0-3.422-3.631A3.873,3.873,0,0,0,50.155,213.3Zm-24.637.68a3.4,3.4,0,0,0,3.421,3.631,3.873,3.873,0,0,0,3.618-3.825,3.4,3.4,0,0,0-3.422-3.631A3.873,3.873,0,0,0,25.518,213.981Zm-24.637.68A3.4,3.4,0,0,0,4.3,218.291a3.873,3.873,0,0,0,3.618-3.825A3.4,3.4,0,0,0,4.5,210.835,3.873,3.873,0,0,0,.881,214.661Zm332.162,7.595a3.4,3.4,0,0,0,3.422,3.63,3.873,3.873,0,0,0,3.617-3.825,3.4,3.4,0,0,0-3.421-3.631A3.873,3.873,0,0,0,333.042,222.256Zm-24.638.68a3.4,3.4,0,0,0,3.422,3.63,3.872,3.872,0,0,0,3.617-3.825,3.4,3.4,0,0,0-3.421-3.631A3.873,3.873,0,0,0,308.4,222.936Zm-24.637.68a3.4,3.4,0,0,0,3.422,3.63,3.873,3.873,0,0,0,3.617-3.825,3.4,3.4,0,0,0-3.422-3.631A3.873,3.873,0,0,0,283.767,223.616Zm-24.637.68a3.4,3.4,0,0,0,3.422,3.63,3.873,3.873,0,0,0,3.617-3.825,3.4,3.4,0,0,0-3.422-3.631A3.873,3.873,0,0,0,259.13,224.3Zm-24.637.68a3.4,3.4,0,0,0,3.422,3.631,3.873,3.873,0,0,0,3.617-3.825,3.4,3.4,0,0,0-3.422-3.631A3.873,3.873,0,0,0,234.493,224.976Zm-24.637.68a3.4,3.4,0,0,0,3.422,3.63,3.873,3.873,0,0,0,3.617-3.825,3.4,3.4,0,0,0-3.421-3.631A3.873,3.873,0,0,0,209.856,225.656Zm-24.637.68a3.4,3.4,0,0,0,3.422,3.631,3.873,3.873,0,0,0,3.618-3.825,3.4,3.4,0,0,0-3.422-3.631A3.873,3.873,0,0,0,185.219,226.336Zm-24.637.68A3.4,3.4,0,0,0,164,230.647a3.873,3.873,0,0,0,3.618-3.825,3.4,3.4,0,0,0-3.422-3.631A3.873,3.873,0,0,0,160.582,227.016Zm-24.637.68a3.4,3.4,0,0,0,3.421,3.63,3.873,3.873,0,0,0,3.618-3.825,3.4,3.4,0,0,0-3.422-3.631A3.873,3.873,0,0,0,135.945,227.7Zm-24.637.68a3.4,3.4,0,0,0,3.422,3.631,3.873,3.873,0,0,0,3.618-3.825,3.4,3.4,0,0,0-3.422-3.631A3.873,3.873,0,0,0,111.308,228.377Zm-24.637.68a3.4,3.4,0,0,0,3.421,3.631,3.873,3.873,0,0,0,3.617-3.825,3.4,3.4,0,0,0-3.422-3.631A3.873,3.873,0,0,0,86.671,229.057Zm-24.638.68a3.4,3.4,0,0,0,3.422,3.63,3.873,3.873,0,0,0,3.617-3.825,3.4,3.4,0,0,0-3.421-3.631A3.873,3.873,0,0,0,62.033,229.737Zm-24.637.68a3.4,3.4,0,0,0,3.422,3.63,3.873,3.873,0,0,0,3.617-3.825,3.4,3.4,0,0,0-3.421-3.631A3.873,3.873,0,0,0,37.4,230.417Zm-24.637.68a3.4,3.4,0,0,0,3.422,3.63A3.873,3.873,0,0,0,19.8,230.9a3.4,3.4,0,0,0-3.422-3.631A3.873,3.873,0,0,0,12.759,231.1Zm332.162,7.595a3.4,3.4,0,0,0,3.422,3.63,3.873,3.873,0,0,0,3.617-3.825,3.4,3.4,0,0,0-3.422-3.631A3.873,3.873,0,0,0,344.921,238.692Zm-24.637.68A3.4,3.4,0,0,0,323.705,243a3.873,3.873,0,0,0,3.618-3.825,3.4,3.4,0,0,0-3.422-3.631A3.873,3.873,0,0,0,320.284,239.372Zm-24.637.68a3.4,3.4,0,0,0,3.422,3.631,3.873,3.873,0,0,0,3.618-3.825,3.4,3.4,0,0,0-3.422-3.631A3.873,3.873,0,0,0,295.647,240.052Zm-24.637.68a3.4,3.4,0,0,0,3.422,3.63,3.873,3.873,0,0,0,3.618-3.825,3.4,3.4,0,0,0-3.422-3.631A3.873,3.873,0,0,0,271.01,240.732Zm-24.637.68a3.4,3.4,0,0,0,3.422,3.631,3.873,3.873,0,0,0,3.618-3.825,3.4,3.4,0,0,0-3.422-3.631A3.873,3.873,0,0,0,246.373,241.412Zm-24.637.68a3.4,3.4,0,0,0,3.422,3.631,3.873,3.873,0,0,0,3.618-3.825,3.4,3.4,0,0,0-3.422-3.631A3.873,3.873,0,0,0,221.735,242.092Zm-24.637.68a3.4,3.4,0,0,0,3.421,3.63,3.873,3.873,0,0,0,3.617-3.825,3.4,3.4,0,0,0-3.422-3.631A3.873,3.873,0,0,0,197.1,242.772Zm-24.638.68a3.4,3.4,0,0,0,3.422,3.631,3.872,3.872,0,0,0,3.617-3.825,3.4,3.4,0,0,0-3.421-3.631A3.873,3.873,0,0,0,172.461,243.452Zm-24.637.68a3.4,3.4,0,0,0,3.422,3.631,3.873,3.873,0,0,0,3.617-3.825,3.4,3.4,0,0,0-3.421-3.631A3.873,3.873,0,0,0,147.824,244.132Zm-24.637.68a3.4,3.4,0,0,0,3.422,3.63,3.873,3.873,0,0,0,3.617-3.825,3.4,3.4,0,0,0-3.422-3.631A3.873,3.873,0,0,0,123.187,244.813Zm-24.637.68a3.4,3.4,0,0,0,3.422,3.631,3.873,3.873,0,0,0,3.617-3.825,3.4,3.4,0,0,0-3.421-3.631A3.873,3.873,0,0,0,98.55,245.493Zm-24.637.68a3.4,3.4,0,0,0,3.422,3.63,3.873,3.873,0,0,0,3.618-3.825,3.4,3.4,0,0,0-3.422-3.631A3.873,3.873,0,0,0,73.913,246.173Zm-24.637.68a3.4,3.4,0,0,0,3.421,3.631,3.873,3.873,0,0,0,3.618-3.825,3.4,3.4,0,0,0-3.422-3.631A3.873,3.873,0,0,0,49.276,246.853Zm-24.637.68a3.4,3.4,0,0,0,3.421,3.631,3.873,3.873,0,0,0,3.618-3.825,3.4,3.4,0,0,0-3.422-3.631A3.873,3.873,0,0,0,24.639,247.533ZM0,248.213a3.4,3.4,0,0,0,3.422,3.63,3.873,3.873,0,0,0,3.618-3.825,3.4,3.4,0,0,0-3.422-3.631A3.873,3.873,0,0,0,0,248.213Zm332.162,7.595a3.4,3.4,0,0,0,3.422,3.63,3.872,3.872,0,0,0,3.617-3.825,3.4,3.4,0,0,0-3.421-3.631A3.873,3.873,0,0,0,332.163,255.808Zm-24.638.68a3.4,3.4,0,0,0,3.422,3.63,3.872,3.872,0,0,0,3.617-3.825,3.4,3.4,0,0,0-3.422-3.631A3.873,3.873,0,0,0,307.525,256.488Zm-24.637.68a3.4,3.4,0,0,0,3.422,3.631,3.873,3.873,0,0,0,3.617-3.825,3.4,3.4,0,0,0-3.422-3.631A3.873,3.873,0,0,0,282.888,257.168Zm-24.637.68a3.4,3.4,0,0,0,3.422,3.63,3.873,3.873,0,0,0,3.617-3.825,3.4,3.4,0,0,0-3.422-3.631A3.873,3.873,0,0,0,258.251,257.848Zm-24.637.68a3.4,3.4,0,0,0,3.422,3.63,3.873,3.873,0,0,0,3.617-3.825,3.4,3.4,0,0,0-3.422-3.631A3.873,3.873,0,0,0,233.614,258.528Zm-24.637.68a3.4,3.4,0,0,0,3.422,3.63,3.873,3.873,0,0,0,3.617-3.825,3.4,3.4,0,0,0-3.421-3.631A3.873,3.873,0,0,0,208.977,259.208Zm-24.637.68a3.4,3.4,0,0,0,3.422,3.63,3.873,3.873,0,0,0,3.618-3.825,3.4,3.4,0,0,0-3.422-3.631A3.873,3.873,0,0,0,184.34,259.888Zm-24.637.68a3.4,3.4,0,0,0,3.421,3.63,3.873,3.873,0,0,0,3.618-3.825,3.4,3.4,0,0,0-3.422-3.631A3.873,3.873,0,0,0,159.7,260.568Zm-24.637.68a3.4,3.4,0,0,0,3.421,3.63,3.873,3.873,0,0,0,3.618-3.825,3.4,3.4,0,0,0-3.422-3.631A3.873,3.873,0,0,0,135.066,261.249Zm-24.637.68a3.4,3.4,0,0,0,3.422,3.631,3.873,3.873,0,0,0,3.618-3.825,3.4,3.4,0,0,0-3.422-3.631A3.873,3.873,0,0,0,110.429,261.929Zm-24.637.68a3.4,3.4,0,0,0,3.421,3.631,3.873,3.873,0,0,0,3.617-3.825,3.4,3.4,0,0,0-3.422-3.631A3.873,3.873,0,0,0,85.792,262.609Zm-24.638.68a3.4,3.4,0,0,0,3.422,3.63,3.872,3.872,0,0,0,3.617-3.825,3.4,3.4,0,0,0-3.421-3.631A3.873,3.873,0,0,0,61.154,263.289Zm-24.637.68a3.4,3.4,0,0,0,3.422,3.63,3.873,3.873,0,0,0,3.617-3.825,3.4,3.4,0,0,0-3.421-3.631A3.873,3.873,0,0,0,36.517,263.969Zm-24.637.68a3.4,3.4,0,0,0,3.422,3.63,3.873,3.873,0,0,0,3.617-3.825,3.4,3.4,0,0,0-3.422-3.631A3.873,3.873,0,0,0,11.88,264.649Z" transform="matrix(-0.921, 0.391, -0.391, -0.921, 1998.731, 68.489)" opacity="0.3" fill="url(#linear-gradient)"/>
    </g>
  </g>
</svg>
