<svg xmlns="http://www.w3.org/2000/svg" xmlns:xlink="http://www.w3.org/1999/xlink" width="67.64" height="62.226" viewBox="0 0 67.64 62.226"><defs><style>.a{fill:none;}.b{stroke:#fff;stroke-width:0.5px;fill:url(#a);}.c{fill:#fff;}.d{fill:url(#f);}.e{filter:url(#g);}.f{filter:url(#d);}.g{filter:url(#b);}</style><linearGradient id="a" x1="0.07" y1="-0.076" x2="0.5" y2="1" gradientUnits="objectBoundingBox"><stop offset="0" stop-color="#f8f8f8"/><stop offset="1" stop-color="#dcdcdc"/></linearGradient><filter id="b" x="0.11" y="7.496" width="54.923" height="44.643" filterUnits="userSpaceOnUse"><feOffset dy="1" input="SourceAlpha"/><feGaussianBlur stdDeviation="0.5" result="c"/><feFlood flood-color="#323a45" flood-opacity="0.149"/><feComposite operator="in" in2="c"/><feComposite in="SourceGraphic"/></filter><filter id="d" x="27.22" y="21.806" width="40.42" height="40.42" filterUnits="userSpaceOnUse"><feOffset dy="1" input="SourceAlpha"/><feGaussianBlur stdDeviation="2.5" result="e"/><feFlood flood-color="#323a45" flood-opacity="0.302"/><feComposite operator="in" in2="e"/><feComposite in="SourceGraphic"/></filter><linearGradient id="f" x1="0.5" x2="0.5" y2="1" gradientUnits="objectBoundingBox"><stop offset="0" stop-color="#4086e5"/><stop offset="1" stop-color="#2160b5"/></linearGradient><filter id="g" x="42.21" y="34.158" width="10.428" height="15.733" filterUnits="userSpaceOnUse"><feOffset dy="1" input="SourceAlpha"/><feGaussianBlur stdDeviation="0.5" result="h"/><feFlood flood-color="#323a45" flood-opacity="0.2"/><feComposite operator="in" in2="h"/><feComposite in="SourceGraphic"/></filter></defs><g transform="translate(-659 -355)"><rect class="a" width="62" height="62" transform="translate(659 355)"/><g transform="translate(660.86 363.246)"><g class="g" transform="matrix(1, 0, 0, 1, -1.86, -8.25)"><path class="b" d="M31.032,13.408a8.847,8.847,0,0,1,4.348,6.6,7.829,7.829,0,0,0,3.188.679,7.361,7.361,0,0,0,7.541-7.168,7.552,7.552,0,0,0-15.077-.108ZM26.092,28.079a7.364,7.364,0,0,0,7.541-7.168,7.364,7.364,0,0,0-7.541-7.168,7.364,7.364,0,0,0-7.544,7.168A7.364,7.364,0,0,0,26.092,28.079Zm3.2.489H22.883a9.439,9.439,0,0,0-9.657,9.179v7.441l.021.116.54.159a46.055,46.055,0,0,0,13.128,2.013A28.134,28.134,0,0,0,38.38,45.419l.514-.242h.054v-7.42a9.436,9.436,0,0,0-9.657-9.179Zm12.478-7.4H35.418a8.644,8.644,0,0,1-2.869,6.155,11,11,0,0,1,8.2,10.439v2.293a27.1,27.1,0,0,0,10.12-2.021l.514-.242h.044V30.355a9.439,9.439,0,0,0-9.655-9.179Zm-28.913-.478a7.778,7.778,0,0,0,4.011-1.106,8.8,8.8,0,0,1,3.51-5.657c0-.134.021-.257.021-.4A7.361,7.361,0,0,0,12.856,6.35a7.361,7.361,0,0,0-7.541,7.168,7.361,7.361,0,0,0,7.541,7.168Zm6.772,6.641a8.652,8.652,0,0,1-2.867-6.119c-.237-.015-.468-.033-.71-.033H9.657A9.439,9.439,0,0,0,0,30.355V37.8l.021.116.54.162a47.384,47.384,0,0,0,10.874,1.944V37.77a11,11,0,0,1,8.2-10.439Z" transform="translate(1.86 1.9)"/></g><g transform="translate(32.86 20.06)"><g class="f" transform="matrix(1, 0, 0, 1, -34.72, -28.31)"><path class="c" d="M12.71,0A12.71,12.71,0,1,1,0,12.71,12.71,12.71,0,0,1,12.71,0Z" transform="translate(34.72 28.31)"/></g><path class="d" d="M10.23,0A10.23,10.23,0,1,1,0,10.23,10.23,10.23,0,0,1,10.23,0Z" transform="translate(2.48 2.48)"/><g class="e" transform="matrix(1, 0, 0, 1, -34.72, -28.31)"><path class="c" d="M199.428,100.9h-2.476V98.938c0-.541.444-.49.99-.49h.99V96h-1.981a2.955,2.955,0,0,0-2.971,2.938V100.9H192v2.449h1.981v5.387h2.971v-5.387h1.486Z" transform="translate(-148.29 -61.34)"/></g></g></g></g></svg>