<svg width="26" height="26" viewBox="0 0 26 26" fill="none" xmlns="http://www.w3.org/2000/svg">
<path d="M20.2045 12.9997C20.2045 16.714 17.456 19.6854 13.8902 20.1312V15.154H15.8217L16.1931 12.9254H13.816V12.1826C13.816 11.5883 13.9645 11.2169 14.1874 10.9197C14.2617 10.8454 14.4102 10.7712 14.5588 10.6969C14.6331 10.6969 14.6331 10.6969 14.7074 10.6226C14.9302 10.5483 15.1531 10.5483 15.4502 10.5483C15.5988 10.5483 15.8217 10.5483 15.9702 10.5483C16.1188 10.5483 16.1931 10.5483 16.2674 10.5483V8.54258C15.9702 8.4683 15.1531 8.39401 14.7074 8.39401C13.5188 8.39401 12.6274 8.69116 12.0331 9.28544C11.4388 9.87973 11.1417 10.7712 11.1417 11.9597V12.9254H9.65596V15.154H11.1417V19.9083C8.02167 19.1654 5.64453 16.2683 5.64453 12.9254C5.64453 8.91401 8.83882 5.71973 12.8502 5.71973C16.8617 5.71973 20.2045 8.9883 20.2045 12.9997Z" fill="white"/>
</svg>
