<svg xmlns="http://www.w3.org/2000/svg" xmlns:xlink="http://www.w3.org/1999/xlink" width="70" height="70" viewBox="0 0 70 70"><defs><style>.a{fill:#fff;stroke:#707070;}.b{clip-path:url(#a);}.c{stroke:#fff;stroke-width:0.5px;fill:url(#b);}.d{fill:url(#e);}.e,.f{stroke:none;}.f{fill:#fff;}.g{filter:url(#f);}.h{filter:url(#c);}</style><clipPath id="a"><rect class="a" width="70" height="70" transform="translate(-4179 575)"/></clipPath><linearGradient id="b" x1="0.224" y1="-0.16" x2="0.172" y2="0.773" gradientUnits="objectBoundingBox"><stop offset="0" stop-color="#f8f8f8"/><stop offset="1" stop-color="#dcdcdc"/></linearGradient><filter id="c" x="23.114" y="7.271" width="39.742" height="45.646" filterUnits="userSpaceOnUse"><feOffset dy="1" input="SourceAlpha"/><feGaussianBlur stdDeviation="0.5" result="d"/><feFlood flood-color="#323a45" flood-opacity="0.149"/><feComposite operator="in" in2="d"/><feComposite in="SourceGraphic"/></filter><linearGradient id="e" x1="0.831" x2="0.772" y2="1" gradientUnits="objectBoundingBox"><stop offset="0" stop-color="#4086e5"/><stop offset="1" stop-color="#2160b5"/></linearGradient><filter id="f" x="7.469" y="5.11" width="53.516" height="61.78" filterUnits="userSpaceOnUse"><feOffset dy="1" input="SourceAlpha"/><feGaussianBlur stdDeviation="0.5" result="g"/><feFlood flood-opacity="0.2"/><feComposite operator="in" in2="g"/><feComposite in="SourceGraphic"/></filter></defs><g class="b" transform="translate(4179 -575)"><g class="h" transform="matrix(1, 0, 0, 1, -4179, 575)"><path class="c" d="M27.294,20.685,1.882.258A1.174,1.174,0,0,0,.659.107,1.111,1.111,0,0,0,0,1.118L.113,34.936a1.161,1.161,0,0,0,2.113.635l8.832-12.978,15.51.081a1.139,1.139,0,0,0,1.082-.75,1.118,1.118,0,0,0-.358-1.253Z" transform="matrix(0.97, -0.26, 0.26, 0.97, 24.92, 15.27)"/></g><g class="g" transform="matrix(1, 0, 0, 1, -4179, 575)"><g class="d" transform="matrix(0.97, -0.26, 0.26, 0.97, 8.97, 15.65)"><path class="e" d="M 1.785769820213318 49.96318054199219 C 1.171369791030884 49.96318054199219 0.6653497815132141 49.47409057617188 0.6577497720718384 48.87290954589844 L 0.4999997913837433 1.56295120716095 C 0.5009998083114624 1.152241230010986 0.7468497753143311 0.7754912376403809 1.126329779624939 0.6060112714767456 L 1.128889799118042 0.6048612594604492 L 1.131449818611145 0.6036912798881531 C 1.280949831008911 0.5348912477493286 1.440509796142578 0.5000012516975403 1.605689764022827 0.5000012516975403 C 1.864909768104553 0.5000012516975403 2.118949890136719 0.5890512466430664 2.321019887924194 0.7507312893867493 L 37.87343978881836 29.32982063293457 L 37.99225997924805 29.42533493041992 C 38.25971984863281 29.71619606018066 38.34969329833984 30.13108062744141 38.21429824829102 30.50414085388184 C 38.06103134155273 30.93639183044434 37.64437866210938 31.22446060180664 37.17626953125 31.22446060180664 L 15.47299957275391 31.11072158813477 L 15.20678997039795 31.10932159423828 L 15.05702018737793 31.32941055297852 L 2.700409889221191 49.48704147338867 C 2.497249841690063 49.78346252441406 2.157299757003784 49.96195983886719 1.791989803314209 49.96316146850586 L 1.785769820213318 49.96318054199219 Z"/><path class="f" d="M 1.785769820213318 49.46318054199219 L 1.790339827537537 49.46317291259766 C 1.991329789161682 49.46250152587891 2.177709817886353 49.36524963378906 2.287039756774902 49.20574188232422 L 14.64365005493164 31.04811096191406 L 14.94320011138916 30.60793113708496 L 15.47561931610107 30.61072158813477 L 37.17626953125 30.72446060180664 C 37.43310928344727 30.72446060180664 37.66036987304688 30.57018089294434 37.74179077148438 30.34054183959961 L 37.7430305480957 30.33705139160156 L 37.74428939819336 30.33356094360352 C 37.81174468994141 30.1477222442627 37.77131652832031 29.94091415405273 37.64504241943359 29.78774642944336 L 37.5601692199707 29.71952056884766 L 2.008639812469482 1.141141295433044 C 1.894889831542969 1.050121307373047 1.751789808273315 1.000001311302185 1.605689764022827 1.000001311302185 C 1.513189792633057 1.000001311302185 1.423959732055664 1.019481301307678 1.340459823608398 1.057901263237 L 1.335359811782837 1.060251235961914 L 1.330229759216309 1.062541246414185 C 1.130552768707275 1.151721239089966 1.001042366027832 1.349130630493164 1.000004649162292 1.565736174583435 L 1.157759308815002 48.8697624206543 C 1.16369366645813 49.19726181030273 1.444716572761536 49.46318054199219 1.785769820213318 49.46318054199219 M 1.78576672077179 50.46318054199219 C 0.8959903120994568 50.46318054199219 0.1688466221094131 49.75437545776367 0.1577897816896439 48.87923049926758 L -2.166748060972168e-07 1.564621210098267 C 0.001479783328250051 0.9555512666702271 0.3597197830677032 0.4007912576198578 0.9224298000335693 0.1494712680578232 C 1.140459656715393 0.04914047941565514 1.373618245124817 4.193115273665171e-06 1.605694770812988 4.193115273665171e-06 C 1.972506523132324 4.193115273665171e-06 2.336551427841187 0.122804619371891 2.633399724960327 0.3603212535381317 L 38.18669891357422 28.94012069702148 L 38.18280029296875 28.92116165161133 C 38.70972061157227 29.34314155578613 38.91189956665039 30.04761123657227 38.68429946899414 30.67472076416016 C 38.46124267578125 31.30384635925293 37.85628509521484 31.72446441650391 37.17627334594727 31.72446441650391 C 37.1741943359375 31.72446441650391 37.17200088500977 31.72445869445801 37.16991806030273 31.72445106506348 L 15.47037982940674 31.6107120513916 L 3.113769769668579 49.76834106445312 C 2.81637978553772 50.20226287841797 2.322759866714478 50.46142196655273 1.793629765510559 50.46316146850586 C 1.790957808494568 50.46317291259766 1.788435816764832 50.46318054199219 1.78576672077179 50.46318054199219 Z"/></g></g></g></svg>