<svg id="Hosting" xmlns="http://www.w3.org/2000/svg" width="30" height="30.001" viewBox="0 0 30 30.001">
  <rect id="Rectangle_18449" data-name="Rectangle 18449" width="30" height="30" transform="translate(0 0)" fill="none"/>
  <path id="Path_111022" data-name="Path 111022" d="M-1961.876,24h-26.249A1.908,1.908,0,0,1-1990,22.065v-4.84a1.907,1.907,0,0,1,1.875-1.933h26.249A1.907,1.907,0,0,1-1960,17.225v4.84A1.909,1.909,0,0,1-1961.876,24Zm-25.312-5.806v2.9h16.875v-2.9Zm22.969,0a1.407,1.407,0,0,0-1.406,1.405,1.408,1.408,0,0,0,1.406,1.407,1.408,1.408,0,0,0,1.406-1.407A1.407,1.407,0,0,0-1964.219,18.194Zm2.344-4.84h-26.249A1.908,1.908,0,0,1-1990,11.42V6.58a1.908,1.908,0,0,1,1.875-1.935h26.249A1.908,1.908,0,0,1-1960,6.58v4.84A1.908,1.908,0,0,1-1961.876,13.355Zm-25.312-5.806v2.9h16.875v-2.9Zm22.969,0a1.408,1.408,0,0,0-1.406,1.407,1.408,1.408,0,0,0,1.406,1.407,1.408,1.408,0,0,0,1.406-1.407A1.408,1.408,0,0,0-1964.219,7.548Zm2.344-4.84h-26.249A1.907,1.907,0,0,1-1990,.775v-4.84A1.908,1.908,0,0,1-1988.125-6h26.249A1.909,1.909,0,0,1-1960-4.064V.775A1.907,1.907,0,0,1-1961.876,2.709ZM-1987.188-3.1v2.9h16.875V-3.1Zm22.969,0a1.408,1.408,0,0,0-1.406,1.407,1.407,1.407,0,0,0,1.406,1.405,1.407,1.407,0,0,0,1.406-1.405A1.408,1.408,0,0,0-1964.219-3.1Z" transform="translate(1990 6)" fill="#4b7efc"/>
</svg>
