<svg xmlns="http://www.w3.org/2000/svg" width="22" height="22" viewBox="0 0 22 22">
  <g id="Group_91853" data-name="Group 91853" transform="translate(-122 -6)">
    <g id="Point_Domain" data-name="Point Domain" transform="translate(122 6)">
      <rect id="Rectangle_40048" data-name="Rectangle 40048" width="22" height="22" fill="none"/>
      <g id="internet_1_" data-name="internet (1)" transform="translate(2.588 2.588)">
        <g id="Group_75176" data-name="Group 75176" transform="translate(4.389 4.242)">
          <g id="Group_75175" data-name="Group 75175" transform="translate(0 0)">
            <path id="Path_129457" data-name="Path 129457" d="M128.585,128a14.175,14.175,0,0,0-.585,3.657h3.657V128Z" transform="translate(-128 -128)"/>
          </g>
        </g>
        <g id="Group_75178" data-name="Group 75178" transform="translate(0 8.631)">
          <g id="Group_75177" data-name="Group 75177">
            <path id="Path_129458" data-name="Path 129458" d="M3.657,256H0a8.809,8.809,0,0,0,1.024,3.657H4.169A18.371,18.371,0,0,1,3.657,256Z" transform="translate(0 -256)"/>
          </g>
        </g>
        <g id="Group_75180" data-name="Group 75180" transform="translate(5.193 0.293)">
          <g id="Group_75179" data-name="Group 75179" transform="translate(0 0)">
            <path id="Path_129459" data-name="Path 129459" d="M151.467,16.018h2.853V12.8C153.149,13.019,152.125,14.263,151.467,16.018Z" transform="translate(-151.467 -12.8)"/>
          </g>
        </g>
        <g id="Group_75182" data-name="Group 75182" transform="translate(8.777 0.293)">
          <g id="Group_75181" data-name="Group 75181" transform="translate(0 0)">
            <path id="Path_129460" data-name="Path 129460" d="M256,12.8v3.218h2.853C258.194,14.263,257.17,13.019,256,12.8Z" transform="translate(-256 -12.8)"/>
          </g>
        </g>
        <g id="Group_75184" data-name="Group 75184" transform="translate(8.777 4.242)">
          <g id="Group_75183" data-name="Group 75183" transform="translate(0 0)">
            <path id="Path_129461" data-name="Path 129461" d="M259.072,128H256v3.657h3.657A14.178,14.178,0,0,0,259.072,128Z" transform="translate(-256 -128)"/>
          </g>
        </g>
        <g id="Group_75186" data-name="Group 75186" transform="translate(12.654 8.631)">
          <g id="Group_75185" data-name="Group 75185">
            <path id="Path_129462" data-name="Path 129462" d="M369.579,256a14.241,14.241,0,0,1-.512,3.657h3.145A8.809,8.809,0,0,0,373.236,256Z" transform="translate(-369.067 -256)"/>
          </g>
        </g>
        <g id="Group_75188" data-name="Group 75188" transform="translate(4.389 8.631)">
          <g id="Group_75187" data-name="Group 75187">
            <path id="Path_129463" data-name="Path 129463" d="M128,256a14.176,14.176,0,0,0,.585,3.657h3.072V256Z" transform="translate(-128 -256)"/>
          </g>
        </g>
        <g id="Group_75190" data-name="Group 75190" transform="translate(0 4.242)">
          <g id="Group_75189" data-name="Group 75189" transform="translate(0 0)">
            <path id="Path_129464" data-name="Path 129464" d="M1.024,128A8.808,8.808,0,0,0,0,131.657H3.657A18.37,18.37,0,0,1,4.169,128Z" transform="translate(0 -128)"/>
          </g>
        </g>
        <g id="Group_75192" data-name="Group 75192" transform="translate(5.193 13.02)">
          <g id="Group_75191" data-name="Group 75191" transform="translate(0 0)">
            <path id="Path_129465" data-name="Path 129465" d="M151.467,384c.658,1.755,1.682,3,2.853,3.218V384Z" transform="translate(-151.467 -384)"/>
          </g>
        </g>
        <g id="Group_75194" data-name="Group 75194" transform="translate(1.463 13.02)">
          <g id="Group_75193" data-name="Group 75193" transform="translate(0 0)">
            <path id="Path_129466" data-name="Path 129466" d="M45.593,384H42.667a8.532,8.532,0,0,0,5.266,3.511A7.217,7.217,0,0,1,45.593,384Z" transform="translate(-42.667 -384)"/>
          </g>
        </g>
        <g id="Group_75196" data-name="Group 75196" transform="translate(10.021 13.02)">
          <g id="Group_75195" data-name="Group 75195" transform="translate(0 0)">
            <path id="Path_129467" data-name="Path 129467" d="M294.607,384a6.356,6.356,0,0,1-2.341,3.511A8.067,8.067,0,0,0,297.533,384Z" transform="translate(-292.266 -384)"/>
          </g>
        </g>
        <g id="Group_75198" data-name="Group 75198" transform="translate(10.094 0)">
          <g id="Group_75197" data-name="Group 75197">
            <path id="Path_129468" data-name="Path 129468" d="M294.4,4.267a7.217,7.217,0,0,1,2.341,3.511h2.926A8.532,8.532,0,0,0,294.4,4.267Z" transform="translate(-294.4 -4.267)"/>
          </g>
        </g>
        <g id="Group_75200" data-name="Group 75200" transform="translate(1.536 0)">
          <g id="Group_75199" data-name="Group 75199">
            <path id="Path_129469" data-name="Path 129469" d="M44.8,7.778h2.926a6.356,6.356,0,0,1,2.341-3.511A8.067,8.067,0,0,0,44.8,7.778Z" transform="translate(-44.8 -4.267)"/>
          </g>
        </g>
        <g id="Group_75202" data-name="Group 75202" transform="translate(8.777 13.02)">
          <g id="Group_75201" data-name="Group 75201" transform="translate(0 0)">
            <path id="Path_129470" data-name="Path 129470" d="M256,384v3.218c1.17-.219,2.194-1.463,2.853-3.218Z" transform="translate(-256 -384)"/>
          </g>
        </g>
        <g id="Group_75204" data-name="Group 75204" transform="translate(8.777 8.631)">
          <g id="Group_75203" data-name="Group 75203">
            <path id="Path_129471" data-name="Path 129471" d="M256,256v3.657h3.072a14.178,14.178,0,0,0,.585-3.657Z" transform="translate(-256 -256)"/>
          </g>
        </g>
        <g id="Group_75206" data-name="Group 75206" transform="translate(12.654 4.242)">
          <g id="Group_75205" data-name="Group 75205" transform="translate(0 0)">
            <path id="Path_129472" data-name="Path 129472" d="M372.212,128h-3.145a18.367,18.367,0,0,1,.512,3.657h3.657A8.809,8.809,0,0,0,372.212,128Z" transform="translate(-369.067 -128)"/>
          </g>
        </g>
      </g>
    </g>
    <g id="Path_168616" data-name="Path 168616" transform="translate(190.725 569.409)" fill="#008a62" stroke-linecap="round">
      <path d="M -51.91196441650391 -554.2401123046875 C -54.07730865478516 -554.2401123046875 -55.82562637329102 -555.9478759765625 -55.90012741088867 -558.1312866210938 C -55.90497970581055 -558.19775390625 -55.90743255615234 -558.2654418945312 -55.90743255615234 -558.3328857421875 C -55.90743255615234 -559.2893676757812 -55.50579071044922 -560.2207641601562 -54.77618026733398 -560.9572143554688 C -54.05784606933594 -561.7323608398438 -53.06007766723633 -562.1591186523438 -51.96487426757812 -562.1591186523438 C -50.8952751159668 -562.1591186523438 -49.9018440246582 -561.75537109375 -49.16758346557617 -561.0221557617188 C -48.41046524047852 -560.2684936523438 -47.98040390014648 -559.2188110351562 -47.98850250244141 -558.1431274414062 C -47.99670791625977 -557.1161499023438 -48.39156723022461 -556.1583251953125 -49.10075378417969 -555.4436645507812 C -49.81836318969727 -554.6674194335938 -50.81600952148438 -554.2401123046875 -51.91196441650391 -554.2401123046875 Z" stroke="none"/>
      <path d="M -51.91196441650391 -554.9901123046875 C -51.02322387695312 -554.9901123046875 -50.21720504760742 -555.3353881835938 -49.64247512817383 -555.9625854492188 C -49.06618499755859 -556.538330078125 -48.74514389038086 -557.3146362304688 -48.73848342895508 -558.1487426757812 C -48.73189544677734 -559.0242919921875 -49.08144378662109 -559.878173828125 -49.69751358032227 -560.491455078125 C -50.29020309448242 -561.083251953125 -51.09543228149414 -561.4091186523438 -51.96487426757812 -561.4091186523438 C -52.85294342041016 -561.4091186523438 -53.65894317626953 -561.064453125 -54.23438262939453 -560.4384155273438 C -54.82961273193359 -559.8418579101562 -55.15743255615234 -559.0939331054688 -55.15743255615234 -558.3328857421875 C -55.15743255615234 -558.2798461914062 -55.15531539916992 -558.2250366210938 -55.15104293823242 -558.1719360351562 C -55.09794235229492 -556.3877563476562 -53.67517471313477 -554.9901123046875 -51.91196441650391 -554.9901123046875 M -51.91196441650391 -553.4901123046875 C -54.47982406616211 -553.4901123046875 -56.55393218994141 -555.508544921875 -56.64920043945312 -558.0917358398438 C -56.65467071533203 -558.1714477539062 -56.65743255615234 -558.2523803710938 -56.65743255615234 -558.3328857421875 C -56.65743255615234 -559.4846801757812 -56.18185424804688 -560.599853515625 -55.31754684448242 -561.4763793945312 C -54.45637512207031 -562.4005126953125 -53.26700592041016 -562.9091186523438 -51.96487426757812 -562.9091186523438 C -50.69515228271484 -562.9091186523438 -49.51352310180664 -562.427490234375 -48.63765335083008 -561.5529174804688 C -47.73947525024414 -560.6588134765625 -47.22892379760742 -559.413330078125 -47.238525390625 -558.137451171875 C -47.24826431274414 -556.9175415039062 -47.71696472167969 -555.7782592773438 -48.55905532836914 -554.9248046875 C -49.41954040527344 -553.9993286132812 -50.60888671875 -553.4901123046875 -51.91196441650391 -553.4901123046875 Z" stroke="none" fill="#fff"/>
    </g>
  </g>
</svg>
