<svg xmlns="http://www.w3.org/2000/svg" width="30" height="30" viewBox="0 0 30 30">
  <g id="Image_Optimizer" data-name="Image Optimizer" transform="translate(-1154.5 -1154.045)">
    <g id="Group_53886" data-name="Group 53886" transform="translate(1154.5 1154.045)">
      <g id="Group_53591" data-name="Group 53591" transform="translate(0 0)">
        <path id="Path_128844" data-name="Path 128844" d="M8.25,0h13.5A8.25,8.25,0,0,1,30,8.25v13.5A8.25,8.25,0,0,1,21.75,30H8.25A8.25,8.25,0,0,1,0,21.75V8.25A8.25,8.25,0,0,1,8.25,0Z" transform="translate(0 0)" fill="#4b7efc"/>
        <g id="Group_53590" data-name="Group 53590" transform="translate(6 6)">
          <path id="Path_107100" data-name="Path 107100" d="M-60.442.8A2.5,2.5,0,0,1-58.57,0,2.627,2.627,0,0,1-56.7.758,2.664,2.664,0,0,1-56.654,4.5a2.5,2.5,0,0,1-1.872.8A2.673,2.673,0,0,1-61.2,2.674,2.455,2.455,0,0,1-60.442.8Zm5.036,16.356a.756.756,0,0,1-.713.4h-2.763l-13.682-.089a.756.756,0,0,1-.713-.4.548.548,0,0,1,.045-.579l7.086-9.983,3.877,5.571L-60.4,9.493l4.991,7.086A.661.661,0,0,1-55.406,17.158Z" transform="translate(73.339 0)" fill="#fff"/>
          <path id="Path_128848" data-name="Path 128848" d="M-60.442.8A2.5,2.5,0,0,1-58.57,0,2.627,2.627,0,0,1-56.7.758,2.664,2.664,0,0,1-56.654,4.5a2.5,2.5,0,0,1-1.872.8A2.673,2.673,0,0,1-61.2,2.674,2.455,2.455,0,0,1-60.442.8Zm5.036,16.356a.756.756,0,0,1-.713.4h-2.763l-13.682-.089a.756.756,0,0,1-.713-.4.548.548,0,0,1,.045-.579l7.086-9.983,3.877,5.571L-60.4,9.493l4.991,7.086A.661.661,0,0,1-55.406,17.158Z" transform="translate(73.339 0)" fill="#fff"/>
        </g>
      </g>
    </g>
  </g>
</svg>
