<svg xmlns="http://www.w3.org/2000/svg" xmlns:xlink="http://www.w3.org/1999/xlink" width="34.457" height="38" viewBox="0 0 34.457 38">
  <defs>
    <linearGradient id="linear-gradient" x1="0.5" x2="0.5" y2="1" gradientUnits="objectBoundingBox">
      <stop offset="0" stop-color="#f8f8f8"/>
      <stop offset="1" stop-color="#f0f0f0"/>
    </linearGradient>
    <filter id="Path_168587" x="0" y="2.849" width="27.789" height="33.906" filterUnits="userSpaceOnUse">
      <feOffset dy="1" input="SourceAlpha"/>
      <feGaussianBlur stdDeviation="0.5" result="blur"/>
      <feFlood flood-color="#323a45" flood-opacity="0.2"/>
      <feComposite operator="in" in2="blur"/>
      <feComposite in="SourceGraphic"/>
    </filter>
    <filter id="Union_695" x="4.224" y="8.425" width="19.36" height="20.76" filterUnits="userSpaceOnUse">
      <feOffset dy="1" input="SourceAlpha"/>
      <feGaussianBlur stdDeviation="0.5" result="blur-2"/>
      <feFlood flood-color="#323a45" flood-opacity="0.2"/>
      <feComposite operator="in" in2="blur-2"/>
      <feComposite in="SourceGraphic"/>
    </filter>
    <filter id="Subtraction_1" x="0" y="30.433" width="27.789" height="6.323" filterUnits="userSpaceOnUse">
      <feOffset dy="1" input="SourceAlpha"/>
      <feGaussianBlur stdDeviation="0.5" result="blur-3"/>
      <feFlood flood-color="#323a45" flood-opacity="0.2"/>
      <feComposite operator="in" in2="blur-3"/>
      <feComposite in="SourceGraphic"/>
    </filter>
    <clipPath id="clip-path">
      <rect id="Rectangle_47417" data-name="Rectangle 47417" width="20.136" height="24.375" fill="red"/>
    </clipPath>
    <linearGradient id="linear-gradient-2" x1="0.831" x2="0.772" y2="1" gradientUnits="objectBoundingBox">
      <stop offset="0" stop-color="#23b536"/>
      <stop offset="1" stop-color="#008a62"/>
    </linearGradient>
    <filter id="Path_169248" x="15.559" y="20.265" width="15.002" height="14.354" filterUnits="userSpaceOnUse">
      <feOffset dy="1" input="SourceAlpha"/>
      <feGaussianBlur stdDeviation="0.5" result="blur-4"/>
      <feFlood flood-opacity="0.2"/>
      <feComposite operator="in" in2="blur-4"/>
      <feComposite in="SourceGraphic"/>
    </filter>
    <filter id="Path_169256" x="17.668" y="12.584" width="18.648" height="18.649" filterUnits="userSpaceOnUse">
      <feOffset dy="1" input="SourceAlpha"/>
      <feGaussianBlur stdDeviation="0.5" result="blur-5"/>
      <feFlood flood-opacity="0.2"/>
      <feComposite operator="in" in2="blur-5"/>
      <feComposite in="SourceGraphic"/>
    </filter>
  </defs>
  <g id="Group_91407" data-name="Group 91407" transform="translate(-12480.543 981)">
    <rect id="Rectangle_46983" data-name="Rectangle 46983" width="34" height="38" transform="translate(12481 -981)" fill="none"/>
    <g id="Group_91288" data-name="Group 91288" transform="translate(-209.959 -240.493)">
      <g transform="matrix(1, 0, 0, 1, 12690.5, -740.51)" filter="url(#Path_168587)">
        <path id="Path_168587-2" data-name="Path 168587" d="M3.015,2h18.76A3.015,3.015,0,0,1,24.79,5.015V29.892a3.015,3.015,0,0,1-3.015,3.015H3.015A3.015,3.015,0,0,1,0,29.892V5.015A3.015,3.015,0,0,1,3.015,2Z" transform="translate(1.5 1.35)" fill="url(#linear-gradient)"/>
      </g>
      <g transform="matrix(1, 0, 0, 1, 12690.5, -740.51)" filter="url(#Union_695)">
        <path id="Union_695-2" data-name="Union 695" d="M.841,17.759a.841.841,0,0,1,0-1.682H5.324a.841.841,0,0,1,0,1.682Zm0-4.115a.841.841,0,0,1,0-1.682H9.48a.841.841,0,0,1,0,1.682Zm0-3.924a.841.841,0,0,1,0-1.682H12.5a.841.841,0,0,1,0,1.682Zm0-4.115a.841.841,0,1,1,0-1.682H15.52a.841.841,0,1,1,0,1.682Zm0-3.925A.841.841,0,1,1,.842,0H15.52a.841.841,0,1,1,0,1.682Z" transform="translate(5.72 8.93)" fill="#fff"/>
      </g>
      <g transform="matrix(1, 0, 0, 1, 12690.5, -740.51)" filter="url(#Subtraction_1)">
        <path id="Subtraction_1-2" data-name="Subtraction 1" d="M21.775,3.322H3.014A3.018,3.018,0,0,1,0,.308V.075A3.011,3.011,0,0,0,.921,2.132a3,3,0,0,0,2.094.848h18.76A3.025,3.025,0,0,0,24.789,0V.308A3.018,3.018,0,0,1,21.775,3.322Z" transform="translate(1.5 30.93)" fill="#fff"/>
      </g>
      <g id="Mask_Group_1477" data-name="Mask Group 1477" transform="translate(12704.023 -730.627)" clip-path="url(#clip-path)">
        <g id="push-pin_1_" data-name="push-pin (1)" transform="matrix(0.985, -0.174, 0.174, 0.985, 2.331, 6.134)">
          <g transform="matrix(0.98, 0.17, -0.17, 0.98, -12.83, -18.52)" filter="url(#Path_169248)">
            <g id="Path_169248-2" data-name="Path 169248" transform="matrix(0.98, -0.21, 0.21, 0.98, 17.06, 22.9)" fill="url(#linear-gradient-2)">
              <path d="M 0.2571300864219666 9.325127601623535 C 0.1969300806522369 9.325118064880371 0.1389500796794891 9.29091739654541 0.1128500774502754 9.240017890930176 C 0.09196007996797562 9.199297904968262 0.0963100790977478 9.15784740447998 0.1257800757884979 9.11680793762207 L 1.024230122566223 7.865987777709961 C 1.837010025978088 6.734407901763916 2.778589963912964 5.674637794494629 3.822800159454346 4.716127872467041 L 8.812464714050293 0.1357461661100388 L 10.11950302124023 1.335591435432434 L 5.142509937286377 5.904307842254639 C 4.098010063171387 6.863117694854736 2.943240165710449 7.727677822113037 1.710270047187805 8.473958015441895 L 0.3476000726222992 9.298677444458008 C 0.3186000883579254 9.316227912902832 0.2881600856781006 9.325127601623535 0.2571300864219666 9.325127601623535 Z" stroke="none"/>
              <path d="M 0.2571251690387726 9.225127220153809 C 0.269820511341095 9.225124359130859 0.2824849486351013 9.221194267272949 0.2958200871944427 9.213128089904785 L 1.658490061759949 8.388407707214355 C 2.885810136795044 7.645547866821289 4.035250186920166 6.784987926483154 5.074880123138428 5.83063793182373 L 9.971630096435547 1.335581064224243 L 8.812469482421875 0.271484762430191 L 3.890429973602295 4.789797782897949 C 2.851240158081055 5.743687629699707 1.914240121841431 6.798297882080078 1.105450034141541 7.924327850341797 L 0.2070100754499435 9.175137519836426 C 0.1982300728559494 9.18736743927002 0.1995800733566284 9.190008163452148 0.2018300741910934 9.194387435913086 C 0.209568664431572 9.209494590759277 0.2323704212903976 9.22512149810791 0.2571251690387726 9.225127220153809 M 0.257111519575119 9.42512321472168 C 0.07258950173854828 9.425093650817871 -0.07825933396816254 9.229499816894531 0.04456007853150368 9.058477401733398 L 0.9430100917816162 7.807647705078125 C 1.761430025100708 6.668217658996582 2.703670024871826 5.607667922973633 3.75518012046814 4.642457485198975 L 8.812470436096191 -2.303314204255003e-06 L 10.26737976074219 1.335587739944458 L 5.210130214691162 5.977977752685547 C 4.15861988067627 6.943227767944336 3.003309965133667 7.808207511901855 1.762050032615662 8.559507369995117 L 0.399380087852478 9.384227752685547 C 0.3523672819137573 9.412678718566895 0.3036863505840302 9.425130844116211 0.257111519575119 9.42512321472168 Z" stroke="none" fill="#fff"/>
            </g>
          </g>
          <g transform="matrix(0.98, 0.17, -0.17, 0.98, -12.83, -18.52)" filter="url(#Path_169256)">
            <g id="Path_169256-2" data-name="Path 169256" transform="matrix(0.98, -0.17, 0.17, 0.98, 19.17, 15.43)" fill="url(#linear-gradient-2)">
              <path d="M 7.476808547973633 13.40897178649902 L 7.476578712463379 13.40897178649902 C 7.37756872177124 13.40897178649902 7.284068584442139 13.37008190155029 7.213218688964844 13.29947185516357 L 0.2096985131502151 6.295421600341797 C 0.1256185173988342 6.211341857910156 0.08701851963996887 6.09572172164917 0.1038085147738457 5.978201866149902 C 0.1205085143446922 5.861281871795654 0.1893085241317749 5.761741638183594 0.2925785183906555 5.705101490020752 C 1.492198467254639 5.053041458129883 2.574038505554199 4.877211570739746 3.270288467407227 4.844561576843262 C 3.302628517150879 4.843071460723877 3.33504843711853 4.842331886291504 3.367358446121216 4.842331886291504 C 3.931238412857056 4.842331886291504 4.462628364562988 5.062331676483154 4.863638401031494 5.461791515350342 L 4.98676872253418 5.585031509399414 L 5.055208683013916 5.653541564941406 L 5.12587833404541 5.587321758270264 L 8.877058982849121 2.072681665420532 L 8.952338218688965 2.002151727676392 L 8.879498481750488 1.929101705551147 L 8.771448135375977 1.820741653442383 C 8.607438087463379 1.656811714172363 8.517178535461426 1.438401699066162 8.517178535461426 1.205621600151062 C 8.517178535461426 0.9728516340255737 8.607428550720215 0.7544716596603394 8.771318435668945 0.5907216668128967 L 9.007838249206543 0.3538916707038879 C 9.171158790588379 0.1901516616344452 9.389458656311035 0.1000016555190086 9.62254810333252 0.1000016555190086 C 9.855678558349609 0.1000016555190086 10.07422828674316 0.1901816576719284 10.23793888092041 0.3539316654205322 L 13.15309810638428 3.271211624145508 C 13.31683826446533 3.434081554412842 13.40703868865967 3.651821613311768 13.40729808807373 3.884531736373901 C 13.40756893157959 4.118081569671631 13.31730842590332 4.337031841278076 13.15315818786621 4.501051425933838 L 12.91665840148926 4.737761497497559 C 12.75379848480225 4.900671482086182 12.53567886352539 4.990401744842529 12.30250835418701 4.990401744842529 C 12.06936836242676 4.990401744842529 11.85137844085693 4.900681495666504 11.68870830535889 4.737781524658203 L 11.5793285369873 4.628411769866943 L 11.50627899169922 4.555361747741699 L 11.43563842773438 4.630751609802246 L 7.9208984375 8.382251739501953 L 7.854778289794922 8.452831268310547 L 7.923108577728271 8.521271705627441 L 8.047258377075195 8.645631790161133 C 8.467398643493652 9.065661430358887 8.691658973693848 9.645551681518555 8.662628173828125 10.23666191101074 C 8.630428314208984 10.93349170684814 8.455248832702637 12.01560211181641 7.803468704223633 13.2151517868042 C 7.738768577575684 13.33477210998535 7.613638401031494 13.40897178649902 7.476808547973633 13.40897178649902 Z" stroke="none"/>
              <path d="M 7.476808547973633 13.3089714050293 C 7.576868534088135 13.3089714050293 7.668298721313477 13.25485134124756 7.715608596801758 13.16740131378174 C 8.358318328857422 11.98453140258789 8.531018257141113 10.91841125488281 8.562748908996582 10.23176193237305 C 8.590398788452148 9.668781280517578 8.376768112182617 9.116461753845215 7.976488590240479 8.716281890869141 L 7.715678691864014 8.455031394958496 L 11.50392818450928 4.411601543426514 L 11.75946807861328 4.667121887207031 C 11.90325832366943 4.81110143661499 12.09610843658447 4.890401840209961 12.30250835418701 4.890401840209961 C 12.50895881652832 4.890401840209961 12.70195865631104 4.811071872711182 12.84591865539551 4.667081832885742 L 13.08247852325439 4.430311679840088 C 13.22768878936768 4.285221576690674 13.30753898620605 4.091431617736816 13.30729866027832 3.884641647338867 C 13.30706882476807 3.678701639175415 13.22733879089355 3.486101627349854 13.08236885070801 3.341901540756226 L 10.16721820831299 0.424631655216217 C 10.02239894866943 0.2797816693782806 9.828968048095703 0.2000016570091248 9.62254810333252 0.2000016570091248 C 9.416218757629395 0.2000016570091248 9.223068237304688 0.2797216475009918 9.078588485717773 0.4245616495609283 L 8.841998100280762 0.6614616513252258 C 8.697018623352051 0.8063216805458069 8.617178916931152 0.9995816349983215 8.617178916931152 1.205621600151062 C 8.617178916931152 1.411681652069092 8.697028160095215 1.604971647262573 8.842258453369141 1.750131607055664 L 9.095998764038086 2.004591703414917 L 5.052918434143066 5.792721748352051 L 4.793058395385742 5.532631874084473 C 4.410918712615967 5.151971817016602 3.904598474502563 4.942331790924072 3.367358446121216 4.942331790924072 C 3.336568593978882 4.942331790924072 3.305678606033325 4.943041801452637 3.274978399276733 4.944451808929443 C 2.589178562164307 4.976611614227295 1.523298501968384 5.149961471557617 0.3406685292720795 5.792771816253662 C 0.2652585208415985 5.834141731262207 0.2150085121393204 5.906881809234619 0.2027985155582428 5.9923415184021 C 0.1905085146427155 6.078401565551758 0.2187985181808472 6.163101673126221 0.2804185152053833 6.224711894989014 L 7.28381872177124 13.22865200042725 C 7.335788726806641 13.28044128417969 7.404218673706055 13.3089714050293 7.476518630981445 13.3089714050293 L 7.476808547973633 13.3089714050293 M 7.476806163787842 13.50897216796875 C 7.357573986053467 13.50874710083008 7.236767768859863 13.46413040161133 7.14262866973877 13.37030124664307 L 0.1389885246753693 6.366131782531738 C -0.08431148529052734 6.142831802368164 -0.03092148154973984 5.768481731414795 0.2444885224103928 5.617421627044678 C 1.436408519744873 4.969551563262939 2.513498544692993 4.779941558837891 3.265608549118042 4.744671821594238 C 3.888047933578491 4.716061115264893 4.492688655853271 4.951121807098389 4.934208393096924 5.390941619873047 L 5.05750846862793 5.514351844787598 L 8.808688163757324 1.999711632728577 L 8.700638771057129 1.891351699829102 C 8.322688102722168 1.513601660728455 8.322688102722168 0.8976216316223145 8.700638771057129 0.5199816823005676 L 8.937078475952148 0.283231645822525 C 9.31375789642334 -0.09440761804580688 9.931117057800293 -0.09440904855728149 10.30865859985352 0.283231645822525 L 13.22383880615234 3.200531721115112 C 13.60178852081299 3.576471567153931 13.60178852081299 4.194151878356934 13.22383880615234 4.571791648864746 L 12.98739814758301 4.808441638946533 C 12.61155891418457 5.18438196182251 11.99335861206055 5.18438196182251 11.61794853210449 4.808441638946533 L 11.50861835479736 4.699121475219727 L 7.993878364562988 8.450621604919434 L 8.11802864074707 8.574981689453125 C 8.557848930358887 9.014691352844238 8.793008804321289 9.620611190795898 8.762508392333984 10.2415714263916 C 8.727758407592773 10.99356174468994 8.537928581237793 12.0728816986084 7.891338348388672 13.26289176940918 C 7.804531574249268 13.42338371276855 7.641104698181152 13.50897216796875 7.476806163787842 13.50897216796875 Z" stroke="none" fill="#fff"/>
            </g>
          </g>
          <path id="Path_169255" data-name="Path 169255" d="M0,0Z" transform="translate(5.298 8.159)" fill="#fec458"/>
        </g>
      </g>
    </g>
  </g>
</svg>
