<svg xmlns="http://www.w3.org/2000/svg" width="30" height="30" viewBox="0 0 30 30">
  <g id="Group_86964" data-name="Group 86964" transform="translate(-1371 -11095)">
    <path id="Path_157666" data-name="Path 157666" d="M15,30c14.884,0,15-6.716,15-15S29.884,0,15,0,0,6.716,0,15,.116,30,15,30Z" transform="translate(1371 11095)" fill="#323a45"/>
    <path id="Subtraction_2" data-name="Subtraction 2" d="M-3763-5901.015c-1.61,0-2.9-.012-3.3-.029a5.907,5.907,0,0,1-1.941-.371,3.977,3.977,0,0,1-1.417-.922,3.954,3.954,0,0,1-.925-1.42,5.885,5.885,0,0,1-.371-1.941c-.039-.851-.048-1.134-.048-3.3,0-2.184.009-2.442.051-3.3a5.933,5.933,0,0,1,.371-1.941,3.989,3.989,0,0,1,.922-1.417,3.92,3.92,0,0,1,1.42-.925,5.891,5.891,0,0,1,1.942-.371c.852-.039,1.135-.047,3.3-.047s2.433.008,3.3.049a5.957,5.957,0,0,1,1.941.373,3.99,3.99,0,0,1,1.417.922,3.908,3.908,0,0,1,.925,1.419,5.9,5.9,0,0,1,.373,1.941c.037.85.04,1.127.04,3.3,0,2.2-.011,2.458-.048,3.3a5.875,5.875,0,0,1-.371,1.941,4.1,4.1,0,0,1-2.342,2.342,5.881,5.881,0,0,1-1.941.371C-3760.095-5901.027-3761.39-5901.015-3763-5901.015Zm.111-12.093A4.115,4.115,0,0,0-3767-5909a4.116,4.116,0,0,0,4.111,4.112,4.117,4.117,0,0,0,4.112-4.112A4.116,4.116,0,0,0-3762.889-5913.108Zm4.274-1.123a.961.961,0,0,0-.959.961.961.961,0,0,0,.959.959.961.961,0,0,0,.961-.959A.962.962,0,0,0-3758.615-5914.231Zm-4.274,7.9a2.669,2.669,0,0,1-2.666-2.667,2.669,2.669,0,0,1,2.666-2.667,2.67,2.67,0,0,1,2.667,2.667A2.67,2.67,0,0,1-3762.889-5906.331Z" transform="translate(5149 17019)" fill="#fff"/>
  </g>
</svg>
