<svg xmlns="http://www.w3.org/2000/svg" width="16" height="16" viewBox="0 0 16 16">
  <g id="Group_70189" data-name="Group 70189" transform="translate(4811 -5957)">
    <path id="Path_132914" data-name="Path 132914" d="M0,0H16V16H0Z" transform="translate(-4811 5957)" fill="none"/>
    <path id="Path_132913" data-name="Path 132913" d="M4819.225-5942.732h-6.488a2.54,2.54,0,0,1-1.41-.469,1.366,1.366,0,0,1-.565.188h-2.726a1.044,1.044,0,0,1-1.035-1.035v-7.429a1.029,1.029,0,0,1,1.035-.94h2.726a1.345,1.345,0,0,1,.565.188,7.081,7.081,0,0,0,1.127-.658,2.168,2.168,0,0,0,1.035-1.881v-2.633a.687.687,0,0,1,.564-.658,2.556,2.556,0,0,1,2.445.375,2.581,2.581,0,0,1,1.129,2.445v1.975h2.915a2.811,2.811,0,0,1,1.412.47,2.55,2.55,0,0,1,1.033,2.352l-.845,5.359a2.652,2.652,0,0,1-2.634,2.351Zm-7.616-1.41a1.556,1.556,0,0,0,1.127.47h6.488a1.735,1.735,0,0,0,1.975-1.5l.845-5.359a1.978,1.978,0,0,0-.564-1.6,1.587,1.587,0,0,0-.94-.282h-3.855v-2.916a2.131,2.131,0,0,0-.658-1.691,2.117,2.117,0,0,0-1.5-.188v2.445a3.121,3.121,0,0,1-1.5,2.633,5.789,5.789,0,0,1-1.317.658l-.658.187v6.663Zm-3.668.094,2.445.082v-7.6h-2.351Z" transform="translate(-9618 11915.464)" fill="#4b7efc"/>
  </g>
</svg>
