<svg xmlns="http://www.w3.org/2000/svg" width="22.222" height="22.222" viewBox="0 0 22.222 22.222"><defs><style>.a{fill:none;}.b{fill:#0077b5;}</style></defs><g transform="translate(0)"><rect class="a" width="22.222" height="22.222"/><g transform="translate(1.111 1.667)"><path class="b" d="M20,21.139v7.308H15.713V21.628c0-1.713-.62-2.882-2.172-2.882a2.343,2.343,0,0,0-2.2,1.55,2.868,2.868,0,0,0-.142,1.033v7.118H6.912S6.97,16.9,6.912,15.7H11.2v1.807c-.009.014-.02.028-.028.041H11.2v-.041A4.265,4.265,0,0,1,15.064,15.4C17.885,15.4,20,17.224,20,21.139ZM2.426,9.558a2.211,2.211,0,1,0-.057,4.4H2.4a2.212,2.212,0,1,0,.028-4.4ZM.255,28.447H4.541V15.7H.255Z" transform="translate(0 -9.558)"/></g></g></svg>