<svg width="26" height="26" viewBox="0 0 26 26" fill="none" xmlns="http://www.w3.org/2000/svg">
<path d="M18.7202 6.24023H7.28017C6.76017 6.24023 6.31445 6.68595 6.31445 7.20595V18.7202C6.31445 19.2402 6.76017 19.6859 7.28017 19.6859H18.6459C19.1659 19.6859 19.6116 19.2402 19.6116 18.7202V7.20595C19.6859 6.68595 19.2402 6.24023 18.7202 6.24023ZM10.4002 17.5317H8.39445V11.4402H10.4002V17.5317ZM9.36017 10.6231C8.6916 10.6231 8.24588 10.1774 8.24588 9.58309C8.24588 8.98881 8.6916 8.54309 9.36017 8.54309C10.0287 8.54309 10.4745 8.98881 10.4745 9.58309C10.4745 10.1774 10.0287 10.6231 9.36017 10.6231ZM17.6802 17.5317H15.6002V14.2631C15.6002 13.4459 15.303 12.9259 14.5602 12.9259C13.9659 12.9259 13.6687 13.2974 13.5202 13.6688C13.4459 13.8174 13.4459 13.9659 13.4459 14.1888V17.6059H11.4402C11.4402 17.6059 11.4402 12.1088 11.4402 11.5145H13.4459V12.4059C13.743 11.9602 14.1887 11.4402 15.303 11.4402C16.6402 11.4402 17.6059 12.3317 17.6059 14.1888V17.5317H17.6802Z" fill="white"/>
</svg>
