<svg xmlns="http://www.w3.org/2000/svg" width="151.935" height="9.448" viewBox="0 0 151.935 9.448">
  <path id="Path_171371" data-name="Path 171371" d="M92.022,0h-.791L78.773.134c-.791,0-1.582,0-2.373.022C74.649.2,72.869.268,71.089.312l-7.147.2L61.372.58c-.339,0-.678,0-1.017.022-3.588.178-7.2.379-10.791.557l-5,.267c-.932.045-1.836.134-2.768.2-3.729.267-7.486.534-11.215.824-.452.045-.933.089-1.384.134l-2.768.267a1.451,1.451,0,0,1-.311.022c-1.78.089-3.588.178-5.4.29-1.384.089-2.74.156-4.1.223-.169,0-.311.022-.48.022-.65.022-12.571,1.315-13.193,1.337-.311,0-.649.023-.96.045l-.65.067c-.113.022-.254.045-.367.067-.141.044-.254.089-.4.133a1.035,1.035,0,0,0-.537.557.731.731,0,0,0,0,.49,1.159,1.159,0,0,0,1.13.691c.65-.022,1.328-.067,2.006-.111.593-.044,1.215-.067,1.808-.111l3.983-.267c.706-.045,1.441-.111,2.175-.156.791-.067,1.61-.111,2.4-.178l5.593-.534c3.389-.312,6.751-.647,10.141-.959.876-.022,1.723-.022,2.6-.045,3.249-.044,6.5-.089,9.746-.156,1.752-.022,3.5-.022,5.255-.045,1.328-.022,2.627-.022,3.955-.044L71.57,3.922l4.322-.067c.452.022.876.045,1.3.045,2.147.044,4.265.111,6.413.156l3.588.134c1.977.067,3.983.156,5.989.223,1.328.044,2.683.111,4.011.178,2.006.111,3.983.2,5.989.29,1.384.067,2.769.111,4.153.178l3.39.134c.452,0,.875.022,1.328.044,1.921.045,3.842.111,5.763.178.622,0,1.215.045,1.808.067.791.045,1.554.067,2.316.111,1.638.089,3.305.178,4.944.29l2.853.2,1.695.134a.351.351,0,0,0,.339.223,5.642,5.642,0,0,1,.621-.045,1.2,1.2,0,0,0,.565-.089c.141-.089.226-.2.169-.334a.352.352,0,0,0-.254-.2c-.311-.044-.65-.111-.989-.134-.254-.044-.537-.067-.791-.089l-1.356-.133c-1.554-.134-3.136-.268-4.69-.379l-5.4-.334c-.622-.022-1.215-.067-1.808-.089-1.045-.023-2.062-.067-3.107-.111-1.328-.045-2.655-.089-3.983-.156-3.334-.156-6.639-.312-9.944-.49l-3.983-.2h14.887c3.334,0,6.7.022,10.029.045l3.842.067c1.554.022,3.108.045,4.661.089l10.113.267,5.367.134c.763.022,1.526.022,2.288.045.4,0,.791.022,1.187.022a5.365,5.365,0,0,1,.621.023,3.537,3.537,0,0,0,.48.022c.113,0,.2-.022.311-.022a1.141,1.141,0,0,0,.48-.111.639.639,0,0,1,.17-.089A.845.845,0,0,0,151.8,3.12a.983.983,0,0,0-.791-.624c-.508-.09-1.017-.2-1.554-.268-.452-.067-.932-.111-1.412-.156l-1.808-.134c-.9-.067-1.78-.111-2.655-.178-1.384-.089-2.768-.156-4.153-.245-3.249-.2-6.469-.356-9.718-.513-2.966-.156-5.9-.29-8.87-.4-3.305-.111-6.582-.245-9.887-.334C108.718.2,106.458.156,104.2.09c-.424,0-.819-.023-1.243-.023h-1.723C98.915.045,96.6.045,94.282.022,93.576,0,92.87,0,92.022,0Zm14.633,2.051c-2.147.022-4.266.022-6.413.022-3.475,0-6.978.022-10.452.044q-4.632.039-9.265.112l-9.153.134L62.163,2.5c1.836-.045,3.7-.111,5.537-.156l6.865-.2c.876-.022,1.723-.067,2.6-.067l12.063-.134c.932,0,1.893-.022,2.853-.022,1.977,0,3.954.023,5.932.023,1.667,0,3.305.022,4.972.022.424.022.876.022,1.328.044C105.074,2.006,105.836,2.029,106.656,2.051Z" transform="translate(0.119) rotate(1)" fill="#22b339"/>
</svg>
