<svg xmlns="http://www.w3.org/2000/svg" width="230.07" height="10.013" viewBox="0 0 230.07 10.013">
  <g id="underline-2" transform="translate(0.105 0) rotate(1)">
    <path id="Path_170510" data-name="Path 170510" d="M139.391,0h-1.2L119.322.118c-1.2,0-2.4,0-3.595.02-2.653.039-5.349.1-8.044.137L96.857.453,92.963.512c-.513,0-1.027,0-1.54.019-5.434.157-10.912.335-16.346.492L67.5,1.259c-1.412.04-2.781.118-4.193.178-5.648.236-11.34.472-16.988.727l-2.1.118-4.193.236a3.746,3.746,0,0,1-.471.02c-2.7.079-5.434.157-8.173.256-2.1.079-4.15.137-6.2.2-.257,0-.471.02-.728.02-.984.019-19.042,1.16-19.983,1.18-.471,0-.984.02-1.455.04l-.984.059c-.171.02-.385.04-.556.059-.214.039-.385.079-.6.118a1.4,1.4,0,0,0-.813.492.4.4,0,0,0,0,.433A2.094,2.094,0,0,0,1.776,6c.984-.02,2.011-.059,3.038-.1.9-.039,1.84-.059,2.739-.1l6.034-.236c1.07-.04,2.182-.1,3.295-.138,1.2-.059,2.439-.1,3.637-.157L28.991,4.8c5.134-.275,10.227-.571,15.362-.846,1.327-.02,2.61-.02,3.937-.04q7.381-.059,14.763-.137c2.653-.02,5.306-.02,7.959-.04,2.011-.019,3.98-.019,5.991-.039l31.409-.236,6.547-.059c.685.02,1.327.04,1.969.04,3.252.039,6.461.1,9.714.137l5.434.118c3,.059,6.033.137,9.072.2,2.011.039,4.065.1,6.076.157,3.038.1,6.034.177,9.072.256,2.1.059,4.194.1,6.291.157l5.135.118c.685,0,1.326.02,2.011.039,2.91.04,5.819.1,8.729.157.942,0,1.84.04,2.739.059,1.2.04,2.353.059,3.509.1,2.482.079,5.006.157,7.488.256l4.322.177,2.567.118a.6.6,0,0,0,.514.2c.3-.02.642-.04.941-.04a3.006,3.006,0,0,0,.856-.079c.214-.079.342-.178.257-.3a.564.564,0,0,0-.385-.177c-.471-.039-.984-.1-1.5-.118-.385-.039-.813-.059-1.2-.079l-2.054-.118c-2.353-.118-4.75-.236-7.1-.335l-8.173-.295c-.942-.02-1.84-.059-2.739-.079-1.583-.02-3.124-.059-4.707-.1-2.011-.04-4.022-.079-6.033-.138C162.712,3.7,157.706,3.56,152.7,3.4l-6.033-.177h22.551c5.05,0,10.142.02,15.191.04l5.819.059c2.354.02,4.707.04,7.061.079l15.319.236,8.13.118c1.155.02,2.311.02,3.466.04.6,0,1.2.019,1.8.019.342,0,.641,0,.941.02.257.019.471.019.728.019.171,0,.3-.02.471-.02a2.794,2.794,0,0,0,.727-.1,1.315,1.315,0,0,1,.257-.079c.685-.2,1.027-.551.813-.9a1.559,1.559,0,0,0-1.2-.55c-.77-.079-1.54-.178-2.353-.236-.685-.059-1.412-.1-2.139-.137l-2.739-.118c-1.369-.059-2.7-.1-4.022-.157-2.1-.079-4.193-.138-6.29-.217-4.921-.177-9.8-.314-14.72-.452-4.493-.137-8.943-.256-13.436-.354-5.007-.1-9.97-.216-14.977-.295-3.38-.059-6.8-.1-10.227-.157-.642,0-1.241-.02-1.883-.02h-2.61C149.832.04,146.323.04,142.815.02c-1.07-.02-2.14-.02-3.423-.02Zm22.166,1.81c-3.252.02-6.462.02-9.714.02-5.263,0-10.569.02-15.833.039q-7.017.034-14.035.1l-13.865.118L94.161,2.2c2.781-.04,5.605-.1,8.387-.138l10.4-.177c1.327-.02,2.61-.059,3.937-.059l18.272-.118c1.412,0,2.867-.02,4.322-.02,3,0,5.99.02,8.986.02,2.525,0,5.006.019,7.531.019.642.02,1.327.02,2.011.039C159.161,1.77,160.316,1.79,161.557,1.81Z" transform="translate(0 0)" fill="#22b339"/>
  </g>
</svg>
