<svg xmlns="http://www.w3.org/2000/svg" xmlns:xlink="http://www.w3.org/1999/xlink" width="34.168" height="38" viewBox="0 0 34.168 38"><defs><style>.a{fill:none;}.b{fill:url(#a);}.c{fill:#fff;}.d{fill:url(#f);}.e,.f{stroke:none;}.f{fill:#fff;}.g{filter:url(#i);}.h{filter:url(#g);}.i{filter:url(#d);}.j{filter:url(#b);}</style><linearGradient id="a" x1="0.5" x2="0.5" y2="1" gradientUnits="objectBoundingBox"><stop offset="0" stop-color="#f8f8f8"/><stop offset="1" stop-color="#f0f0f0"/></linearGradient><filter id="b" x="0.5" y="2" width="30.668" height="35.755" filterUnits="userSpaceOnUse"><feOffset dy="1" input="SourceAlpha"/><feGaussianBlur stdDeviation="0.5" result="c"/><feFlood flood-color="#323a45" flood-opacity="0.2"/><feComposite operator="in" in2="c"/><feComposite in="SourceGraphic"/></filter><filter id="d" x="4.703" y="7.55" width="22.277" height="20.674" filterUnits="userSpaceOnUse"><feOffset dy="1" input="SourceAlpha"/><feGaussianBlur stdDeviation="0.5" result="e"/><feFlood flood-color="#323a45" flood-opacity="0.2"/><feComposite operator="in" in2="e"/><feComposite in="SourceGraphic"/></filter><linearGradient id="f" x1="0.831" x2="0.772" y2="1" gradientUnits="objectBoundingBox"><stop offset="0" stop-color="#23b536"/><stop offset="1" stop-color="#008a62"/></linearGradient><filter id="g" x="17.342" y="9.222" width="16.826" height="26.901" filterUnits="userSpaceOnUse"><feOffset dy="1" input="SourceAlpha"/><feGaussianBlur stdDeviation="0.5" result="h"/><feFlood flood-opacity="0.2"/><feComposite operator="in" in2="h"/><feComposite in="SourceGraphic"/></filter><filter id="i" x="0.5" y="31.449" width="30.668" height="6.306" filterUnits="userSpaceOnUse"><feOffset dy="1" input="SourceAlpha"/><feGaussianBlur stdDeviation="0.5" result="j"/><feFlood flood-color="#323a45" flood-opacity="0.2"/><feComposite operator="in" in2="j"/><feComposite in="SourceGraphic"/></filter></defs><g transform="translate(-12481 981)"><rect class="a" width="34" height="38" transform="translate(12481 -981)"/><g transform="translate(-209.002 -239.341)"><g class="j" transform="matrix(1, 0, 0, 1, 12690, -741.66)"><path class="b" d="M3,0H24.668a3,3,0,0,1,3,3V29.755a3,3,0,0,1-3,3H3a3,3,0,0,1-3-3V3A3,3,0,0,1,3,0Z" transform="translate(2 2.5)"/></g><g class="i" transform="matrix(1, 0, 0, 1, 12690, -741.66)"><path class="c" d="M-12649.164,756.834A.837.837,0,0,1-12650,756a.837.837,0,0,1,.838-.838h6.464a.837.837,0,0,1,.838.838.838.838,0,0,1-.838.838Zm0-4.1a.837.837,0,0,1-.838-.838.836.836,0,0,1,.838-.835h9.6a.837.837,0,0,1,.838.835.837.837,0,0,1-.838.838Zm0-3.9A.837.837,0,0,1-12650,748a.837.837,0,0,1,.838-.838h14.6a.838.838,0,0,1,.838.838.838.838,0,0,1-.838.838Zm0-4.1a.839.839,0,0,1-.838-.838.838.838,0,0,1,.838-.835h17.6a.836.836,0,0,1,.835.835.836.836,0,0,1-.835.838Zm0-3.9A.839.839,0,0,1-12650,740a.838.838,0,0,1,.838-.835h17.6a.836.836,0,0,1,.835.835.836.836,0,0,1-.835.838Z" transform="translate(12656.21 -731.11)"/></g><g class="h" transform="matrix(1, 0, 0, 1, 12690, -741.66)"><g class="d" transform="translate(-35.28 6.39)"><path class="e" d="M 56.34564590454102 27.13704490661621 L 54.52830505371094 27.13704490661621 C 54.41499710083008 27.13704490661621 54.31436538696289 27.07754516601562 54.25912475585938 26.97787475585938 C 54.20607757568359 26.88216590881348 54.20729446411133 26.77240562438965 54.26238632202148 26.68426513671875 L 56.43112564086914 23.11223602294922 L 56.47598648071289 23.03835487365723 L 56.40937423706055 22.98327445983887 C 54.94339752197266 21.77102470397949 54.69597625732422 19.84580612182617 55.67397689819336 17.26109504699707 C 55.6967658996582 17.20415496826172 55.74257659912109 17.1832447052002 55.77761459350586 17.1832447052002 C 55.79793548583984 17.1832447052002 55.82717514038086 17.18995475769043 55.85116577148438 17.2219352722168 L 57.66968536376953 19.55095481872559 L 57.89467620849609 19.83909606933594 L 57.84767532348633 19.47655487060547 L 57.17898178100586 14.31807899475098 C 57.17922592163086 14.29102420806885 57.18107604980469 14.2730541229248 57.18449401855469 14.26456642150879 L 57.18996429443359 14.25909519195557 L 57.19617462158203 14.24893569946289 C 57.84228515625 13.19166564941406 58.64445495605469 12.05796527862549 59.58039474487305 10.87935543060303 C 59.6082763671875 10.84224510192871 59.64902496337891 10.83847522735596 59.66533660888672 10.83847522735596 C 59.70085525512695 10.83847522735596 59.74558639526367 10.85473537445068 59.75474548339844 10.90055561065674 L 59.75563430786133 10.90499496459961 L 59.75692749023438 10.90934562683105 L 60.52212524414062 13.4918851852417 L 60.71624755859375 13.4821252822876 L 61.66785430908203 8.470338821411133 C 61.68096542358398 8.45256233215332 61.68922424316406 8.436042785644531 61.69583511352539 8.422815322875977 C 61.70239639282227 8.409695625305176 61.70486450195312 8.405095100402832 61.708984375 8.400975227355957 C 64.392333984375 5.473834991455078 66.96624755859375 3.4361252784729 67.59988403320312 3.4361252784729 C 67.62860870361328 3.4361252784729 67.64300537109375 3.441515207290649 67.64902496337891 3.444735288619995 C 67.72882843017578 3.488255262374878 67.86145782470703 3.839605331420898 67.84717559814453 4.877535343170166 C 67.8345947265625 5.79148530960083 67.71193695068359 6.989205360412598 67.50179290771484 8.250075340270996 L 67.50043487548828 8.258234977722168 L 67.50043487548828 8.266514778137207 C 67.50043487548828 8.286519050598145 67.49555206298828 8.293600082397461 67.46872711181641 8.320556640625 L 63.64591598510742 11.56994533538818 L 63.35539627075195 11.81687545776367 L 63.72970581054688 11.74430561065674 L 66.84384155273438 11.14054679870605 C 66.89649963378906 11.14287185668945 66.94606018066406 11.16638851165771 66.97471618652344 11.20308494567871 C 66.98701477050781 11.21883487701416 67.00022888183594 11.24343490600586 66.99329376220703 11.271164894104 C 66.70840454101562 12.63189506530762 66.33382415771484 14.0445556640625 65.87909698486328 15.4736852645874 L 65.8743896484375 15.48847484588623 L 65.8743896484375 15.4920597076416 C 65.86785125732422 15.50072860717773 65.85469055175781 15.51413631439209 65.84403991699219 15.52481651306152 L 61.41679763793945 19.02839469909668 L 61.12732696533203 19.25748443603516 L 61.49284744262695 19.20583534240723 L 64.42609405517578 18.79135513305664 L 64.42892456054688 18.79095458984375 L 64.43172454833984 18.79039573669434 C 64.43889617919922 18.78895568847656 64.44603729248047 18.7882251739502 64.45295715332031 18.7882251739502 C 64.48514556884766 18.7882251739502 64.51439666748047 18.80416488647461 64.533203125 18.83193588256836 C 64.55411529541016 18.86282539367676 64.55774688720703 18.90209579467773 64.54328155517578 18.94000816345215 C 63.46797561645508 21.25506782531738 61.66227722167969 24.01322555541992 59.16455459594727 24.01322555541992 C 58.70414733886719 24.01322555541992 58.22924423217773 23.91874504089355 57.75306701660156 23.7324161529541 L 57.66342544555664 23.69733428955078 L 57.62495422363281 23.78557586669922 C 57.06708526611328 25.06542587280273 56.74374771118164 26.38750457763672 56.6306266784668 26.89652442932129 L 56.63004684448242 26.89913558959961 L 56.62960433959961 26.90177536010742 C 56.60615539550781 27.04249572753906 56.49203491210938 27.13704490661621 56.34564590454102 27.13704490661621 Z"/><path class="f" d="M 67.59983825683594 3.536125183105469 L 67.59986877441406 3.536125183105469 C 67.0589599609375 3.536125183105469 64.58609008789062 5.410764694213867 61.78718185424805 8.463804244995117 L 61.78527450561523 8.467535018920898 C 61.77981185913086 8.478464126586914 61.7725830078125 8.492921829223633 61.76224899291992 8.509300231933594 L 60.81449508666992 13.50079345703125 L 60.42624664306641 13.52030372619629 L 59.66121673583984 10.93832588195801 L 59.65870666503906 10.94154357910156 C 58.72526550292969 12.11700439453125 57.92545318603516 13.247314453125 57.281494140625 14.30108451843262 L 57.27924346923828 14.30476379394531 C 57.27915191650391 14.3071403503418 57.27909088134766 14.30961608886719 57.27904510498047 14.31204032897949 L 58.04083251953125 20.18877410888672 L 55.77436065673828 17.28609466552734 C 55.77208709716797 17.28824996948242 55.76947021484375 17.29163360595703 55.76750946044922 17.29648399353027 C 55.30735778808594 18.51260375976562 55.11830902099609 19.58856391906738 55.20562744140625 20.49447441101074 C 55.30039215087891 21.47768402099609 55.72683715820312 22.28910446166992 56.47309875488281 22.90620422363281 L 56.60631561279297 23.01636505126953 L 54.34718322753906 26.73726463317871 C 54.31165313720703 26.79412460327148 54.31143951416016 26.86594390869141 54.34660339355469 26.92940521240234 C 54.36453247070312 26.96176528930664 54.41815948486328 27.03704452514648 54.52830505371094 27.03704452514648 L 56.34564971923828 27.03704452514648 C 56.44286346435547 27.03704452514648 56.51560974121094 26.97750473022461 56.53095245361328 26.88534355163574 L 56.53299713134766 26.87482452392578 C 56.64676666259766 26.36295509338379 56.97196960449219 25.03336334228516 57.53328704833984 23.74561309814453 L 57.61021423339844 23.56912422180176 L 57.78950500488281 23.63928413391113 C 58.25403594970703 23.82105445861816 58.71666717529297 23.91322326660156 59.16455459594727 23.91322326660156 C 61.60819625854492 23.91322326660156 63.38745880126953 21.18982315063477 64.45069885253906 18.90194320678711 C 64.45337677001953 18.89346504211426 64.45149993896484 18.88941383361816 64.45114135742188 18.88848876953125 L 64.44008636474609 18.89036560058594 L 60.77579498291016 19.40814399719238 L 65.77728271484375 15.45013427734375 C 65.77945709228516 15.44793510437012 65.78166198730469 15.44569396972656 65.78375244140625 15.44354152679443 L 65.78380584716797 15.44336414337158 C 66.23675537109375 14.01980209350586 66.60997009277344 12.61282730102539 66.89308929443359 11.26139068603516 C 66.88604736328125 11.25441360473633 66.87100982666016 11.24449920654297 66.84927368164062 11.24135208129883 L 63.00011444091797 11.98761367797852 L 67.40093994140625 8.246917724609375 L 67.40315246582031 8.233634948730469 C 67.88473510742188 5.344158172607422 67.76934814453125 3.749055862426758 67.60059356689453 3.536127090454102 C 67.60034942626953 3.536125183105469 67.60009765625 3.536125183105469 67.59983825683594 3.536125183105469 M 67.59988403320312 3.336128234863281 C 67.63829040527344 3.336130142211914 67.67048645019531 3.342840194702148 67.69609069824219 3.356494903564453 C 68.04679870605469 3.547794342041016 68.04679870605469 5.588314056396484 67.60043334960938 8.266513824462891 C 67.60043334960938 8.33027458190918 67.56854248046875 8.362163543701172 67.53666687011719 8.394044876098633 L 63.71067428588867 11.64613342285156 L 66.83523559570312 11.04035377502441 C 66.99465942382812 11.04035377502441 67.12218475341797 11.16788482666016 67.09030151367188 11.29541397094727 C 66.80335998535156 12.66639518737793 66.42076110839844 14.10114479064941 65.97438049316406 15.50400447845459 C 65.97438049316406 15.5358943939209 65.9425048828125 15.56777381896973 65.91062927246094 15.59965419769287 L 61.47885513305664 19.10681533813477 L 64.412109375 18.69233322143555 C 64.57151794433594 18.66045570373535 64.69905853271484 18.81986236572266 64.63529968261719 18.97928428649902 C 62.97736740112305 22.55020141601562 60.6498908996582 24.97333908081055 57.71662902832031 23.82553482055664 C 57.17461395263672 25.06898498535156 56.85578918457031 26.34431457519531 56.72823333740234 26.91821479797363 C 56.69636535644531 27.1095142364502 56.53694915771484 27.23704528808594 56.34564971923828 27.23704528808594 L 54.52830505371094 27.23704528808594 C 54.20947265625 27.23704528808594 54.01817321777344 26.88632392883301 54.17758941650391 26.63126373291016 L 56.34564971923828 23.06033325195312 C 54.68771362304688 21.68936538696289 54.68771362304688 19.58506393432617 55.5804443359375 17.22570419311523 C 55.64421081542969 17.06628036499023 55.83550262451172 17.03440856933594 55.93116760253906 17.16193389892578 L 57.74850463867188 19.48941421508789 L 57.07896423339844 14.3243236541748 C 57.07896423339844 14.29244422912598 57.07896423339844 14.22867393493652 57.11083221435547 14.1967945098877 C 57.81226348876953 13.04899406433105 58.6412467956543 11.90120506286621 59.5020866394043 10.81716346740723 C 59.59773635864258 10.68964004516602 59.8209228515625 10.72152328491211 59.85280609130859 10.88093376159668 L 60.61800765991211 13.4634838104248 L 61.57450485229492 8.425924301147461 C 61.60638427734375 8.394044876098633 61.60638427734375 8.362163543701172 61.63826751708984 8.33027458190918 C 64.29380798339844 5.433320999145508 66.92076873779297 3.336084365844727 67.59988403320312 3.336128234863281 Z"/></g></g><g class="g" transform="matrix(1, 0, 0, 1, 12690, -741.66)"><path class="c" d="M24.668,33.755H3a3,3,0,0,1-3-3v-.232a3.007,3.007,0,0,0,3,2.89H24.668a3.011,3.011,0,0,0,3-2.965v.307A3,3,0,0,1,24.668,33.755Z" transform="translate(2 1.5)"/></g></g></g></svg>