<svg xmlns="http://www.w3.org/2000/svg" width="30" height="30" viewBox="0 0 30 30">
  <g id="Performance" transform="translate(-379 -4110)">
    <rect id="Rectangle_18452" data-name="Rectangle 18452" width="30" height="30" transform="translate(379 4110)" fill="none"/>
    <path id="Path_111001" data-name="Path 111001" d="M-2890.885-4022.829a2.388,2.388,0,0,1-1.122-.275,14.863,14.863,0,0,0-7-1.735,14.875,14.875,0,0,0-7,1.735,2.484,2.484,0,0,1-1.134.275,2.515,2.515,0,0,1-1.628-.6,15.187,15.187,0,0,1-4.068-5.566,14.881,14.881,0,0,1-1.135-6.779,14.905,14.905,0,0,1,4.729-9.987,14.955,14.955,0,0,1,10.229-4.037c.323,0,.652.011.974.031a15.041,15.041,0,0,1,9.586,4.326,15.024,15.024,0,0,1,4.406,9.55,14.982,14.982,0,0,1-5.2,12.463A2.534,2.534,0,0,1-2890.885-4022.829Zm-.623-5.126a.63.63,0,0,0-.441.177.641.641,0,0,0,0,.882l1.323,1.322a.624.624,0,0,0,.441.177.624.624,0,0,0,.441-.177.638.638,0,0,0,0-.881l-1.322-1.324A.632.632,0,0,0-2891.508-4027.956Zm-7.159-19.324c-.3,0-.6.021-.9.039l-.021,0a6.991,6.991,0,0,0-1.308.162l-.074.014a6.116,6.116,0,0,0-.936.222h0c-.155.045-.314.09-.47.131-.164.065-.333.129-.5.191l0,0c-.3.115-.611.234-.91.364a12.277,12.277,0,0,0-4.909,4.087,9.271,9.271,0,0,0-.75,1.2l-.015.027c-.029.052-.059.1-.089.157-.057.115-.115.239-.172.359l0,.005,0,0c-.058.123-.118.25-.177.368a5.653,5.653,0,0,0-.293.734l-.264.735-.177.764a8.8,8.8,0,0,0-.146.923c-.026.212-.052.43-.088.637a12.1,12.1,0,0,0,3.38,9.581l.264.266a.53.53,0,0,0,.366.146.279.279,0,0,0,.192-.058.5.5,0,0,0,.031-.677l-.237-.264a10.66,10.66,0,0,1-2.291-3.881,10.375,10.375,0,0,1-.47-4.937c.029-.146.052-.295.074-.438a5.436,5.436,0,0,1,.19-.884l.177-.676.264-.676a4.3,4.3,0,0,1,.294-.646c.041-.081.077-.161.114-.235.068-.144.131-.277.209-.412.122-.159.231-.332.336-.5l0,0a4.655,4.655,0,0,1,.485-.675,10.159,10.159,0,0,1,2-2.029,11.209,11.209,0,0,1,3.616-1.791c.161-.033.316-.073.465-.113h0a4.112,4.112,0,0,1,.764-.151l.07-.01a7.81,7.81,0,0,1,1.106-.109c.133,0,.269,0,.377-.006h.006c.117,0,.239-.005.359-.005.141,0,.26,0,.375.011a13.979,13.979,0,0,1,1.88.294,12.227,12.227,0,0,1,2.264.853l.294.146.029.029.029.029a1.017,1.017,0,0,0,.464.11,1.1,1.1,0,0,0,.977-.609,1.08,1.08,0,0,0-.5-1.44,12.178,12.178,0,0,0-5.379-1.352C-2898.412-4047.276-2898.533-4047.28-2898.667-4047.28Zm8.857,17.125a.651.651,0,0,0-.551.317.59.59,0,0,0-.065.45.664.664,0,0,0,.3.4l1.617.94a.572.572,0,0,0,.3.083.654.654,0,0,0,.553-.318.653.653,0,0,0-.236-.853l-1.617-.94A.594.594,0,0,0-2889.81-4030.154Zm1.029-2.525a.64.64,0,0,0-.611.461.633.633,0,0,0,.441.765l1.823.469a.574.574,0,0,0,.154.021.641.641,0,0,0,.611-.461.647.647,0,0,0-.092-.527.478.478,0,0,0-.349-.208l-1.823-.5A.565.565,0,0,0-2888.781-4032.679Zm-.963-12.083a.66.66,0,0,0-.47.2l-9.847,8.7a1.462,1.462,0,0,0,0,2,1.533,1.533,0,0,0,1.1.477,1.421,1.421,0,0,0,.981-.388l8.7-9.848a.658.658,0,0,0,0-.941A.661.661,0,0,0-2889.744-4044.762Zm1.322,9.311a.642.642,0,0,0-.617.618.619.619,0,0,0,.617.618h1.882a.618.618,0,0,0,.617-.618.6.6,0,0,0-.617-.618Zm1.464-3.227a.662.662,0,0,0-.17.023l-1.823.47a.641.641,0,0,0-.441.765.642.642,0,0,0,.611.461.585.585,0,0,0,.154-.021l1.823-.5a.634.634,0,0,0,.441-.765A.609.609,0,0,0-2886.958-4038.678Zm-1.262-3.028a.668.668,0,0,0-.319.083l-1.617.94a.629.629,0,0,0-.235.853.652.652,0,0,0,.552.317.583.583,0,0,0,.3-.082l1.617-.942a.609.609,0,0,0,.3-.376.6.6,0,0,0-.068-.475A.587.587,0,0,0-2888.22-4041.707Z" transform="translate(3292.999 8161.297)" fill="#4b7efc"/>
  </g>
</svg>
