<svg xmlns="http://www.w3.org/2000/svg" xmlns:xlink="http://www.w3.org/1999/xlink" width="100" height="100" viewBox="0 0 100 100"><defs><style>.a{fill:#fff;}.b{clip-path:url(#a);}.c{fill:url(#b);}.d{clip-path:url(#e);}.e{filter:url(#f);}.f{filter:url(#c);}</style><clipPath id="a"><rect class="a" width="100" height="100"/></clipPath><linearGradient id="b" x1="0.5" x2="0.5" y2="1" gradientUnits="objectBoundingBox"><stop offset="0" stop-color="#ffd971"/><stop offset="1" stop-color="#f9b700"/></linearGradient><filter id="c" x="3" y="5" width="100" height="100" filterUnits="userSpaceOnUse"><feOffset dx="3" dy="5" input="SourceAlpha"/><feGaussianBlur stdDeviation="10" result="d"/><feFlood flood-color="#fb0" flood-opacity="0.502"/><feComposite operator="in" in2="d"/><feComposite in="SourceGraphic"/></filter><clipPath id="e"><rect class="a" width="24.987" height="24.987" transform="translate(0 0)"/></clipPath><filter id="f" x="26.959" y="31.387" width="54.083" height="57.227" filterUnits="userSpaceOnUse"><feOffset dx="3" dy="10" input="SourceAlpha"/><feGaussianBlur stdDeviation="7.5" result="g"/><feFlood flood-color="#e4a700"/><feComposite operator="in" in2="g"/><feComposite in="SourceGraphic"/></filter></defs><g class="b"><g transform="translate(30 30)"><g class="f" transform="matrix(1, 0, 0, 1, -30, -30)"><path class="c" d="M20,0A20,20,0,1,1,0,20,20,20,0,0,1,20,0Z" transform="translate(30 30)"/></g><g class="d" transform="translate(7.5 7.5)"><g class="e" transform="matrix(1, 0, 0, 1, -37.5, -37.5)"><path class="a" d="M.2,12.182a.382.382,0,0,1-.2-.337V.381A.382.382,0,0,1,.2.044.374.374,0,0,1,.591.067L8.917,5.8h0a.385.385,0,0,1,0,.632L.591,12.16a.374.374,0,0,1-.389.022Z" transform="translate(46.46 43.89)"/></g></g></g></g></svg>