<svg xmlns="http://www.w3.org/2000/svg" xmlns:xlink="http://www.w3.org/1999/xlink" width="70" height="70" viewBox="0 0 70 70"><defs><style>.a{fill:#fff;stroke:#707070;}.b{clip-path:url(#a);}.c,.d{stroke:#fff;stroke-width:0.5px;}.c{fill:url(#b);}.d{fill:url(#e);}.e{fill:url(#h);}.f{filter:url(#f);}.g{filter:url(#c);}</style><clipPath id="a"><rect class="a" width="70" height="70" transform="translate(-5294.667 7687.771)"/></clipPath><linearGradient id="b" x1="0.5" x2="0.5" y2="0.914" gradientUnits="objectBoundingBox"><stop offset="0" stop-color="#f8f8f8"/><stop offset="1" stop-color="#dcdcdc"/></linearGradient><filter id="c" x="5.665" y="11.244" width="55.907" height="17.449" filterUnits="userSpaceOnUse"><feOffset dy="1" input="SourceAlpha"/><feGaussianBlur stdDeviation="0.5" result="d"/><feFlood flood-color="#323a45" flood-opacity="0.149"/><feComposite operator="in" in2="d"/><feComposite in="SourceGraphic"/></filter><linearGradient id="e" x1="0.5" x2="0.5" y2="1" gradientUnits="objectBoundingBox"><stop offset="0" stop-color="#f8f8f8"/><stop offset="1" stop-color="#f0f0f0"/></linearGradient><filter id="f" x="3.248" y="22.996" width="60.728" height="39.74" filterUnits="userSpaceOnUse"><feOffset dy="1" input="SourceAlpha"/><feGaussianBlur stdDeviation="0.5" result="g"/><feFlood flood-color="#323a45" flood-opacity="0.149"/><feComposite operator="in" in2="g"/><feComposite in="SourceGraphic"/></filter><linearGradient id="h" x1="0.5" x2="0.5" y2="1" gradientUnits="objectBoundingBox"><stop offset="0" stop-color="#4086e5"/><stop offset="1" stop-color="#2160b5"/></linearGradient></defs><g class="b" transform="translate(5294.667 -7687.771)"><g transform="translate(-5291.029 7692.711)"><g class="g" transform="matrix(1, 0, 0, 1, -3.64, -4.94)"><path class="c" d="M0,13.943V1.8A1.771,1.771,0,0,1,1.8,0H13.162A1.587,1.587,0,0,1,14.3.421l6.911,5.89H50.6a1.771,1.771,0,0,1,1.8,1.8v5.83H47.5l0,.006Z" transform="translate(7.41 11.99)"/></g><g class="f" transform="matrix(1, 0, 0, 1, -3.64, -4.94)"><path class="d" d="M56.746,152.555a1.864,1.864,0,0,0-1.322-.541H1.815a1.864,1.864,0,0,0-1.322.541,1.593,1.593,0,0,0-.481,1.322l1.8,32.694a1.785,1.785,0,0,0,1.8,1.683h50a1.785,1.785,0,0,0,1.8-1.683l1.8-32.694A2.1,2.1,0,0,0,56.746,152.555Z" transform="translate(5 -128.27)"/></g><path class="e" d="M.012,33.085A5.6,5.6,0,0,1,.693,29.94a5.889,5.889,0,0,1,2.531-2.617A7.043,7.043,0,0,1,6.6,26.7c4.182,0,7,3.413,8.837,6.591,1.673,2.677,3.346,5.186,6.022,5.186,5.186,0,7.026-3.179,7.361-5.019H27.316a2.573,2.573,0,0,1-2.509-2.509V28.44A7.607,7.607,0,0,0,21.8,22.417a9.113,9.113,0,0,1-3.68-7.361V10.874a2.573,2.573,0,0,1,2.509-2.509h2.509V.836a.836.836,0,1,1,1.673,0V8.365H34.844V.836a.836.836,0,1,1,1.673,0V8.365h2.509a2.573,2.573,0,0,1,2.509,2.509v4.182a9.113,9.113,0,0,1-3.68,7.361,7.606,7.606,0,0,0-3.011,6.022v2.509a2.573,2.573,0,0,1-2.509,2.509H30.662c-.5,2.844-3.011,6.692-9.2,6.692-3.68,0-5.521-3.011-7.528-6.022A35.758,35.758,0,0,0,11.275,30.3a6.913,6.913,0,0,0-1.142-1.047,4.364,4.364,0,0,0-2.023-.976,4.983,4.983,0,0,0-2.281-.087,5.512,5.512,0,0,0-1.452.385,5.231,5.231,0,0,0-2.53,2.583,3.52,3.52,0,0,0-.051,2.89c-.321.458-.391.528-.876,1.251A3.1,3.1,0,0,1,.012,33.085Z" transform="matrix(0.574, 0.819, -0.819, 0.574, 40.637, -2.467)"/></g></g></svg>