<svg xmlns="http://www.w3.org/2000/svg" xmlns:xlink="http://www.w3.org/1999/xlink" width="36" height="38" viewBox="0 0 36 38"><defs><style>.a{fill:none;}.b{fill:url(#a);}.c{fill:url(#m);}.d,.e{stroke:none;}.e{fill:#fff;}.f{filter:url(#n);}.g{filter:url(#k);}.h{filter:url(#h);}.i{filter:url(#e);}.j{filter:url(#b);}</style><linearGradient id="a" x1="0.831" x2="0.772" y2="1" gradientUnits="objectBoundingBox"><stop offset="0" stop-color="#23b536"/><stop offset="1" stop-color="#008a62"/></linearGradient><filter id="b" x="24.75" y="2" width="11.25" height="11.25" filterUnits="userSpaceOnUse"><feOffset dy="1" input="SourceAlpha"/><feGaussianBlur stdDeviation="0.5" result="c"/><feFlood flood-opacity="0.2"/><feComposite operator="in" in2="c"/><feComposite in="SourceGraphic"/></filter><filter id="e" x="26.813" y="14.375" width="9.187" height="9.188" filterUnits="userSpaceOnUse"><feOffset dy="1" input="SourceAlpha"/><feGaussianBlur stdDeviation="0.5" result="f"/><feFlood flood-opacity="0.2"/><feComposite operator="in" in2="f"/><feComposite in="SourceGraphic"/></filter><filter id="h" x="8.25" y="2" width="15.375" height="15.375" filterUnits="userSpaceOnUse"><feOffset dy="1" input="SourceAlpha"/><feGaussianBlur stdDeviation="0.5" result="i"/><feFlood flood-opacity="0.2"/><feComposite operator="in" in2="i"/><feComposite in="SourceGraphic"/></filter><filter id="k" x="0" y="8.188" width="29.813" height="29.813" filterUnits="userSpaceOnUse"><feOffset dy="1" input="SourceAlpha"/><feGaussianBlur stdDeviation="0.5" result="l"/><feFlood flood-opacity="0.2"/><feComposite operator="in" in2="l"/><feComposite in="SourceGraphic"/></filter><linearGradient id="m" x1="0.5" x2="0.5" y2="1" gradientUnits="objectBoundingBox"><stop offset="0" stop-color="#f8f8f8"/><stop offset="1" stop-color="#f0f0f0"/></linearGradient><filter id="n" x="18.007" y="9.695" width="10.297" height="10.299" filterUnits="userSpaceOnUse"><feOffset dy="1" input="SourceAlpha"/><feGaussianBlur stdDeviation="0.5" result="o"/><feFlood flood-color="#323a45" flood-opacity="0.2"/><feComposite operator="in" in2="o"/><feComposite in="SourceGraphic"/></filter></defs><g transform="translate(-12480 981)"><rect class="a" width="34" height="38" transform="translate(12481 -981)"/><g transform="translate(12481.5 -978.5)"><g class="j" transform="matrix(1, 0, 0, 1, -1.5, -2.5)"><g class="b" transform="translate(-340.1 2.5)"><path class="d" d="M 370.47802734375 7.333988666534424 C 370.1239624023438 5.738098621368408 368.8649291992188 4.479063510894775 367.26904296875 4.125008583068848 C 368.8649291992188 3.77095365524292 370.1239624023438 2.511918544769287 370.47802734375 0.9160283803939819 C 370.8320922851562 2.511918544769287 372.0911254882812 3.77095365524292 373.68701171875 4.125008583068848 C 372.0911254882812 4.479063510894775 370.8320922851562 5.738098621368408 370.47802734375 7.333988666534424 Z"/><path class="e" d="M 370.47802734375 6.948654651641846 C 370.9017028808594 5.608626365661621 371.9616394042969 4.54868745803833 373.3016662597656 4.125008583068848 C 371.9616394042969 3.701329946517944 370.9017028808594 2.641390800476074 370.47802734375 1.301362752914429 C 370.0543518066406 2.641390800476074 368.9944152832031 3.701329946517944 367.6543884277344 4.125008583068848 C 368.9944152832031 4.54868745803833 370.0543518066406 5.608626365661621 370.47802734375 6.948654651641846 M 370.47802734375 8.250018119812012 C 370.47802734375 5.971698760986328 368.6311340332031 4.125008583068848 366.35302734375 4.125008583068848 C 368.6311950683594 4.125008583068848 370.47802734375 2.27811861038208 370.47802734375 -1.416931127096177e-06 C 370.47802734375 2.278178691864014 372.3249206542969 4.125008583068848 374.60302734375 4.125008583068848 C 372.3248596191406 4.125008583068848 370.47802734375 5.971768379211426 370.47802734375 8.250018119812012 Z"/></g></g><g class="i" transform="matrix(1, 0, 0, 1, -1.5, -2.5)"><g class="b" transform="translate(-368.57 -168.3)"><path class="d" d="M 399.9767456054688 188.5690765380859 C 399.6879577636719 187.4452667236328 398.8012390136719 186.5585327148438 397.6774291992188 186.2697448730469 C 398.8006286621094 185.9811248779297 399.6869812011719 185.0952911376953 399.9762573242188 183.9723358154297 C 400.1163635253906 184.5207366943359 400.4014587402344 185.0236663818359 400.8121337890625 185.4343566894531 C 401.2228393554688 185.8450622558594 401.7257385253906 186.130126953125 402.2741394042969 186.2702484130859 C 401.1511840820312 186.5595092773438 400.265380859375 187.4458618164062 399.9767456054688 188.5690765380859 Z"/><path class="e" d="M 399.9758911132812 184.3090972900391 C 399.642578125 185.2160797119141 398.9211120605469 185.9370880126953 398.0138244628906 186.2697448730469 C 398.9219055175781 186.6026916503906 399.643798828125 187.3245849609375 399.9767456054688 188.2326812744141 C 400.3093872070312 187.3253784179688 401.0303955078125 186.6039123535156 401.9373779296875 186.2705841064453 C 401.4931030273438 186.1082305908203 401.0858764648438 185.8495025634766 400.7414245605469 185.5050659179688 C 400.3970031738281 185.16064453125 400.1382751464844 184.7533721923828 399.9758911132812 184.3090972900391 M 399.9767456054688 183.1759948730469 C 399.9767456054688 184.8846740722656 401.36181640625 186.2698059082031 403.0704650878906 186.2697448730469 C 401.3618774414062 186.2697448730469 399.9767456054688 187.6548156738281 399.9767456054688 189.3634948730469 C 399.9767456054688 187.6548767089844 398.5916748046875 186.2697448730469 396.8829956054688 186.2697448730469 C 398.5915832519531 186.2697448730469 399.9767456054688 184.8846130371094 399.9767456054688 183.1759948730469 Z"/></g></g><g class="h" transform="matrix(1, 0, 0, 1, -1.5, -2.5)"><g class="b" transform="translate(-112.37 2.5)"><path class="d" d="M 128.3054962158203 11.25441551208496 C 127.8411865234375 8.683966636657715 125.8090057373047 6.651788711547852 123.2385559082031 6.187478542327881 C 125.8090057373047 5.72316837310791 127.8411865234375 3.690990447998047 128.3054962158203 1.120541453361511 C 128.7698059082031 3.690990447998047 130.8019866943359 5.72316837310791 133.3724365234375 6.187478542327881 C 130.8019866943359 6.651788711547852 128.7698059082031 8.683966636657715 128.3054962158203 11.25441551208496 Z"/><path class="e" d="M 128.3054962158203 10.78611755371094 C 128.883056640625 8.538504600524902 130.6565246582031 6.765038013458252 132.9041290283203 6.187478542327881 C 130.6565246582031 5.60991907119751 128.883056640625 3.83645224571228 128.3054962158203 1.588839292526245 C 127.7279357910156 3.83645224571228 125.9544677734375 5.60991907119751 123.7068557739258 6.187478542327881 C 125.9544677734375 6.765038013458252 127.7279357910156 8.538504600524902 128.3054962158203 10.78611755371094 M 128.3054962158203 12.37495899200439 C 128.3054962158203 8.957748413085938 125.5352935791016 6.187478542327881 122.1180114746094 6.187478542327881 C 125.5352935791016 6.187478542327881 128.3054962158203 3.417278528213501 128.3054962158203 -1.457672169635771e-06 C 128.3054962158203 3.417268514633179 131.0756988525391 6.187478542327881 134.4929656982422 6.187478542327881 C 131.0756988525391 6.187478542327881 128.3054962158203 8.957688331604004 128.3054962158203 12.37495899200439 Z"/></g></g><g class="g" transform="matrix(1, 0, 0, 1, -1.5, -2.5)"><g class="b" transform="translate(1.5 -82.9)"><path class="d" d="M 4.12501049041748 118.2591094970703 L 0.1414204090833664 114.2755126953125 L 22.6875114440918 91.72942352294922 L 26.67110061645508 95.7130126953125 L 4.12501049041748 118.2591094970703 Z"/><path class="e" d="M 22.6875114440918 91.87083435058594 L 0.2828407287597656 114.2755126953125 L 4.125009536743164 118.1176834106445 L 26.5296802520752 95.7130126953125 L 22.6875114440918 91.87083435058594 M 22.6875114440918 91.58798980712891 L 26.81252098083496 95.7130126953125 L 4.125009536743164 118.400520324707 L 0 114.2755126953125 L 22.6875114440918 91.58798980712891 Z"/></g></g><g class="f" transform="matrix(1, 0, 0, 1, -1.5, -2.5)"><path class="c" d="M2.918,7.3h0L0,4.379,4.377,0,7.3,2.92,2.918,7.3Z" transform="translate(19.51 10.19)"/></g></g></g></svg>