<svg xmlns="http://www.w3.org/2000/svg" xmlns:xlink="http://www.w3.org/1999/xlink" width="62" height="62" viewBox="0 0 62 62"><defs><style>.a{fill:none;}.b{stroke:#fff;stroke-width:0.5px;fill:url(#a);}.c{fill:url(#d);}.d{fill:#fff;}.e{filter:url(#f);}.f{filter:url(#b);}</style><linearGradient id="a" x1="-0.066" y1="-0.526" x2="1" y2="1" gradientUnits="objectBoundingBox"><stop offset="0" stop-color="#f8f8f8"/><stop offset="1" stop-color="#dcdcdc"/></linearGradient><filter id="b" x="5.216" y="22.588" width="34.169" height="30.621" filterUnits="userSpaceOnUse"><feOffset dy="1" input="SourceAlpha"/><feGaussianBlur stdDeviation="0.5" result="c"/><feFlood flood-color="#323a45" flood-opacity="0.051"/><feComposite operator="in" in2="c"/><feComposite in="SourceGraphic"/></filter><linearGradient id="d" x1="0.5" x2="0.5" y2="1" gradientUnits="objectBoundingBox"><stop offset="0" stop-color="#4086e5"/><stop offset="1" stop-color="#2160b5"/></linearGradient><filter id="f" x="38.764" y="16.77" width="11.842" height="11.914" filterUnits="userSpaceOnUse"><feOffset dy="1" input="SourceAlpha"/><feGaussianBlur stdDeviation="0.5" result="g"/><feFlood flood-color="#323a45" flood-opacity="0.2"/><feComposite operator="in" in2="g"/><feComposite in="SourceGraphic"/></filter></defs><g transform="translate(-659 -355.092)"><rect class="a" width="62" height="62" transform="translate(659 355.092)"/><g transform="translate(665.966 363.258)"><g class="f" transform="matrix(1, 0, 0, 1, -6.97, -8.17)"><path class="b" d="M30.615,201.276H7.431a4.647,4.647,0,0,1,0-9.293h9.03a7.492,7.492,0,0,0,0-14.983H11.525a7.346,7.346,0,0,1,0,2.845h4.936a4.647,4.647,0,0,1,0,9.293H7.431a7.492,7.492,0,0,0,0,14.983H30.615a7.346,7.346,0,0,1,0-2.845Z" transform="translate(6.97 -153.66)"/></g><path class="c" d="M2180.055-1424.33a4.443,4.443,0,0,1,4.421-4.457,4.444,4.444,0,0,1,4.421,4.457,4.444,4.444,0,0,1-4.421,4.457A4.443,4.443,0,0,1,2180.055-1424.33Zm3.164-8.457c-7.829-12.8-9.184-15.719-9.184-18.852a10.5,10.5,0,0,1,10.441-10.526,10.5,10.5,0,0,1,10.441,10.526c0,3.134-1.354,6.053-9.184,18.852a1.394,1.394,0,0,1-1.257.776A1.394,1.394,0,0,1,2183.218-1432.787Zm-3.164-18.852a4.444,4.444,0,0,0,4.421,4.457,4.444,4.444,0,0,0,4.421-4.457,4.444,4.444,0,0,0-4.421-4.458A4.444,4.444,0,0,0,2180.055-1451.64Z" transform="translate(-2146.756 1465.201)"/><path class="c" d="M13.451,0H4.421A1.417,1.417,0,0,0,3.01,1.422v10.95a4.461,4.461,0,0,0,1.411,8.68,4.461,4.461,0,0,0,1.411-8.68V8.914h7.619a1.417,1.417,0,0,0,1.411-1.422V1.422A1.417,1.417,0,0,0,13.451,0Z" transform="translate(0)"/><g class="e" transform="matrix(1, 0, 0, 1, -6.97, -8.17)"><path class="d" d="M304.116,67.688a4.457,4.457,0,1,1,4.421-4.457A4.444,4.444,0,0,1,304.116,67.688Z" transform="translate(-259.43 -41.5)"/></g></g></g></svg>