<svg xmlns="http://www.w3.org/2000/svg" viewBox="0 0 24.001 24"><defs><style>.a{fill:none;}.b{fill:#323a45;}</style></defs><g transform="translate(-60 -19)"><rect class="a" width="24" height="24" transform="translate(60 19)"/><path class="b" d="M.5,20a.5.5,0,0,1-.5-.5V18a.5.5,0,0,1,.5-.5h11a.5.5,0,0,1,.5.5v1.5a.5.5,0,0,1-.5.5Zm0-8.751a.5.5,0,0,1-.5-.5V9.25a.5.5,0,0,1,.5-.5H18.7a.5.5,0,0,1,.5.5v1.5a.5.5,0,0,1-.5.5ZM.5,2.5A.5.5,0,0,1,0,2V.5A.5.5,0,0,1,.5,0h23a.5.5,0,0,1,.5.5V2a.5.5,0,0,1-.5.5Z" transform="translate(60.001 21)"/></g></svg>