<svg xmlns="http://www.w3.org/2000/svg" width="18.001" height="17.999" viewBox="0 0 18.001 17.999"><defs><style>.a{fill:none;}.b{fill:#fff;}</style></defs><g transform="translate(-60 -19)"><rect class="a" width="18" height="18" transform="translate(60 19)"/><path class="b" d="M.5,15a.5.5,0,0,1-.5-.5v-.875a.5.5,0,0,1,.5-.5h8a.5.5,0,0,1,.5.5V14.5a.5.5,0,0,1-.5.5Zm0-6.563a.5.5,0,0,1-.5-.5V7.062a.5.5,0,0,1,.5-.5H13.9a.5.5,0,0,1,.5.5v.875a.5.5,0,0,1-.5.5Zm0-6.562a.5.5,0,0,1-.5-.5V.5A.5.5,0,0,1,.5,0h17a.5.5,0,0,1,.5.5v.875a.5.5,0,0,1-.5.5Z" transform="translate(60.001 20.5)"/></g></svg>