<svg xmlns="http://www.w3.org/2000/svg" width="30" height="30" viewBox="0 0 30 30">
  <g id="SEO" transform="translate(-379 -4655)">
    <path id="Rectangle_2064" data-name="Rectangle 2064" d="M0,0H29.935V30H0Z" transform="translate(379.065 4655)" fill="none"/>
    <path id="Union_50" data-name="Union 50" d="M-13938.693,24.355a1.666,1.666,0,0,1-1.664-1.667V1.667A1.666,1.666,0,0,1-13938.693,0h3.926a1.665,1.665,0,0,1,1.66,1.667V22.69a1.665,1.665,0,0,1-1.66,1.667Zm-11.342,0a1.664,1.664,0,0,1-1.662-1.667V8.167a1.664,1.664,0,0,1,1.662-1.667h3.924a1.664,1.664,0,0,1,1.662,1.667V22.7a1.664,1.664,0,0,1-1.662,1.667Zm-11.34,0a1.664,1.664,0,0,1-1.662-1.667V14.653a1.664,1.664,0,0,1,1.662-1.667h3.922a1.665,1.665,0,0,1,1.664,1.667V22.69a1.665,1.665,0,0,1-1.664,1.667Z" transform="translate(14342.037 4657.833)" fill="#4b7efc"/>
  </g>
</svg>
