<svg width="26" height="26" viewBox="0 0 26 26" fill="none" xmlns="http://www.w3.org/2000/svg">
<path d="M8.83359 14.9012C8.83359 15.7406 8.15759 16.4166 7.31816 16.4166C6.47873 16.4166 5.80273 15.7406 5.80273 14.9012C5.80273 14.0617 6.47873 13.3857 7.31816 13.3857H8.83359V14.9012ZM9.59131 14.9012C9.59131 14.0617 10.2673 13.3857 11.1067 13.3857C11.9462 13.3857 12.6222 14.0617 12.6222 14.9012V18.6897C12.6222 19.5292 11.9462 20.2052 11.1067 20.2052C10.2673 20.2052 9.59131 19.5292 9.59131 18.6897V14.9012Z" fill="white"/>
<path d="M11.0985 8.8248C10.2591 8.8248 9.58311 8.1488 9.58311 7.30937C9.58311 6.46995 10.2591 5.79395 11.0985 5.79395C11.938 5.79395 12.614 6.46995 12.614 7.30937V8.8248H11.0985ZM11.0985 9.58995C11.938 9.58995 12.614 10.2659 12.614 11.1054C12.614 11.9448 11.938 12.6208 11.0985 12.6208H7.30254C6.46311 12.6208 5.78711 11.9448 5.78711 11.1054C5.78711 10.2659 6.46311 9.58995 7.30254 9.58995H11.0985Z" fill="white"/>
<path d="M17.1675 11.1054C17.1675 10.2659 17.8435 9.58995 18.6829 9.58995C19.5223 9.58995 20.1983 10.2659 20.1983 11.1054C20.1983 11.9448 19.5223 12.6208 18.6829 12.6208H17.1675V11.1054ZM16.4098 11.1054C16.4098 11.9448 15.7338 12.6208 14.8943 12.6208C14.0549 12.6208 13.3789 11.9448 13.3789 11.1054V7.30937C13.3789 6.46995 14.0549 5.79395 14.8943 5.79395C15.7338 5.79395 16.4098 6.46995 16.4098 7.30937V11.1054Z" fill="white"/>
<path d="M14.9021 17.1743C15.7416 17.1743 16.4176 17.8503 16.4176 18.6897C16.4176 19.5292 15.7416 20.2052 14.9021 20.2052C14.0627 20.2052 13.3867 19.5292 13.3867 18.6897V17.1743H14.9021ZM14.9021 16.4166C14.0627 16.4166 13.3867 15.7406 13.3867 14.9012C13.3867 14.0617 14.0627 13.3857 14.9021 13.3857H18.6981C19.5376 13.3857 20.2136 14.0617 20.2136 14.9012C20.2136 15.7406 19.5376 16.4166 18.6981 16.4166H14.9021Z" fill="white"/>
</svg>
