<svg xmlns="http://www.w3.org/2000/svg" viewBox="0 0 30 30">
  <defs>
    <style>
      .cls-1 {
        fill: none;
      }

      .cls-2 {
        fill: #323a45;
      }

      .cls-3 {
        fill: #fff;
      }
    </style>
  </defs>
  <g id="T" transform="translate(-4680 -2399)">
    <rect id="Rectangle_18695" data-name="Rectangle 18695" class="cls-1" width="30" height="30" transform="translate(4680 2399)"/>
    <path id="Path_111003" data-name="Path 111003" class="cls-2" d="M15,30c14.884,0,15-6.716,15-15S29.884,0,15,0,0,6.716,0,15,.116,30,15,30Z" transform="translate(4680 2399)"/>
    <g id="twitter-social-logotype" transform="translate(4687 2398.445)">
      <path id="Path_110999" data-name="Path 110999" class="cls-3" d="M15.981,10.605a.079.079,0,0,0-.093-.021,6.4,6.4,0,0,1-1.5.455,3.326,3.326,0,0,0,1.171-1.644.079.079,0,0,0-.116-.093,6.415,6.415,0,0,1-2,.77,3.333,3.333,0,0,0-5.665,2.966A9.181,9.181,0,0,1,1.244,9.677a.078.078,0,0,0-.068-.029.079.079,0,0,0-.062.039,3.333,3.333,0,0,0,.8,4.279A3.182,3.182,0,0,1,.754,13.59a.08.08,0,0,0-.118.068V13.7a3.34,3.34,0,0,0,2.34,3.181,3.2,3.2,0,0,1-1.107-.016.079.079,0,0,0-.091.1,3.329,3.329,0,0,0,2.89,2.3A6.4,6.4,0,0,1,.854,20.512a6.586,6.586,0,0,1-.766-.045A.081.081,0,0,0,0,20.519a.08.08,0,0,0,.032.094,9.29,9.29,0,0,0,5.025,1.473,9.236,9.236,0,0,0,9.326-9.327q0-.191-.008-.381A6.64,6.64,0,0,0,15.986,10.7.08.08,0,0,0,15.981,10.605Z"/>
    </g>
  </g>
</svg>
