<svg xmlns="http://www.w3.org/2000/svg" xmlns:xlink="http://www.w3.org/1999/xlink" width="70" height="70" viewBox="0 0 70 70"><defs><style>.a{fill:#fff;stroke:#707070;}.b{clip-path:url(#a);}.c{stroke:#fff;stroke-width:0.5px;fill:url(#b);}.d{fill:url(#e);}.e{filter:url(#c);}</style><clipPath id="a"><rect class="a" width="70" height="70" transform="translate(959.757 727.302)"/></clipPath><linearGradient id="b" x1="0.5" y1="-0.575" x2="0.5" y2="1" gradientUnits="objectBoundingBox"><stop offset="0" stop-color="#f8f8f8"/><stop offset="1" stop-color="#dcdcdc"/></linearGradient><filter id="c" x="10.425" y="11.405" width="49.113" height="49.218" filterUnits="userSpaceOnUse"><feOffset dy="1" input="SourceAlpha"/><feGaussianBlur stdDeviation="0.5" result="d"/><feFlood flood-color="#323a45" flood-opacity="0.149"/><feComposite operator="in" in2="d"/><feComposite in="SourceGraphic"/></filter><linearGradient id="e" x1="0.5" x2="0.5" y2="1" gradientUnits="objectBoundingBox"><stop offset="0" stop-color="#4086e5"/><stop offset="1" stop-color="#2160b5"/></linearGradient></defs><g class="b" transform="translate(-959.757 -727.302)"><g transform="translate(-1.826 -1.821)"><g transform="translate(973.757 741.303)"><g class="e" transform="matrix(1, 0, 0, 1, -12.17, -12.18)"><path class="c" d="M18740.178,5003.167a4.6,4.6,0,0,1,0-6.516l13.836-13.841,3.955,3.96a3.8,3.8,0,0,0,.65,4.464l-11.926,11.932a4.613,4.613,0,0,1-6.516,0Zm25.594-22.855a3.768,3.768,0,0,0-1.721.41l-3.975-3.969,3.338-3.338a10.829,10.829,0,0,1,11.9-14.454.988.988,0,0,1,.541,1.673l-2.281,2.282a4.763,4.763,0,0,0,6.736,6.737l2.281-2.282a.986.986,0,0,1,1.67.538,10.833,10.833,0,0,1-14.279,11.97l-1.543,1.537A3.745,3.745,0,0,0,18765.771,4980.312Z" transform="translate(-18726.65 -4946.64)"/></g><path class="d" d="M28.562,39.329a1.449,1.449,0,0,0-2.05,0l-.826.826L10.972,25.441l.688-.688a1.45,1.45,0,0,0-.165-2.192l-6-4.421a1.449,1.449,0,0,0-1.884.142L1.057,20.832a1.449,1.449,0,0,0-.142,1.884l4.421,6a1.449,1.449,0,0,0,2.192.165l.688-.688L22.93,42.911l-.884.884a1.449,1.449,0,0,0,0,2.05L35.62,59.419A4.607,4.607,0,0,0,42.136,52.9Z" transform="translate(-0.592 -15.074)"/></g></g></g></svg>