<svg width="26" height="26" viewBox="0 0 26 26" fill="none" xmlns="http://www.w3.org/2000/svg">
<path d="M13.3718 12.8512L15.6004 16.0455H14.6347L12.8518 13.4455L12.5547 12.9998L10.4004 9.9541H11.3661L13.0747 12.4798L13.3718 12.8512Z" fill="white"/>
<path d="M13.0006 5.79395C8.98921 5.79395 5.79492 9.06252 5.79492 12.9997C5.79492 16.9368 9.06349 20.2054 13.0006 20.2054C16.9378 20.2054 20.2064 16.9368 20.2064 12.9997C20.2064 9.06252 17.0121 5.79395 13.0006 5.79395ZM14.3378 16.4911L12.4806 13.8168L10.1778 16.4911H9.58349L12.2578 13.4454L9.58349 9.58252H11.5892L13.3721 12.1082L15.6006 9.58252H16.1949L13.6692 12.4797L16.4178 16.4911H14.3378Z" fill="white"/>
</svg>
