<svg xmlns="http://www.w3.org/2000/svg" width="22.222" height="22.222" viewBox="0 0 22.222 22.222"><defs><style>.a{fill:none;}.b{fill:#03aaff;}</style></defs><g transform="translate(0 0)"><rect class="a" width="22.222" height="22.222"/><g transform="translate(1.111 2.778)"><path class="b" d="M19.976,11.038a.1.1,0,0,0-.116-.027,7.867,7.867,0,0,1-1.875.582,4.253,4.253,0,0,0,1.463-2.1.1.1,0,0,0-.033-.11.1.1,0,0,0-.113-.008,7.911,7.911,0,0,1-2.495.985,4.135,4.135,0,0,0-3-1.3,4.215,4.215,0,0,0-4.162,4.258,4.383,4.383,0,0,0,.08.838,11.394,11.394,0,0,1-8.172-4.3.1.1,0,0,0-.085-.037.1.1,0,0,0-.078.05,4.333,4.333,0,0,0,1,5.472,3.915,3.915,0,0,1-1.452-.48.1.1,0,0,0-.1,0,.1.1,0,0,0-.05.086V15A4.262,4.262,0,0,0,3.72,19.064a3.908,3.908,0,0,1-1.383-.021.1.1,0,0,0-.093.032.1.1,0,0,0-.02.1,4.181,4.181,0,0,0,3.613,2.942,7.879,7.879,0,0,1-4.768,1.591,8.049,8.049,0,0,1-.957-.057.1.1,0,0,0-.105.066.1.1,0,0,0,.04.12A11.423,11.423,0,0,0,6.327,25.72c7.3,0,11.658-6.064,11.658-11.927q0-.245-.009-.488a8.41,8.41,0,0,0,2.008-2.145A.1.1,0,0,0,19.976,11.038Z" transform="translate(0 -9.053)"/></g></g></svg>