<svg xmlns="http://www.w3.org/2000/svg" xmlns:xlink="http://www.w3.org/1999/xlink" width="70" height="70" viewBox="0 0 70 70">
  <defs>
    <clipPath id="clip-path">
      <rect id="Rectangle_49472" data-name="Rectangle 49472" width="70" height="70" transform="translate(925 476)" fill="red"/>
    </clipPath>
    <linearGradient id="linear-gradient" x1="-0.001" y1="0.5" x2="1" y2="0.5" gradientUnits="objectBoundingBox">
      <stop offset="0" stop-color="#f8f8f8"/>
      <stop offset="1" stop-color="#f0f0f0"/>
    </linearGradient>
    <linearGradient id="linear-gradient-2" x1="-20.701" y1="8.205" x2="-20.701" y2="8.174" gradientUnits="objectBoundingBox">
      <stop offset="0" stop-color="#4086e5"/>
      <stop offset="1" stop-color="#2160b5"/>
    </linearGradient>
    <linearGradient id="linear-gradient-3" x1="0.209" y1="0.159" x2="0.861" y2="0.92" gradientUnits="objectBoundingBox">
      <stop offset="0" stop-color="#fff" stop-opacity="0.6"/>
      <stop offset="0.59" stop-color="#fff" stop-opacity="0.4"/>
      <stop offset="1" stop-color="#fff" stop-opacity="0.6"/>
    </linearGradient>
  </defs>
  <g id="Mask_Group_1479" data-name="Mask Group 1479" transform="translate(-925 -476)" clip-path="url(#clip-path)">
    <g id="Group_96291" data-name="Group 96291" transform="translate(0 -250)">
      <path id="Path_168908" data-name="Path 168908" d="M64.15,39.77H14a4.13,4.13,0,0,1-4.14-4.13h0V4.13A4.13,4.13,0,0,1,14,0H64.15a4.13,4.13,0,0,1,4.13,4.13h0v31.5a4.12,4.12,0,0,1-4.13,4.14Z" transform="translate(926 736.186)" fill="url(#linear-gradient)"/>
      <path id="Path_168908-2" data-name="Path 168908" d="M59.24,44.68H9a4.13,4.13,0,0,1-4.13-4.13h0V9A4.13,4.13,0,0,1,9,4.91H59.2A4.13,4.13,0,0,1,63.37,9h0V40.55a4.13,4.13,0,0,1-4.13,4.13Z" transform="translate(926 736.186)" fill="#e4e4e4"/>
      <path id="Path_168908-3" data-name="Path 168908" d="M54.33,49.59H4.13A4.13,4.13,0,0,1,0,45.46H0V14A4.13,4.13,0,0,1,4.13,9.82h50.2A4.13,4.13,0,0,1,58.46,14h0V45.5a4.13,4.13,0,0,1-4.13,4.13Z" transform="translate(926 736.186)" fill="url(#linear-gradient-2)"/>
      <path id="Path_169846" data-name="Path 169846" d="M30,42.18H28.5a1.289,1.289,0,0,0-.19,0A11.6,11.6,0,0,1,23.94,41a12.33,12.33,0,0,1-7-9.12c-.09-.48-.13-1-.19-1.44V28.79a11.61,11.61,0,0,1,1.42-4.92,12.25,12.25,0,0,1,10.49-6.59,11.45,11.45,0,0,1,6.35,1.43A12.23,12.23,0,0,1,41.63,29.2a11.56,11.56,0,0,1-1.44,6.38A12.3,12.3,0,0,1,31.4,42C30.93,42.08,30.44,42.12,30,42.18ZM26.9,25a.84.84,0,0,0-.79.89v7.62a.82.82,0,0,0,.41.78.78.78,0,0,0,.85-.07l6.11-3.81a.79.79,0,0,0,0-1.41l-6.09-3.8a4,4,0,0,0-.49-.2Z" transform="translate(926 736.186)" fill="url(#linear-gradient-3)"/>
    </g>
  </g>
</svg>
