<svg xmlns="http://www.w3.org/2000/svg" xmlns:xlink="http://www.w3.org/1999/xlink" width="100" height="100" viewBox="0 0 100 100"><defs><style>.a,.d{fill:#fff;}.a{stroke:#707070;}.b{clip-path:url(#a);}.c{fill:url(#b);}.e{filter:url(#e);}.f{filter:url(#c);}</style><clipPath id="a"><rect class="a" width="100" height="100" transform="translate(635 2002)"/></clipPath><linearGradient id="b" x1="0.5" x2="0.5" y2="1" gradientUnits="objectBoundingBox"><stop offset="0" stop-color="#f8c332"/><stop offset="1" stop-color="#ffa200"/></linearGradient><filter id="c" x="-3.403" y="24.936" width="73.776" height="69.564" filterUnits="userSpaceOnUse"><feOffset dy="3" input="SourceAlpha"/><feGaussianBlur stdDeviation="3" result="d"/><feFlood flood-opacity="0.102"/><feComposite operator="in" in2="d"/><feComposite in="SourceGraphic"/></filter><filter id="e" x="35.754" y="11" width="66.372" height="65.073" filterUnits="userSpaceOnUse"><feOffset dy="1" input="SourceAlpha"/><feGaussianBlur stdDeviation="2.5" result="f"/><feFlood flood-color="#323a45" flood-opacity="0.302"/><feComposite operator="in" in2="f"/><feComposite in="SourceGraphic"/></filter></defs><g class="b" transform="translate(-635 -2002)"><g transform="translate(-1 -1.504)"><g class="f" transform="matrix(1, 0, 0, 1, 636, 2003.5)"><path class="c" d="M367.44,219.9c-13.841.691-26.84,10.667-26.84,24.163a22.5,22.5,0,0,0,6.284,15.418,9.829,9.829,0,0,1-2.591,9.242,1.591,1.591,0,0,0-.346,1.749,1.622,1.622,0,0,0,1.49.993,17.842,17.842,0,0,0,12.33-4.988,36.629,36.629,0,0,0,11.228,1.749c14.511,0,26.84-10.667,27.358-22.629.562-12.287-9.609-25.674-25.674-25.674Z" transform="translate(-335 -188.96)"/></g><g class="e" transform="matrix(1, 0, 0, 1, 636, 2003.5)"><path class="d" d="M561.058,195.841a22.479,22.479,0,0,0,5.268-15.806c-.885-13.452-14.511-22.565-28.352-22.349l-3.217.216A25.43,25.43,0,0,0,515,169.088c14.834,1.1,24.12,13.863,23.58,25.631a20.714,20.714,0,0,1-4.124,11.207,31.081,31.081,0,0,0,5.118.108,37.135,37.135,0,0,0,11.077-2.483,17.783,17.783,0,0,0,12.632,4.167,1.624,1.624,0,0,0,.972-2.829A9.8,9.8,0,0,1,561.058,195.841Z" transform="translate(-471.75 -140.18)"/></g></g></g></svg>