<svg xmlns="http://www.w3.org/2000/svg" xmlns:xlink="http://www.w3.org/1999/xlink" width="70" height="70" viewBox="0 0 70 70"><defs><style>.a{fill:red;}.b{clip-path:url(#a);}.c,.g,.h{fill:none;}.d{fill:url(#b);}.e{fill:url(#e);}.f{fill:#fff;}.g{stroke:#e4e4e4;}.g,.h{stroke-linecap:round;}.h{stroke:#3275cf;stroke-linejoin:round;stroke-width:2px;opacity:0.64;}.i{fill:#e4e4e4;}.j{fill:url(#j);}.k{fill:url(#k);}.l,.m{stroke:none;}.m{fill:#fff;}.n{filter:url(#h);}.o{filter:url(#f);}.p{filter:url(#c);}</style><clipPath id="a"><rect class="a" width="70" height="70" transform="translate(925 476)"/></clipPath><linearGradient id="b" x1="0.5" x2="0.5" y2="1" gradientUnits="objectBoundingBox"><stop offset="0" stop-color="#f8f8f8"/><stop offset="1" stop-color="#f0f0f0"/></linearGradient><filter id="c" x="-0.113" y="6.43" width="64.609" height="48.644" filterUnits="userSpaceOnUse"><feOffset dy="1" input="SourceAlpha"/><feGaussianBlur stdDeviation="0.5" result="d"/><feFlood flood-color="#323a45" flood-opacity="0.149"/><feComposite operator="in" in2="d"/><feComposite in="SourceGraphic"/></filter><linearGradient id="e" x1="0.5" y1="-0.07" x2="0.5" y2="1" gradientUnits="objectBoundingBox"><stop offset="0" stop-color="#f8f8f8"/><stop offset="1" stop-color="#dcdcdc"/></linearGradient><filter id="f" x="41.186" y="14.194" width="27.032" height="17.024" filterUnits="userSpaceOnUse"><feOffset dy="1" input="SourceAlpha"/><feGaussianBlur stdDeviation="0.5" result="g"/><feFlood flood-opacity="0.2"/><feComposite operator="in" in2="g"/><feComposite in="SourceGraphic"/></filter><filter id="h" x="14.892" y="17.035" width="26.015" height="28.467" filterUnits="userSpaceOnUse"><feOffset dy="1" input="SourceAlpha"/><feGaussianBlur stdDeviation="0.5" result="i"/><feFlood flood-opacity="0.2"/><feComposite operator="in" in2="i"/><feComposite in="SourceGraphic"/></filter><linearGradient id="j" x1="0.831" x2="0.056" y2="0.82" gradientUnits="objectBoundingBox"><stop offset="0" stop-color="#4086e5"/><stop offset="1" stop-color="#2160b5"/></linearGradient><linearGradient id="k" x1="0.831" y1="0" x2="0.772" y2="1" xlink:href="#j"/></defs><g class="b" transform="translate(-925 -476)"><g transform="translate(-2.2)"><rect class="c" width="69.299" height="69.299" transform="translate(927 476)"/><g transform="translate(928.583 482.93)"><g class="p" transform="matrix(1, 0, 0, 1, -1.38, -6.93)"><path class="d" d="M20628.367,5248.637l-52.7-.118a4.421,4.421,0,0,1-4.422-4.35h-.006l-.076-36.793v-.061h0a4.376,4.376,0,0,1,4.408-4.322l52.7.117a4.43,4.43,0,0,1,4.428,4.345h0l.078,36.8s0,.006,0,.01l0,.046h0a4.385,4.385,0,0,1-4.395,4.328Z" transform="translate(-20569.78 -5196.06)"/></g><path class="e" d="M0,0H10.242l.052,40.677-5.722.009C2.041,40.6.043,38.819.067,36.674Z" transform="translate(0 4.911)"/><g transform="translate(15.009 7.764)"><g transform="translate(26.295 0)"><g class="o" transform="matrix(1, 0, 0, 1, -42.69, -14.69)"><path class="f" d="M2.344.007,21.67.051a2.349,2.349,0,0,1,2.348,2.335l.021,9.321A2.323,2.323,0,0,1,21.7,14.031L2.376,13.988A2.349,2.349,0,0,1,.028,11.653L.007,2.332A2.323,2.323,0,0,1,2.344.007Z" transform="translate(42.68 14.69)"/></g><line class="g" x2="17.82" transform="translate(3.148 3.621)"/><line class="g" x2="9.9" transform="translate(3.148 7.012)"/></g><g class="n" transform="matrix(1, 0, 0, 1, -16.39, -14.69)"><path class="f" d="M2.436.007l18.1.045a2.441,2.441,0,0,1,2.439,2.426l.047,20.579a2.414,2.414,0,0,1-2.428,2.416l-18.1-.045A2.441,2.441,0,0,1,.054,23L.007,2.423A2.414,2.414,0,0,1,2.436.007Z" transform="translate(16.38 17.53)"/></g><path class="h" d="M.025,10.9ZM.016,7.266ZM.008,3.63ZM0,0Z" transform="translate(3.351 8.596)"/><path class="i" d="M1.218,0l8.845.02a1.225,1.225,0,0,1,1.078.6,1.206,1.206,0,0,1-1.073,1.821l-8.845-.02A1.221,1.221,0,0,1,0,1.212,1.207,1.207,0,0,1,1.218,0Z" transform="translate(5.74 22.826)"/></g><path class="i" d="M0,0H61.544" transform="translate(0.004 7.881)"/><path class="j" d="M20571.164,5211.458v-.062h0a5.463,5.463,0,0,1,1-3.879,3.8,3.8,0,0,1,3.412-1.524l52.7.117a4.1,4.1,0,0,1,3.492,1.674c1.109,1.357.918,2.605.936,3.752h0Z" transform="translate(-20571.16 -5205.994)"/><g transform="translate(39.753 26.91)"><g class="k" transform="matrix(0.951, 0.309, -0.309, 0.951, 7.812, 0)"><path class="l" d="M 12.37012577056885 25.17855072021484 C 11.75549507141113 25.17855072021484 11.22153568267822 24.74300003051758 11.10049533843994 24.14290046691895 L 10.78370571136475 22.57567024230957 L 10.77041530609131 22.50991058349609 L 10.70452499389648 22.49727058410645 C 9.915635108947754 22.34593963623047 9.132645606994629 22.0904598236084 8.377285003662109 21.7379207611084 L 8.315985679626465 21.70931053161621 L 8.26662540435791 21.75556945800781 L 7.121825695037842 22.82817077636719 C 6.882505416870117 23.05442047119141 6.569435596466064 23.1788501739502 6.239955425262451 23.1788501739502 C 5.936475276947021 23.1788501739502 5.641585350036621 23.07085037231445 5.409605503082275 22.8747501373291 L 3.658965349197388 21.39641952514648 C 3.160425424575806 20.97492027282715 3.056275367736816 20.24539947509766 3.41674542427063 19.69951057434082 L 4.289135456085205 18.38250923156738 L 4.326215267181396 18.32653045654297 L 4.288435459136963 18.27101898193359 C 3.837995529174805 17.60920906066895 3.469505548477173 16.9056396484375 3.1932053565979 16.17988014221191 L 3.16950535774231 16.11763954162598 L 3.102945566177368 16.11550903320312 L 1.541325449943542 16.0655403137207 C 0.8897654414176941 16.04499053955078 0.3554754555225372 15.53709030151367 0.2984654605388641 14.88409996032715 L 0.1040554642677307 12.60019016265869 C 0.05208546295762062 11.94740962982178 0.495525449514389 11.35740947723389 1.135565519332886 11.22834014892578 L 2.580665349960327 10.93377017974854 L 2.647805452346802 10.92008018493652 L 2.659285545349121 10.85252952575684 C 2.802065372467041 10.01198959350586 3.05020546913147 9.18982982635498 3.396815538406372 8.408869743347168 L 3.423725366592407 8.348249435424805 L 3.378345489501953 8.299880027770996 L 2.366875410079956 7.221749782562256 C 1.917075514793396 6.746109962463379 1.897175431251526 6.010220050811768 2.320315361022949 5.509699821472168 L 3.798815488815308 3.747659921646118 C 4.044155597686768 3.45743989944458 4.402885437011719 3.29082989692688 4.782775402069092 3.29082989692688 C 5.036185264587402 3.29082989692688 5.282645225524902 3.365109920501709 5.495505332946777 3.505639791488647 L 6.651155471801758 4.272480010986328 L 6.708785533905029 4.31072998046875 L 6.764905452728271 4.270289897918701 C 7.507535457611084 3.735209941864014 8.327645301818848 3.303899765014648 9.202445030212402 2.988349914550781 L 9.26624584197998 2.96533989906311 L 9.268465042114258 2.897549867630005 L 9.31285572052002 1.5415198802948 C 9.333365440368652 0.8898398280143738 9.841255187988281 0.3555198609828949 10.49425506591797 0.2985198497772217 L 12.77805519104004 0.1040298566222191 C 12.81155586242676 0.1013698577880859 12.84611511230469 0.09999985247850418 12.88020515441895 0.09999985247850418 C 13.49498558044434 0.09999985247850418 14.02897548675537 0.5355598330497742 14.14991569519043 1.135669827461243 L 14.42219543457031 2.469689846038818 L 14.43574523925781 2.536089897155762 L 14.50244522094727 2.548109769821167 C 15.39595508575439 2.709039926528931 16.25487518310547 2.986699819564819 17.05535507202148 3.373379945755005 L 17.11714553833008 3.403229951858521 L 17.1672248840332 3.356319904327393 L 18.13413619995117 2.45044994354248 C 18.37338638305664 2.224179744720459 18.68642616271973 2.099749803543091 19.01593589782715 2.099749803543091 C 19.31944465637207 2.099749803543091 19.61431503295898 2.207749843597412 19.84623527526855 2.403849840164185 L 21.59688568115234 3.882129907608032 C 22.09941482543945 4.306950092315674 22.19911575317383 5.038359642028809 21.82876586914062 5.58342981338501 L 21.0669059753418 6.729079723358154 L 21.0296745300293 6.785059928894043 L 21.06746482849121 6.840659618377686 C 21.54495620727539 7.543179988861084 21.93186569213867 8.305919647216797 22.21747589111328 9.10768985748291 L 22.2403450012207 9.171910285949707 L 22.30848503112793 9.174079895019531 L 23.70339584350586 9.218560218811035 C 24.35500526428223 9.239079475402832 24.88929557800293 9.746970176696777 24.94624519348145 10.39995002746582 L 25.14081573486328 12.68388938903809 C 25.19263458251953 13.33669948577881 24.74915504455566 13.92671012878418 24.10920524597168 14.05572986602783 L 22.71960639953613 14.33918952941895 L 22.65329551696777 14.35270977020264 L 22.64120483398438 14.4193000793457 C 22.4893856048584 15.25521945953369 22.22283554077148 16.08082008361816 21.84896469116211 16.8731803894043 L 21.81986618041992 16.93486022949219 L 21.86666488647461 16.98447036743164 L 22.88367462158203 18.06257057189941 C 23.33329582214355 18.53800964355469 23.35319519042969 19.27391052246094 22.93004608154297 19.7744197845459 L 21.45180511474609 21.52507972717285 C 21.20623970031738 21.81556129455566 20.84748458862305 21.9821891784668 20.46763038635254 21.9821891784668 C 20.46760559082031 21.9821891784668 20.46761894226074 21.9821891784668 20.46759605407715 21.9821891784668 C 20.21417617797852 21.9821891784668 19.9677562713623 21.90789985656738 19.75497627258301 21.76737976074219 L 18.49336624145508 20.93375015258789 L 18.43746566772461 20.89681053161621 L 18.38204574584961 20.9344596862793 C 17.65908622741699 21.42559051513672 16.87587547302246 21.82181930541992 16.05418586730957 22.11214065551758 L 15.98976516723633 22.1348991394043 L 15.98754501342773 22.20318031311035 L 15.93767547607422 23.73708915710449 C 15.91701507568359 24.38875961303711 15.40910530090332 24.9230899810791 14.7562255859375 24.98006057739258 L 12.47231578826904 25.17452049255371 C 12.43879508972168 25.17717933654785 12.40422534942627 25.17855072021484 12.37012577056885 25.17855072021484 Z M 12.68280506134033 7.946179866790771 C 12.55209541320801 7.946179866790771 12.41947555541992 7.951859951019287 12.28862571716309 7.963059902191162 C 11.06878566741943 8.064709663391113 9.960585594177246 8.637470245361328 9.168395042419434 9.57582950592041 C 8.376165390014648 10.5142297744751 7.99737548828125 11.70292949676514 8.101795196533203 12.92294025421143 C 8.197725296020508 14.07427978515625 8.721135139465332 15.13912963867188 9.575615882873535 15.92109966278076 C 10.42514514923096 16.69853973388672 11.52320575714111 17.12669944763184 12.66751575469971 17.12669944763184 C 12.79823589324951 17.12669944763184 12.9308557510376 17.12101936340332 13.0617151260376 17.10981941223145 C 14.28153514862061 17.00820922851562 15.38973522186279 16.43548011779785 16.18192481994629 15.49712944030762 C 16.97415542602539 14.55873966217041 17.35293579101562 13.37003993988037 17.24848556518555 12.15001964569092 C 17.15255546569824 10.99866008758545 16.6291561126709 9.93379020690918 15.77469539642334 9.151809692382812 C 14.92518520355225 8.374349594116211 13.82712554931641 7.946179866790771 12.68280506134033 7.946179866790771 Z"/><path class="m" d="M 12.88020515441895 0.2000007629394531 C 12.84880542755127 0.2000007629394531 12.81689548492432 0.2012691497802734 12.78653526306152 0.2036705017089844 L 10.50294589996338 0.3981399536132812 C 9.900385856628418 0.4507389068603516 9.43172550201416 0.9435806274414062 9.412795066833496 1.544780731201172 L 9.368405342102051 2.900819778442383 L 9.363975524902344 3.03639030456543 L 9.23637580871582 3.082408905029297 C 8.370285034179688 3.394819259643555 7.558425903320312 3.821779251098633 6.823366165161133 4.351428985595703 L 6.711126327514648 4.432289123535156 L 6.595865249633789 4.355810165405273 L 5.44041633605957 3.589090347290039 C 5.243955612182617 3.459390640258789 5.016546249389648 3.390829086303711 4.78277587890625 3.390829086303711 C 4.432374954223633 3.390829086303711 4.101486206054688 3.544519424438477 3.875415802001953 3.811939239501953 L 2.396675109863281 5.574249267578125 C 2.00645637512207 6.035829544067383 2.024755477905273 6.714439392089844 2.43980598449707 7.153329849243164 L 3.451274871826172 8.231460571289062 L 3.542024612426758 8.32819938659668 L 3.488216400146484 8.449430465698242 C 3.144985198974609 9.222789764404297 2.899255752563477 10.03693962097168 2.757875442504883 10.86927032470703 L 2.734926223754883 11.00438022613525 L 2.600645065307617 11.0317497253418 L 1.155336380004883 11.32635974884033 C 0.5648651123046875 11.4454402923584 0.1557846069335938 11.9898796081543 0.2036952972412109 12.59171009063721 L 0.3980846405029297 14.87541007995605 C 0.4506855010986328 15.47795963287354 0.9435062408447266 15.94664001464844 1.544525146484375 15.96558952331543 L 3.106145858764648 16.01556015014648 L 3.239265441894531 16.01982116699219 L 3.286655426025391 16.1442985534668 C 3.560195922851562 16.86277961730957 3.925054550170898 17.55937957763672 4.371105194091797 18.21475982666016 L 4.446664810180664 18.32577896118164 L 4.372505187988281 18.43774032592773 L 3.500185012817383 19.75461959838867 C 3.16761589050293 20.25823974609375 3.263654708862305 20.93124961853027 3.723485946655273 21.32000923156738 L 5.474155426025391 22.79837989807129 C 5.688116073608398 22.97924041748047 5.960084915161133 23.07884979248047 6.239955902099609 23.07884979248047 C 6.543785095214844 23.07884979248047 6.832454681396484 22.96413040161133 7.053455352783203 22.75518989562988 L 8.19825553894043 21.68257904052734 L 8.296985626220703 21.59008026123047 L 8.419586181640625 21.64730072021484 C 9.167425155639648 21.99633026123047 9.942525863647461 22.24925994873047 10.72336578369141 22.3990592956543 L 10.85513591766357 22.42433929443359 L 10.8817253112793 22.55584907531738 L 11.19851589202881 24.12311935424805 C 11.31018543243408 24.6767406463623 11.80291557312012 25.07855033874512 12.37012577056885 25.07855033874512 C 12.40165519714355 25.07855033874512 12.43355560302734 25.07728004455566 12.46382522583008 25.07488059997559 L 14.74752521514893 24.88043975830078 C 15.34998512268066 24.8278694152832 15.81866550445557 24.33501052856445 15.83773517608643 23.73383903503418 L 15.88760566711426 22.19993019104004 L 15.89204502105713 22.06336975097656 L 16.02086639404297 22.01784896850586 C 16.8344841003418 21.73039054870605 17.6099853515625 21.33805084228516 18.32583618164062 20.85173988342285 L 18.43668556213379 20.77643966674805 L 18.54848480224609 20.85031890869141 L 19.81008529663086 21.68392944335938 C 20.0064754486084 21.81362915039062 20.23383522033691 21.8821907043457 20.46758651733398 21.8821907043457 C 20.81798553466797 21.8821907043457 21.14890480041504 21.72847938537598 21.37540626525879 21.46056938171387 L 22.85368537902832 19.70985984802246 C 23.24391555786133 19.2482795715332 23.22560501098633 18.56967926025391 22.81093597412109 18.13118934631348 L 21.79392623901367 17.0530891418457 L 21.70032501220703 16.9538688659668 L 21.75852584838867 16.83049964904785 C 22.12867546081543 16.04603004455566 22.39254570007324 15.22877025604248 22.54281616210938 14.40143013000488 L 22.5670051574707 14.26826000213623 L 22.69962501525879 14.24120998382568 L 24.08943557739258 13.9576997756958 C 24.67982482910156 13.83868026733398 25.08894538879395 13.29420948028564 25.04117584228516 12.69237995147705 L 24.84662628173828 10.40863990783691 C 24.79407501220703 9.806079864501953 24.30125617980957 9.337430000305176 23.70021629333496 9.318510055541992 L 22.30530548095703 9.274030685424805 L 22.16902542114258 9.269680023193359 L 22.12327575683594 9.141239166259766 C 21.84051513671875 8.347480773925781 21.45747566223145 7.592369079589844 20.98476600646973 6.896879196166992 L 20.9091854095459 6.785669326782227 L 20.98363494873047 6.673700332641602 L 21.74604606628418 5.527229309082031 C 22.08756637573242 5.02461051940918 21.99566650390625 4.350189208984375 21.53237533569336 3.958539962768555 L 19.78166580200195 2.480209350585938 C 19.56778526306152 2.299360275268555 19.29584503173828 2.199760437011719 19.01593589782715 2.199748992919922 C 18.71209526062012 2.199748992919922 18.42345428466797 2.314470291137695 18.20250511169434 2.523420333862305 L 17.235595703125 3.429290771484375 L 17.13544464111328 3.52311897277832 L 17.01186561584473 3.463430404663086 C 16.21954536437988 3.080699920654297 15.36929512023926 2.805849075317383 14.48472499847412 2.646520614624023 L 14.35132503509521 2.622499465942383 L 14.32421588897705 2.489690780639648 L 14.0518856048584 1.155420303344727 C 13.94032573699951 0.6018104553222656 13.44755554199219 0.2000007629394531 12.88020515441895 0.2000007629394531 M 12.66751575469971 17.22669982910156 C 11.49814510345459 17.22669982910156 10.3761157989502 16.78923034667969 9.508105278015137 15.99487018585205 C 8.63499641418457 15.19584941864014 8.100166320800781 14.10774993896484 8.002176284790039 12.93146991729736 C 7.895456314086914 11.68480014801025 8.282495498657227 10.47017002105713 9.091985702514648 9.511329650878906 C 9.901435852050781 8.552520751953125 11.03381538391113 7.967279434204102 12.28010559082031 7.863430023193359 C 12.41385555267334 7.851980209350586 12.54934501647949 7.846179962158203 12.68280506134033 7.846179962158203 C 13.85217571258545 7.846179962158203 14.97421550750732 8.283658981323242 15.84220504760742 9.078039169311523 C 16.71529579162598 9.877069473266602 17.25011444091797 10.96518993377686 17.34811592102051 12.14148998260498 C 17.45485496520996 13.38817024230957 17.06782531738281 14.60280990600586 16.25833511352539 15.5616397857666 C 15.44888591766357 16.52042961120605 14.31650543212891 17.10564994812012 13.07023525238037 17.20944976806641 C 12.93648529052734 17.22089958190918 12.80098533630371 17.22669982910156 12.66751575469971 17.22669982910156 M 12.88020324707031 0 C 13.53617191314697 0 14.11642265319824 0.4632892608642578 14.24794578552246 1.115909576416016 L 14.52017593383789 2.449689865112305 C 15.41498565673828 2.610858917236328 16.28197479248047 2.888740539550781 17.09885406494141 3.283340454101562 L 18.06576538085938 2.377470016479492 C 18.33121490478516 2.126428604125977 18.6730899810791 1.999744415283203 19.01593589782715 1.999752044677734 C 19.3333911895752 1.999759674072266 19.65168380737305 2.108386993408203 19.91080474853516 2.327489852905273 L 21.66140556335449 3.805728912353516 C 22.20053482055664 4.261489868164062 22.31165504455566 5.050670623779297 21.91147613525391 5.639629364013672 L 21.15017509460449 6.784450531005859 C 21.63371467590332 7.495880126953125 22.02265548706055 8.26276969909668 22.31167602539062 9.074129104614258 L 23.70658493041992 9.118610382080078 C 24.4123649597168 9.140829086303711 24.98479461669922 9.69102954864502 25.04586601257324 10.39126014709473 L 25.24045562744141 12.67539978027344 C 25.29604530334473 13.37570953369141 24.818115234375 14.01482009887695 24.12896537780762 14.15375995635986 L 22.73959541320801 14.43717002868652 C 22.58414459228516 15.29306030273438 22.31176567077637 16.12668991088867 21.93940544128418 16.91584968566895 L 22.9564151763916 17.99394989013672 C 23.43995475769043 18.5052604675293 23.46213531494141 19.29994010925293 23.00641632080078 19.83897972106934 L 21.5282154083252 21.589599609375 C 21.25495910644531 21.91281700134277 20.86392593383789 22.08219146728516 20.46758842468262 22.08219146728516 C 20.20286560058594 22.08219146728516 19.93575668334961 22.00660705566406 19.69986534118652 21.85082054138184 L 18.43822479248047 21.01717948913574 C 17.71018600463867 21.51177024841309 16.92116546630859 21.91188049316406 16.08749580383301 22.20643043518066 L 16.03762435913086 23.7403392791748 C 16.01524543762207 24.44619941711426 15.46514511108398 25.01857948303223 14.76491546630859 25.07967948913574 L 12.48079586029053 25.27416038513184 C 12.44369792938232 25.2771053314209 12.40681648254395 25.2785530090332 12.37012767791748 25.2785530090332 C 11.71429538726807 25.2785530090332 11.13410186767578 24.8152904510498 11.00246524810791 24.16267013549805 L 10.68568515777588 22.59547996520996 C 9.874335289001465 22.4398307800293 9.085155487060547 22.17864990234375 8.334995269775391 21.82852935791016 L 7.190195083618164 22.9011402130127 C 6.924652099609375 23.15218925476074 6.582832336425781 23.27885055541992 6.239953994750977 23.27885055541992 C 5.92254638671875 23.27885055541992 5.604211807250977 23.17020416259766 5.34504508972168 22.95112037658691 L 3.594446182250977 21.47282028198242 C 3.055425643920898 21.01709938049316 2.944305419921875 20.23347091674805 3.333295822143555 19.6444091796875 L 4.205764770507812 18.32728958129883 C 3.755695343017578 17.6660099029541 3.383264541625977 16.96017074584961 3.09974479675293 16.2154598236084 L 1.538125991821289 16.16548919677734 C 0.8322963714599609 16.14323043823242 0.2599754333496094 15.59303951263428 0.1988449096679688 14.89280033111572 L 0.004415512084960938 12.60867023468018 C -0.05133438110351562 11.90837955474854 0.4267063140869141 11.2692699432373 1.115795135498047 11.13031005859375 L 2.560695648193359 10.83578014373779 C 2.705116271972656 9.985599517822266 2.955165863037109 9.157459259033203 3.305416107177734 8.36829948425293 L 2.2939453125 7.290170669555664 C 1.810455322265625 6.778909683227539 1.788225173950195 5.984180450439453 2.243946075439453 5.44512939453125 L 3.722206115722656 3.683380126953125 C 3.995426177978516 3.360193252563477 4.386421203613281 3.190834045410156 4.782773971557617 3.190834045410156 C 5.047506332397461 3.190834045410156 5.314651489257812 3.266414642333984 5.550605773925781 3.422189712524414 L 6.706445693969727 4.189159393310547 C 7.462366104125977 3.644489288330078 8.290334701538086 3.211050033569336 9.168516159057617 2.894279479980469 L 9.212905883789062 1.538240432739258 C 9.235124588012695 0.8324089050292969 9.785215377807617 0.2600307464599609 10.48555564880371 0.1989002227783203 L 12.76956558227539 0.004390716552734375 C 12.80667114257812 0.001445770263671875 12.84350681304932 0 12.88020324707031 0 Z M 12.66751861572266 17.02669715881348 C 12.79505825042725 17.02669715881348 12.92381572723389 17.02125549316406 13.05318546295166 17.01017951965332 C 15.52052593231201 16.80466842651367 17.36011505126953 14.62615013122559 17.14884567260742 12.15855026245117 C 16.95405197143555 9.820456504821777 14.98788928985596 8.046184539794922 12.68280220031738 8.046184539794922 C 12.55526161193848 8.046184539794922 12.42652797698975 8.051626205444336 12.29715538024902 8.062700271606445 C 9.829755783081055 8.268299102783203 7.990224838256836 10.44686985015869 8.201444625854492 12.91440963745117 C 8.396228790283203 15.25248432159424 10.36246490478516 17.02669715881348 12.66751861572266 17.02669715881348 Z"/></g><path class="f" d="M4.868,8.964a4.49,4.49,0,1,1,4.1-4.852A4.49,4.49,0,0,1,4.868,8.964Z" transform="matrix(0.951, 0.309, -0.309, 0.951, 13.11, 10.181)"/></g><path class="f" d="M6.49.812a.811.811,0,1,1,.812.812A.81.81,0,0,1,6.49.812Zm-3.247,0a.812.812,0,1,1,.812.812A.815.815,0,0,1,3.243.812ZM0,.812a.81.81,0,1,1,.81.812A.813.813,0,0,1,0,.812Z" transform="translate(4.444 1.96)"/></g></g></g></svg>