<svg xmlns="http://www.w3.org/2000/svg" xmlns:xlink="http://www.w3.org/1999/xlink" width="62" height="62" viewBox="0 0 62 62"><defs><style>.a{fill:url(#a);}.b{fill:none;}.c{stroke:#fff;stroke-width:0.5px;fill:url(#b);}.d{filter:url(#c);}</style><linearGradient id="a" x1="0.5" x2="0.5" y2="1" gradientUnits="objectBoundingBox"><stop offset="0" stop-color="#4086e5"/><stop offset="1" stop-color="#2160b5"/></linearGradient><linearGradient id="b" x1="0.5" y1="-0.469" x2="0.5" y2="0.972" gradientUnits="objectBoundingBox"><stop offset="0" stop-color="#f8f8f8"/><stop offset="1" stop-color="#dcdcdc"/></linearGradient><filter id="c" x="4.252" y="5.251" width="53.498" height="47.231" filterUnits="userSpaceOnUse"><feOffset dy="1" input="SourceAlpha"/><feGaussianBlur stdDeviation="0.5" result="d"/><feFlood flood-color="#323a45" flood-opacity="0.149"/><feComposite operator="in" in2="d"/><feComposite in="SourceGraphic"/></filter></defs><g transform="translate(-659 -355)"><path class="a" d="M4378.08-1219.178h5.051a2.682,2.682,0,0,1-2.525,1.786A2.684,2.684,0,0,1,4378.08-1219.178Zm-1.045-1.785a.894.894,0,0,1-.893-.893v-2.679h8.928v2.679a.894.894,0,0,1-.893.893Zm-1.787-5.358v-1.342a9.14,9.14,0,0,0-2.818-6.494,11.607,11.607,0,0,1-2.557-12.651A11.608,11.608,0,0,1,4380.59-1254a12.251,12.251,0,0,1,1.378.078,11.637,11.637,0,0,1,10.164,10.139,11.567,11.567,0,0,1-3.452,9.725,8.94,8.94,0,0,0-2.717,6.389v1.348Z" transform="translate(-3690.605 1628.391)"/><rect class="b" width="62" height="62" transform="translate(659 355)"/><g class="d" transform="matrix(1, 0, 0, 1, 659, 355)"><path class="c" d="M16896.7,8271.228l-3.156-3.156a1.785,1.785,0,1,1,2.525-2.524l3.156,3.156a1.788,1.788,0,0,1,0,2.524,1.829,1.829,0,0,1-2.525,0Zm-33.93,0a1.788,1.788,0,0,1,0-2.524l3.156-3.156a1.787,1.787,0,1,1,2.529,2.524l-3.16,3.156a1.829,1.829,0,0,1-2.525,0Zm36.977-16.44a1.787,1.787,0,1,1,0-3.573h4.463a1.787,1.787,0,1,1,0,3.573Zm-41.967,0a1.787,1.787,0,0,1,0-3.573h4.469a1.787,1.787,0,0,1,0,3.573Zm35.764-14.333a1.788,1.788,0,0,1,0-2.524l3.156-3.156a1.785,1.785,0,1,1,2.525,2.524l-3.156,3.156a1.829,1.829,0,0,1-2.525,0Zm-27.617,0-3.156-3.156a1.785,1.785,0,0,1,2.525-2.524l3.156,3.156a1.788,1.788,0,0,1,0,2.524,1.829,1.829,0,0,1-2.525,0Zm13.285-6.2v-4.463a1.786,1.786,0,1,1,3.572,0v4.463a1.786,1.786,0,1,1-3.572,0Z" transform="translate(-16850 -8222)"/></g></g></svg>