<svg width="26" height="26" viewBox="0 0 26 26" fill="none" xmlns="http://www.w3.org/2000/svg">
<path d="M20.4295 9.28565C20.281 8.61708 19.761 8.09708 19.0924 7.94851C17.9038 7.65137 13.0753 7.65137 13.0753 7.65137C13.0753 7.65137 8.24669 7.65137 7.05811 7.94851C6.38954 8.09708 5.86954 8.69137 5.72097 9.28565C5.42383 10.4742 5.42383 12.9999 5.42383 12.9999C5.42383 12.9999 5.42383 15.5257 5.72097 16.7142C5.86954 17.3828 6.38954 17.9028 7.05811 18.0514C8.24669 18.3485 13.0753 18.3485 13.0753 18.3485C13.0753 18.3485 17.9038 18.3485 19.0924 18.0514C19.761 17.9028 20.281 17.3085 20.4295 16.7142C20.7267 15.5257 20.7267 12.9999 20.7267 12.9999C20.7267 12.9999 20.7267 10.4742 20.4295 9.28565ZM11.441 15.3028V10.6971L15.4524 12.9999L11.441 15.3028Z" fill="white"/>
</svg>
