<svg xmlns="http://www.w3.org/2000/svg" width="25" height="25.005" viewBox="0 0 25 25.005">
  <g id="zooming_1_" data-name="zooming (1)" transform="translate(-11 -11)">
    <g id="Group_93187" data-name="Group 93187" transform="translate(11 11)">
      <path id="Path_169248" data-name="Path 169248" d="M35.7,34.223,30.11,28.64a10.83,10.83,0,1,0-1.475,1.47L34.223,35.7A1.043,1.043,0,1,0,35.7,34.223Zm-7.761-6.282a8.7,8.7,0,1,1,2.551-6.154A8.646,8.646,0,0,1,27.936,27.941Z" transform="translate(-11 -11)" fill="#323a45"/>
      <path id="Path_169249" data-name="Path 169249" d="M115.571,109.57h-3.924v-3.929a1.041,1.041,0,0,0-2.082,0v3.929h-3.924a1.041,1.041,0,0,0,0,2.082h3.924v3.924a1.041,1.041,0,0,0,2.082,0v-3.924h3.924a1.041,1.041,0,1,0,0-2.082Z" transform="translate(-99.824 -99.824)" fill="#323a45"/>
    </g>
  </g>
</svg>
